<?xml version="1.0" encoding="UTF-8"?><svg id="Layer_32" xmlns="http://www.w3.org/2000/svg" xmlns:xlink="http://www.w3.org/1999/xlink" viewBox="0 0 530 734"><defs><style>.cls-1{stroke:#d9b7a0;}.cls-1,.cls-2,.cls-3,.cls-4,.cls-5,.cls-6{fill:none;stroke-linecap:round;}.cls-1,.cls-3,.cls-4,.cls-5{stroke-linejoin:round;}.cls-2{stroke:#c9c9c9;stroke-width:6px;}.cls-2,.cls-6{stroke-miterlimit:10;}.cls-7{fill:url(#linear-gradient);}.cls-8,.cls-9{fill:#f5dccb;}.cls-3{stroke-width:11px;}.cls-3,.cls-6{stroke:#000;}.cls-10{clip-path:url(#clippath-1);}.cls-4{stroke:#ba9788;stroke-width:4px;}.cls-5{stroke:#e1c1ac;stroke-width:2px;}.cls-6{stroke-width:9px;}.cls-11,.cls-12,.cls-13,.cls-14,.cls-15,.cls-16,.cls-17,.cls-18,.cls-9,.cls-19,.cls-20{stroke-width:0px;}.cls-12{fill:#facfb9;}.cls-13{fill:#4a8c77;}.cls-14{fill:#d9b7a0;}.cls-15{fill:#e0c1ab;}.cls-16{fill:#d9d9d9;}.cls-17{fill:#a6a6a6;}.cls-18{fill:#ba9788;}.cls-19{fill:#039686;}.cls-20{fill:#00685e;}</style><linearGradient id="linear-gradient" x1="260.25" y1="227.55" x2="269.86" y2="338.3" gradientUnits="userSpaceOnUse"><stop offset="0" stop-color="#d9b7a0"/><stop offset="1" stop-color="#f5dccb"/></linearGradient><clipPath id="clippath-1"><path class="cls-9" d="m170.61,122.34c10.56,31.09,18.34,64.99,41.06,89.43,12.14,10.04,26.89,17.23,42.67,20.61,7.28,1.27,15.08-.12,21.77-3.41,17.77-13.36,31.53-31.49,39.41-51.61,4.38-27.16,7.14-54.54,8.48-82.44-12.45-14.37-31.3-22.97-50.74-25.86-19.44-2.9-39.49-.45-58.57,4.47-13.39,3.45-26.75,8.28-37.34,16.83-10.6,8.56-11.77,17.14-6.73,31.98Z"/></clipPath></defs><path class="cls-7" d="m308.22,189.95c-3.18,19.26-3.86,38.91-1.8,58.46,4.22,4.51,10.26,7.37,16.51,7.82-5.08,11.01-11.56,21.41-19.24,30.9-7.33,9.05-16.26,17.57-27.62,20.83-15.65,4.5-32.89-2.14-44.88-12.92-11.99-10.77-19.78-25.15-28.63-38.4,5.53-1.13,11.52-4.2,11.19-9.69-1.32-21.89-.63-30.46-2.97-46.38"/><path class="cls-14" d="m319.92,122.08c.52-1.79,1.06-3.62,2.19-5.12s2.99-2.63,4.88-2.38c2.74.35,4.28,3.24,4.9,5.86,1.63,6.9-.03,14.25-3.19,20.66-3.16,6.41-7.73,12.04-12.27,17.61"/><path class="cls-14" d="m178.44,146.17c-1.11-1.5-2.26-3.03-3.85-4.06s-3.72-1.44-5.41-.57c-2.44,1.27-2.88,4.5-2.55,7.17.89,7.03,5.01,13.36,10.21,18.3s11.47,8.66,17.67,12.34"/><path class="cls-8" d="m170.61,122.34c10.56,31.09,18.34,64.99,41.06,89.43,12.14,10.04,26.89,17.23,42.67,20.61,7.28,1.27,15.08-.12,21.77-3.41,17.77-13.36,31.53-31.49,39.41-51.61,4.38-27.16,7.14-54.54,8.48-82.44-12.45-14.37-31.3-22.97-50.74-25.86-19.44-2.9-39.49-.45-58.57,4.47-13.39,3.45-26.75,8.28-37.34,16.83-10.6,8.56-11.77,17.14-6.73,31.98Z"/><g class="cls-10"><ellipse class="cls-12" cx="300.7" cy="167.77" rx="18.24" ry="17.28" transform="translate(-15.55 31.57) rotate(-5.86)"/><ellipse class="cls-12" cx="210.21" cy="185.98" rx="18.24" ry="17.28" transform="translate(-17.89 22.43) rotate(-5.86)"/></g><ellipse class="cls-11" cx="222.41" cy="143.42" rx="8" ry="11.19" transform="translate(-13.48 23.45) rotate(-5.86)"/><ellipse class="cls-11" cx="283.68" cy="131.02" rx="8" ry="11.19" transform="translate(-11.89 29.64) rotate(-5.86)"/><path class="cls-13" d="m239.32,477.69c-22.9-24.2-41.48-52.26-54.66-82.56-6.94,17.77,1.2,37.41,9.24,54.74,12.88,27.79,26.07,56.04,46.83,78.87"/><path class="cls-13" d="m136.77,297.26c15.42,15.97,30.65,34.04,33.57,55.77,1.84-26.8-14.95-53.89-33.57-55.77Z"/><path class="cls-13" d="m207.3,549.07c22.86,55.26,68.72,101.13,124.86,124.87-45.75-36.63-84.8-81.15-114.79-130.87,18.02,23.04,41.99,41.64,69.09,53.59-25.77-21.92-48.94-46.74-68.9-73.79"/><path class="cls-13" d="m289.98,541.43c21.85,39.06,51.8,73.8,87.51,101.53-29.29-34.82-58.58-69.64-87.51-101.53Z"/><path class="cls-13" d="m327.85,446.97c-13.52-44-35.66-85.47-64.89-121.53,25.48,58.11,50.97,116.22,76.45,174.33"/><path class="cls-11" d="m258.17,111.62c7.79-3.4,15.75-6.66,24.16-7.99,8.41-1.33,17.42-.59,24.72,3.62-3.49,2.62-8.33,2.14-12.71,1.96-10.83-.46-21.79,1.66-31.65,6.13-1.55.7-3.3,1.48-4.9.91s-2.23-3.48.39-4.63Z"/><path class="cls-11" d="m230.63,118.17c-8.5.44-17.09,1.08-25.21,3.64s-15.81,7.24-20.4,14.25c4.31.78,8.42-1.8,12.24-3.92,9.46-5.24,20.2-8.24,31.04-8.65,1.71-.06,3.62-.15,4.79-1.37s.4-4.1-2.46-3.96Z"/><path class="cls-20" d="m83.18,498.4c12.85,6.57,27.13,10.33,41.56,10.94,2.85-12.56,5.7-25.11,8.55-37.67.19-.82.33-1.8-.26-2.4-.75-.77-2.04-.31-2.99.19-16.21,8.53-31.89,18.03-46.86,28.93Z"/><path class="cls-19" d="m204.53,256.62c18.79,16.76,37.59,33.52,56.85,49.55,18.54-17.3,38.67-32.99,59.2-45.78,24.84,7.8,44.28,28.11,54.35,51.55,10.07,23.44,11.54,49.7,8.38,74.91-3.16,25.21-10.76,49.67-18.25,74.05,3.61,70.71,17.5,140.91,38.99,208.5-8.21,14.46-27.02,19.03-43.77,21.72-79.23,12.73-163.47,14.85-238.23-17.05,21.85-118.34,43.78-238.84,25.49-357.53l.18-1.59"/><path class="cls-20" d="m297.2,466.39c-28.58-37.15-53.37-77.06-73.87-118.96,2.32,29.02,6.54,58.44,19.28,84.76,10.64,22,26.8,40.95,42.78,59.64,20.31,23.75,40.61,47.5,60.92,71.25-17.21-24.27-18.68-57.16-49.1-96.69Z"/><path class="cls-20" d="m221.78,505.7c15.81,42.52,50.55,77.59,92.91,93.81-29.48-26.01-53.43-58.26-92.91-93.81Z"/><path class="cls-9" d="m432.59,500.5c-.5-5.02-7.31-8.42-13.34-10.14-14.32-4.1-27.2-5.23-42.09-5.31-48.69-.27-104.35,12.08-153.02,13.51-29.26.86-53.84,2.96-79.15,17.68-3.74,17.32-6.04,34.95-6.92,52.64,7.39-.62,14.81-.73,22.25-.21,6.58.46,13.24,1.24,19.73,2.5,4.56.89,8.88,1.86,13.57,1.78,3.62-.06,7.79-1.03,12.05-2.28,3.18-2.21,6.37-4.41,9.78-6.23,15.31-8.16,33.52-8.03,50.86-7.7,40.01.76,80.03,1.53,120.04,2.29,11.42.22,23.71.18,33.01-6.44,7.67-5.46,11.98-14.66,13.52-23.95,1.54-9.28.62-18.78-.31-28.14Z"/><path class="cls-9" d="m147.03,515.38c-2.99,1.54-5.84,3.37-8.48,5.45-.67.53-1.34,1.09-1.74,1.85-1.75,3.38,3.14,7.5,1.47,10.93-.6,1.22-1.89,1.94-2.71,3.03-1.58,2.08-1.14,5.04-.34,7.53s1.87,5.08,1.32,7.63c-.8,3.72-4.85,6.35-4.87,10.16-.02,3.08,2.62,5.43,5.03,7.35.74.59,1.52,1.19,2.44,1.41,1.07.25,2.18-.07,3.23-.38,5.05-1.5,10.11-3,15.16-4.5"/><path class="cls-9" d="m363.03,463.71c.32,12.14.63,24.28.95,36.42,23.39,6.55,44.83,24.15,69.07,25.71,4.42-11.63,9.12-40.28,7.95-52.66"/><path class="cls-19" d="m365.44,310.8c-21.21,48.9-35.27,101.29-41.48,155.05,39.32,13.1,80.24,20.79,120.51,23.91-.39-44.62-4.12-89.2-11.12-133.2-3.26-20.47-7.52-41.52-19.07-58.26-11.39-16.51-28.98-27.25-47.36-33.38-18.38-6.13-37.73-8.07-57.01-12.54.14,0,.29,0,.49-.08l4.71,4.1"/><path class="cls-20" d="m340.67,401.12c-8.01-39.19,5.06-81.89,33.8-110.42-12.58,22.8-19.58,48.5-20.27,74.37,3.95-11.73,12.2-22.04,22.92-28.63-14.71,20.77-26.33,43.61-36.45,64.68Z"/><path class="cls-20" d="m161.9,587.94c52.07,55.68,128.57,87.66,204.77,85.6-71.76-21.8-140.41-53.8-204.77-85.6Z"/><path class="cls-20" d="m329.92,440.48c2.09-16.18,12.59-30.43,25.56-40.75,12.97-10.32,28.37-17.25,43.49-24.3-25.17,21.55-49.7,43.79-69.05,65.05Z"/><path class="cls-20" d="m352.3,459.12c25.89-8.81,50.71-20.62,73.75-35.11-16.57,24.35-47.71,38.52-73.75,35.11Z"/><path class="cls-13" d="m340.32,385.89c-4.03,19.03-8.06,38.06-12.1,57.08,6.91-21.02,13.83-42.03,12.1-57.08Z"/><path class="cls-9" d="m106.59,468.14c2.9,17.49,6.53,35.27,15.52,50.56s24.33,27.87,42.02,29.15c8.84.64,18.58-2.1,23.56-9.43,4.57-6.71,4.18-15.54,3.03-23.58-4.09-28.78-15.72-56.46-33.41-79.54"/><path class="cls-19" d="m198.54,265.44c1.39-1.33,2.78-2.66,4.17-3.99-18.72,5.46-37.63,8.65-55.37,15.69-17.98,7.14-34.88,18.65-45.27,35.29-10.53,16.87-13.53,37.39-15.57,57.27-4.38,42.75-5.45,85.84-3.19,128.74,1.39-.2,2.78-.42,4.18-.63,9.45-4.63,19.06-8.94,28.79-12.89,11.04-4.48,22.27-8.47,33.65-11.93,11.49-3.5,23.66-6.91,35.72-6.12,3.31.22,6.24,1.4,8.53,3.47,2.67-1,5.33-2.01,7.97-3.06-9.39-51.24-26.54-100.62-50.61-146.16l46.99-55.69Z"/><path class="cls-20" d="m163.08,444.33c-6.71-10.79-13.48-21.66-22.21-30.98-8.73-9.32-19.67-17.1-32.25-20.15,20.01,23.84,38.85,48.61,54.46,51.13Z"/><path class="cls-20" d="m172.51,468.01c11.07-56.69,8.4-115.88-7.73-171.4,1.03,32.63,2.06,65.26,3.09,97.88-6.67-11.37-14.92-21.86-24.46-31.09,17.2,36.98,26.26,77.52,29.1,104.61Z"/><path class="cls-6" d="m209.86,248.17c-41.09,53.83-37.39,102.17-28.88,152"/><circle class="cls-17" cx="187.11" cy="418.28" r="29"/><circle class="cls-16" cx="187.11" cy="418.28" r="18.34"/><path class="cls-19" d="m322.65,112.05c-23.66-15.57-54.45-12.59-81.32-7.35-26.87,5.24-49.58,12.69-65.21,35.99-10.98-18.09-13.88-41.67-7.6-61.95,6.28-20.28,21.59-36.79,40.48-42.48-.11.01-.22.02-.48-.14,9.42-9.96,23.74-14.03,36.28-10.99,21.89-6.11,46.79,1.74,62.71,19.77,15.92,18.03,22.21,45.52,15.14,67.15Z"/><path class="cls-20" d="m212.79,40.19c-4.24,11.98-5.07,25.07-2.36,37.43-2.97-9.3-5.98-18.98-4.59-28.64.32-2.2.89-4.43,2.21-6.25s3.53-3.15,4.74-2.53Z"/><path class="cls-20" d="m244.88,28.79c7.54,6.3,13.08,14.83,15.71,24.18,1.43-5.66.22-11.89-3.23-16.63s-9.08-7.9-12.47-7.55Z"/><path class="cls-18" d="m257.33,174.31c-4.29-12.57-7.37-25.55-9.19-38.69-2.16,10.18-1.8,20.84,1.06,30.82,1.11,3.89,3.49,8.35,8.13,7.87Z"/><path class="cls-2" d="m347.34,355.8c-3.83,19.69-13.92,38.11-28.45,51.94-14.53,13.83-33.43,23-53.28,25.85"/><path class="cls-2" d="m309.54,341.48c-14.86,36.94-5.52,82.35,22.7,110.43"/><path class="cls-3" d="m306.71,348.29c1.69-6.72,3.46-13.58,7.37-19.3s10.46-10.13,17.36-9.57c8.06.66,14.33,8,16.24,15.86s.36,16.11-1.56,23.97"/><path class="cls-6" d="m310.28,246.3c18.19,19.9,27.2,47.92,24.03,74.74"/><ellipse class="cls-11" cx="264.17" cy="433.72" rx="5.25" ry="3.5"/><ellipse class="cls-11" cx="333.67" cy="453.22" rx="3.5" ry="5.25" transform="translate(-224.75 523.26) rotate(-60.79)"/><g id="Layer_35"><path class="cls-9" d="m131.15,501.29c2.07-23.85,13.51-32.14,23.49-51.31,22.93-44,46.58-64.73,82.09-140.72,19.78-.34,33.67-2.22,42.65,15-21.82,45.57-28.26,107.16-47.08,154.98-5.03,12.78-9.8,25.75-16.91,37.54-7.11,11.79-16.83,22.49-29.47,28.45-12.63,5.96-28.45,6.55-40.45-.68-12.01-7.23-16.11-22.64-14.32-43.26Z"/><path class="cls-5" d="m136.76,535.84c9.04,9.06,29.52,18.3,41.77,14.58s22.39-12.65,29.9-23.02,12.67-22.22,17.78-33.96"/><path class="cls-9" d="m292.21,299.66c.8-2.65,1.41-5.55,1.82-8.5-.29-1.88-.61-3.76-.94-5.64-1.37-7.84-3.44-15.43-6.77-22.67.05-.02.09-.04.14-.06-.07-.15-.12-.31-.18-.47-2.71-5.82-5.42-11.65-8.14-17.47.7-3.15,1.84-6.12,3.77-8.45,4,3.28,8.17,5.87,12.71,7.34,1.16.38,2.39.68,3.6.52,1.21-.16,2.41-.89,2.82-2.04-2.7-5.34-5.73-10.5-8.76-15.66-1.13-1.93-2.3-3.9-4.04-5.3-1.74-1.4-4.2-2.13-6.25-1.24-5-7.5-14.73-11.33-23.34-9.24-4.07-.17-7.45-4.29-11.62-3.78-2.41.3-4.34,2.11-5.82,4.02s-2.75,4.06-4.67,5.54c-1.33-1.77-3.86-2.78-6.22-2.4-3.02,2.51-6.06,5.05-8.43,8.17s-4.03,6.95-3.88,10.87c.09,2.34.82,4.6,1.54,6.82,4.55,14.09,9.11,28.19,13.64,41.89,2.76,9.12,3.81,18.75,3.1,28.26l42.62,14.41c5.42-7.66,10.46-15.47,13.3-24.93Z"/><path class="cls-1" d="m223.54,220.54c1.48-1.53,2.99-3.03,4.55-4.48.95-.89,2-1.81,3.29-2.01,1.95-.3,3.71,1.08,5.11,2.48"/><path class="cls-1" d="m224.33,236.8c-.68-2.7,1.14-5.33,2.86-7.52,4.55-5.81,9.11-11.62,13.66-17.43,1.28-1.63,2.63-3.32,4.52-4.16,1.98-.88,4.31-.68,6.34.06s3.84,1.99,5.62,3.22"/><path class="cls-1" d="m232.19,238.51c.53-3.69,3.22-6.66,5.83-9.31,5.22-5.31,10.68-10.39,16.35-15.22,1.27-1.09,2.58-2.17,4.12-2.84,3.53-1.52,7.58-.58,11.55.13,4.32,1.89,8.21,4.73,12.42,8.49-6.73,2.28-13.44,4.81-19.4,8.68s-11.16,9.2-13.79,15.8"/><path class="cls-1" d="m248.87,250.37c2.65,4.17,4.78,8.68,6.32,13.37"/><path class="cls-1" d="m232.32,242.4c.34,5.9,1.72,11.74,4.04,17.18"/><path class="cls-1" d="m223.51,241.53l2.89,9.96"/><path class="cls-1" d="m282.4,219.83c1.35-.88,3.21-.61,4.57.24s2.35,2.19,3.28,3.51c3.63,5.12,7.06,10.41,9.74,16.08.51,1.08,1,2.35.49,3.43-.4.84-1.33,1.33-2.25,1.43s-1.85-.14-2.73-.42c-4.95-1.59-9.27-4.64-13.5-7.65.22-1.91.01-3.87-.59-5.7"/><path class="cls-1" d="m281.66,236.47c-2.06,2.66-3.43,5.85-3.78,9.2-.07.02.72-.51.45-.34,2.2,4.81,4.39,9.63,6.59,14.44"/><path class="cls-1" d="m265.14,227.25c.78-2.24,1.56-4.48,2.34-6.72"/></g><path class="cls-4" d="m251.84,200.29c6.07-7.22,15.67-11.32,25.09-10.69"/><path class="cls-9" d="m220.93,557.58c49.88-5.32,99.94,4.96,149.98,8.46,10.59.74,21.5,1.14,31.56-2.24,14-4.7,24.92-16.51,30.73-30.09,5.8-13.58,6.91-28.79,5.57-43.5-.55,11.54-7.76,22.01-17.09,28.83-9.32,6.82-20.58,10.45-31.82,13.12-54.99,13.07-114.26,5.78-168.94,25.43Z"/><path class="cls-15" d="m366.16,486.04c12.29-.03,24.56,3.69,34.75,10.54,3.49,2.35,6.99,5.15,11.18,5.53-9.76-8.71-21.94-14.68-34.81-17.07-3.64-.67-7.54-1.04-10.91.49-.79.36-1.6.83-2.47.74s-1.76-.23,2.25-.24Z"/></svg>