<?xml version="1.0" encoding="UTF-8"?><svg id="Layer_26" xmlns="http://www.w3.org/2000/svg" xmlns:xlink="http://www.w3.org/1999/xlink" viewBox="0 0 530 710"><defs><style>.cls-1{stroke:#c9c9c9;stroke-width:6px;}.cls-1,.cls-2,.cls-3{fill:none;}.cls-1,.cls-2,.cls-3,.cls-4{stroke-linecap:round;}.cls-1,.cls-3{stroke-miterlimit:10;}.cls-5,.cls-6{fill:url(#linear-gradient);}.cls-7{clip-path:url(#clippath);}.cls-6,.cls-8,.cls-9,.cls-10,.cls-11,.cls-12,.cls-13,.cls-14,.cls-15,.cls-16,.cls-17,.cls-18,.cls-19,.cls-20,.cls-21,.cls-22{stroke-width:0px;}.cls-23,.cls-20{fill:#f5dccb;}.cls-2{stroke-width:11px;}.cls-2,.cls-3,.cls-4{stroke:#000;}.cls-2,.cls-4{stroke-linejoin:round;}.cls-24{clip-path:url(#clippath-1);}.cls-25{clip-path:url(#clippath-2);}.cls-3{stroke-width:9px;}.cls-26{fill:url(#linear-gradient-2);}.cls-8{fill:url(#linear-gradient-3);}.cls-4{stroke-width:2px;}.cls-10{fill:#facfb9;}.cls-11{fill:#4a8c77;}.cls-12{fill:#ddbca6;}.cls-13{fill:#dbb9a3;}.cls-14{fill:#d9b7a0;}.cls-15{fill:#d9d9d9;}.cls-16{fill:#a6a6a6;}.cls-17{fill:#a88167;}.cls-18{fill:#9e5536;}.cls-19{fill:#ba9788;}.cls-21{fill:#039686;}.cls-22{fill:#00685e;}</style><linearGradient id="linear-gradient" x1="257.66" y1="216.3" x2="267.28" y2="327.04" gradientUnits="userSpaceOnUse"><stop offset="0" stop-color="#d9b7a0"/><stop offset="1" stop-color="#f5dccb"/></linearGradient><clipPath id="clippath"><path class="cls-6" d="m305.63,178.7c-3.18,19.26-3.86,38.91-1.8,58.46,4.22,4.51,10.26,7.37,16.51,7.82-5.08,11.01-11.56,21.41-19.24,30.9-7.33,9.05-16.26,17.57-27.62,20.83-15.65,4.5-32.89-2.14-44.88-12.92-11.99-10.77-19.78-25.15-28.63-38.4,5.53-1.13,11.52-4.2,11.19-9.69-1.32-21.89-.63-30.46-2.97-46.38"/></clipPath><clipPath id="clippath-1"><path class="cls-20" d="m173.05,102.2c7.33,32.01,11.61,66.52,31.72,93.15,11.06,11.22,24.99,19.88,40.34,24.86,7.11,2.01,15.01,1.42,22-1.17,19.04-11.48,34.58-28.11,44.47-47.32,7.13-26.57,12.67-53.52,16.85-81.14-10.92-15.56-28.79-26.04-47.83-30.91-19.05-4.86-39.24-4.48-58.72-1.53-13.68,2.07-27.46,5.51-38.87,12.93-11.41,7.43-13.46,15.85-9.96,31.13Z"/></clipPath><linearGradient id="linear-gradient-2" x1="755.62" y1="222.42" x2="763.79" y2="316.49" xlink:href="#linear-gradient"/><linearGradient id="linear-gradient-3" x1="755.62" y1="222.42" x2="763.79" y2="316.49" xlink:href="#linear-gradient"/><clipPath id="clippath-2"><path class="cls-8" d="m796.37,190.48c-2.7,16.36-3.28,33.06-1.53,49.66,3.59,3.83,8.72,6.26,14.03,6.64-4.32,9.35-9.82,18.19-16.34,26.25-6.22,7.69-13.82,14.92-23.46,17.69-13.3,3.82-27.94-1.82-38.12-10.97-10.19-9.15-16.8-21.36-24.32-32.62,4.7-.96,9.79-3.57,9.51-8.23-1.12-18.59-.54-25.87-2.52-39.4"/></clipPath></defs><path class="cls-5" d="m305.63,178.7c-3.18,19.26-3.86,38.91-1.8,58.46,4.22,4.51,10.26,7.37,16.51,7.82-5.08,11.01-11.56,21.41-19.24,30.9-7.33,9.05-16.26,17.57-27.62,20.83-15.65,4.5-32.89-2.14-44.88-12.92-11.99-10.77-19.78-25.15-28.63-38.4,5.53-1.13,11.52-4.2,11.19-9.69-1.32-21.89-.63-30.46-2.97-46.38"/><g class="cls-7"><path class="cls-17" d="m85.52,520.46c-2.48-18.56,6.33-29.22,13.31-46.6,6.98-17.38,18.24-32.63,27.07-48.89,4.26-9.41,7.29-19.37,8.99-29.56.88-5.27,1.42-10.68,3.44-15.63,3.64-8.94,11.64-15.36,16.45-23.72,8-13.9,6.34-31.32,11.7-46.43.69-1.96,1.56-3.95,3.15-5.29,3.87-3.25,10.3-.82,12.78,3.58,2.49,4.4,2.08,9.82,1.24,14.8s-2.05,10.09-.93,15.02c.33,1.47.95,2.99,2.22,3.81,1.16.75,2.64.76,4.02.71,8.47-.3,16.92-1.81,25.38-1.33,8.46.49,17.32,3.35,22.53,10.04,2.74,3.52,4.14,8.92,1.18,12.26-1.36,1.54-3.51,2.48-4.2,4.41-1.54,4.28,5.2,7.19,5.92,11.68.93,5.84-8.59,9.95-6.81,15.59.76,2.39,3.46,4.01,3.54,6.51.17,4.8-8.42,5.06-9.76,9.68-.7,2.4.96,5.04.21,7.43-.79,2.51-3.73,3.5-6.28,4.14-6.44,1.61-12.89,3.23-19.33,4.84-2.43.61-5.01,1.3-6.72,3.14-1.42,1.53-2.02,3.62-2.54,5.64-8.48,33.47-4.25,69.13-12.32,102.71-4.57,19.02-15.22,38.99-34.01,44.4-16.6,4.78-35.09-4.05-45.04-18.16s-11.81-19.44-15.2-44.76Z"/><path class="cls-17" d="m-34.48,621.46c-2.48-18.56,6.33-29.22,13.31-46.6,6.98-17.38,18.24-32.63,27.07-48.89,4.26-9.41,7.29-19.37,8.99-29.56.88-5.27,1.42-10.68,3.44-15.63,3.64-8.94,11.64-15.36,16.45-23.72,8-13.9,6.34-31.32,11.7-46.43.69-1.96,1.56-3.95,3.15-5.29,3.87-3.25,10.3-.82,12.78,3.58,2.49,4.4,2.08,9.82,1.24,14.8s-2.05,10.09-.93,15.02c.33,1.47.95,2.99,2.22,3.81,1.16.75,2.64.76,4.02.71,8.47-.3,16.92-1.81,25.38-1.33,8.46.49,17.32,3.35,22.53,10.04,2.74,3.52,4.14,8.92,1.18,12.26-1.36,1.54-3.51,2.48-4.2,4.41-1.54,4.28,5.2,7.19,5.92,11.68.93,5.84-8.59,9.95-6.81,15.59.76,2.39,3.46,4.01,3.54,6.51.17,4.8-8.42,5.06-9.76,9.68-.7,2.4.96,5.04.21,7.43-.79,2.51-3.73,3.5-6.28,4.14-6.44,1.61-12.89,3.23-19.33,4.84-2.43.61-5.01,1.3-6.72,3.14-1.42,1.53-2.02,3.62-2.54,5.64-8.48,33.47-4.25,69.13-12.32,102.71-4.57,19.02-15.22,38.99-34.01,44.4-16.6,4.78-35.09-4.05-45.04-18.16s-11.81-19.44-15.2-44.76Z"/></g><path class="cls-14" d="m321.61,117.18c.7-1.73,1.43-3.49,2.7-4.87s3.24-2.31,5.1-1.87c2.69.63,3.93,3.66,4.27,6.33.91,7.03-1.49,14.17-5.28,20.23s-8.92,11.19-14.01,16.27"/><path class="cls-14" d="m178.41,126.71c-.95-1.61-1.94-3.25-3.41-4.43s-3.56-1.82-5.32-1.12c-2.56,1.01-3.33,4.18-3.27,6.87.17,7.09,3.62,13.8,8.29,19.24,4.67,5.44,10.52,9.78,16.32,14.07"/><path class="cls-23" d="m173.05,102.2c7.33,32.01,11.61,66.52,31.72,93.15,11.06,11.22,24.99,19.88,40.34,24.86,7.11,2.01,15.01,1.42,22-1.17,19.04-11.48,34.58-28.11,44.47-47.32,7.13-26.57,12.67-53.52,16.85-81.14-10.92-15.56-28.79-26.04-47.83-30.91-19.05-4.86-39.24-4.48-58.72-1.53-13.68,2.07-27.46,5.51-38.87,12.93-11.41,7.43-13.46,15.85-9.96,31.13Z"/><g class="cls-24"><ellipse class="cls-10" cx="297.83" cy="160.67" rx="18.24" ry="17.28"/><ellipse class="cls-10" cx="205.95" cy="169.56" rx="18.24" ry="17.28"/></g><path class="cls-11" d="m236.73,466.44c-22.9-24.2-41.48-52.26-54.66-82.56-6.94,17.77,1.2,37.41,9.24,54.74,12.88,27.79,26.07,56.04,46.83,78.87"/><path class="cls-11" d="m134.18,286.01c15.42,15.97,30.65,34.04,33.57,55.77,1.84-26.8-14.95-53.89-33.57-55.77Z"/><path class="cls-11" d="m204.72,537.81c22.86,55.26,68.72,101.13,124.86,124.87-45.75-36.63-84.8-81.15-114.79-130.87,18.02,23.04,41.99,41.64,69.09,53.59-25.77-21.92-48.94-46.74-68.9-73.79"/><path class="cls-11" d="m287.4,530.18c21.85,39.06,51.8,73.8,87.51,101.53-29.29-34.82-58.58-69.64-87.51-101.53Z"/><path class="cls-11" d="m325.26,435.72c-13.52-44-35.66-85.47-64.89-121.53,25.48,58.11,50.97,116.22,76.45,174.33"/><path class="cls-9" d="m259.88,103.22c8.21-2.19,16.57-4.22,25.08-4.27s17.31,2.03,23.89,7.29c-3.84,2.06-8.56.87-12.86.03-10.64-2.08-21.79-1.63-32.21,1.31-1.64.46-3.49.97-4.99.17s-1.69-3.78,1.08-4.52Z"/><path class="cls-9" d="m235.2,104.72c-8.4-1.36-16.94-2.55-25.41-1.76-8.47.79-16.98,3.74-22.95,9.63,4.04,1.67,8.61.01,12.79-1.25,10.35-3.13,21.48-3.79,32.17-1.9,1.68.3,3.57.62,4.98-.33s1.26-3.93-1.57-4.39Z"/><path class="cls-20" d="m453.17,409.1c1.7,31.55,3.41,63.09,5.11,94.64.5,9.31.99,18.81-1.46,27.81-2.89,10.61-9.67,19.75-17.23,27.74-21.83,23.09-51.47,38.67-84.01,44.43-2.51-26.47-9.97-52.47-21.88-76.25-2.26-4.52-4.73-9.09-5.35-14.11-1.59-12.85,9-23.75,19.22-31.7,10.22-7.96,21.88-16.6,23.84-29.4,2.12-13.91-8.28-27.25-7-41.26"/><path class="cls-20" d="m74.96,516.63c3.88,6.47,11.21,10.74,18.76,10.91,9.2.21,28.61-2.2,35.35-8.46,20.98-19.49,20.11-50.68,29.51-77.73-12.57,1.17-25.14,2.35-37.71,3.52"/><path class="cls-21" d="m201.95,245.37c18.79,16.76,37.59,33.52,56.85,49.55,18.54-17.3,38.67-32.99,59.2-45.78,24.84,7.8,44.28,28.11,54.35,51.55s11.54,49.7,8.38,74.91c-3.16,25.21-10.76,49.67-18.25,74.05,3.61,70.71,17.5,140.91,38.99,208.5-8.21,14.46-27.02,19.03-43.77,21.72-79.23,12.73-163.47,14.85-238.23-17.05,21.85-118.34,43.78-238.84,25.49-357.53.06-.53.12-1.06.18-1.59"/><path class="cls-22" d="m294.61,455.14c-28.58-37.15-53.37-77.06-73.87-118.96,2.32,29.02,6.54,58.44,19.28,84.76,10.64,22,26.8,40.95,42.78,59.64,20.31,23.75,40.61,47.5,60.92,71.25-17.21-24.27-18.68-57.16-49.1-96.69Z"/><path class="cls-21" d="m370.94,300.61c-14.25,55.51-12.72,134.63-11.43,193.48,40.82,9.14,74.25-8.52,114.62-10.27-6.58-48.14-16.45-95.81-29.5-142.44-6.07-21.69-13.21-43.89-26.99-60.49-13.59-16.38-32.52-25.74-51.6-30.03-19.08-4.28-34.83-3.54-54.57-5.92.14-.02,1.35,1.39,1.54,1.27,1.75,1.28-1.28.76.47,2.04"/><path class="cls-22" d="m352.09,383.86c-8.01-39.19,5.06-81.89,33.8-110.42-12.58,22.8-19.58,48.5-20.27,74.37,3.95-11.73,12.2-22.04,22.92-28.63-14.71,20.77-26.33,43.61-36.45,64.68Z"/><path class="cls-22" d="m163.35,568.1c47.12,59.92,120.61,98.32,196.71,102.78-69.63-27.86-135.3-65.6-196.71-102.78Z"/><path class="cls-22" d="m219.19,494.44c15.81,42.52,50.55,77.59,92.91,93.81-29.48-26.01-53.43-58.26-92.91-93.81Z"/><path class="cls-22" d="m358.33,413.23c2.09-16.18,12.59-30.43,25.56-40.75,12.97-10.32,28.37-17.25,43.49-24.3-25.17,21.55-49.7,43.79-69.05,65.05Z"/><path class="cls-22" d="m365.71,451.87c25.89-8.81,50.71-20.62,73.75-35.11-16.57,24.35-47.71,38.52-73.75,35.11Z"/><path class="cls-21" d="m149.05,299.54c18.15,51.09,28.95,105.31,31.83,160.45-40.06,10.97-81.38,16.32-121.76,17.06,3.15-45.43,9.62-90.62,19.33-135.01,4.52-20.65,10.07-41.84,22.63-58.19,12.39-16.13,30.61-26,49.33-31.14,18.73-5.13,38.16-5.93,57.68-9.32-.14,0-.29-.02-.49-.11-1.65,1.3-3.3,2.6-4.95,3.9"/><path class="cls-22" d="m154.49,432.08c-6.71-10.79-13.48-21.66-22.21-30.98-8.73-9.32-19.67-17.1-32.25-20.15,20.01,23.84,38.85,48.61,54.46,51.13Z"/><path class="cls-22" d="m152.92,455.76c11.07-56.69,8.4-115.88-7.73-171.4,1.03,32.63,2.06,65.26,3.09,97.88-6.67-11.37-14.92-21.86-24.46-31.09,17.2,36.98,26.26,77.52,29.1,104.61Z"/><path class="cls-3" d="m207.27,236.92c-41.09,53.83-37.39,102.17-28.88,152"/><circle class="cls-16" cx="184.52" cy="407.03" r="29"/><circle class="cls-15" cx="184.52" cy="407.03" r="18.34"/><path class="cls-21" d="m325.35,107.49c-21.95-17.9-52.88-18.08-80.15-15.61-27.26,2.47-50.62,7.56-68.54,29.14-9.08-19.12-9.55-42.87-1.24-62.4s25.23-34.39,44.61-38.12c-.11,0-.22,0-.46-.19,10.39-8.95,25.05-11.53,37.21-7.23,22.4-3.85,46.37,6.5,60.36,26.06,13.99,19.56,17.45,47.55,8.21,68.35Z"/><path class="cls-22" d="m223.4,24.79c-5.44,11.48-7.6,24.42-6.17,36.99-2.01-9.56-4.02-19.49-1.65-28.96.54-2.16,1.34-4.32,2.84-5.99s3.84-2.77,4.98-2.03Z"/><path class="cls-22" d="m256.49,16.72c6.86,7.04,11.5,16.09,13.16,25.65,2-5.49,1.43-11.81-1.52-16.87-2.95-5.06-8.23-8.79-11.64-8.78Z"/><path class="cls-19" d="m254.02,162.75c-2.98-12.95-4.72-26.17-5.19-39.43-3.19,9.9-3.91,20.55-2.09,30.77.71,3.98,2.62,8.66,7.28,8.66Z"/><path class="cls-1" d="m344.75,344.55c-3.83,19.69-13.92,38.11-28.45,51.94s-33.43,23-53.28,25.85"/><path class="cls-1" d="m306.95,330.23c-14.86,36.94-5.52,82.35,22.7,110.43"/><path class="cls-2" d="m304.13,337.04c1.69-6.72,3.46-13.58,7.37-19.3s10.46-10.13,17.36-9.57c8.06.66,14.33,8,16.24,15.86s.36,16.11-1.56,23.97"/><path class="cls-3" d="m307.7,235.04c18.19,19.9,27.2,47.92,24.03,74.74"/><ellipse class="cls-9" cx="261.58" cy="422.46" rx="5.25" ry="3.5"/><ellipse class="cls-9" cx="331.08" cy="441.96" rx="3.5" ry="5.25" transform="translate(-216.25 515.24) rotate(-60.79)"/><path class="cls-26" d="m796.37,190.48c-2.7,16.36-3.28,33.06-1.53,49.66,3.59,3.83,8.72,6.26,14.03,6.64-4.32,9.35-9.82,18.19-16.34,26.25-6.22,7.69-13.82,14.92-23.46,17.69-13.3,3.82-27.94-1.82-38.12-10.97-10.19-9.15-16.8-21.36-24.32-32.62,4.7-.96,9.79-3.57,9.51-8.23-1.12-18.59-.54-25.87-2.52-39.4"/><g class="cls-25"><path class="cls-17" d="m507.46,566.59c-2.11-15.77,5.38-24.82,11.3-39.58,5.93-14.76,15.49-27.72,23-41.53,3.62-7.99,6.19-16.46,7.64-25.11.75-4.48,1.21-9.07,2.92-13.28,3.1-7.59,9.88-13.04,13.97-20.15,6.79-11.81,5.39-26.6,9.94-39.44.59-1.66,1.33-3.36,2.68-4.49,3.29-2.76,8.75-.69,10.86,3.04,2.11,3.74,1.77,8.34,1.05,12.57-.72,4.23-1.74,8.57-.79,12.76.28,1.25.81,2.54,1.89,3.24.99.63,2.24.64,3.41.6,7.2-.25,14.37-1.54,21.56-1.13,7.19.41,14.71,2.84,19.14,8.53,2.33,2.99,3.51,7.57,1,10.41-1.16,1.31-2.98,2.1-3.57,3.75-1.31,3.64,4.42,6.11,5.03,9.92.79,4.96-7.3,8.45-5.78,13.24.64,2.03,2.94,3.4,3.01,5.53.14,4.08-7.15,4.3-8.29,8.22-.59,2.04.81,4.28.18,6.31-.67,2.13-3.17,2.97-5.33,3.52-5.47,1.37-10.95,2.74-16.42,4.11-2.07.52-4.26,1.11-5.71,2.67-1.21,1.3-1.72,3.08-2.16,4.79-7.21,28.44-3.61,58.72-10.46,87.24-3.88,16.15-12.93,33.12-28.89,37.71-14.1,4.06-29.8-3.44-38.26-15.43-8.46-11.99-10.04-16.51-12.91-38.03Z"/></g><path class="cls-18" d="m273.42,182.2l6.38-7.28-51.79,4.62,7.57,6.04c11.49,9.16,28.15,7.68,37.84-3.38Z"/><path class="cls-20" d="m127.77,425.16c-6.38-24-10.22-41.31-13.1-63.4-2.11-7.27-4.03-14.6-5.85-21.94-.58-2.34-1.13-4.68-1.65-7.03-1.21-2.12-2.64-4.34-4.37-6.78-14.5,2.32-23.22.15-34.98,7.09-2.46,1.45-4.19,5.29-5.43,9.93-.1,2.73-.3,5.47-.5,8.14-.23,5.36-.36,10.72-.84,16.08-.09,1.05-.22,2.1-.36,3.15-.29,4.66-.59,9.32-.92,13.98-2.44,34.38-6.89,68.9-4.47,103.41.53,7.51,1.32,14.99,2.38,22.43,1.19,8.37,5.03,16.21,11.05,22.15.04.04.08.08.13.12,7.55,7.4,31.08,26.95,58.49,1.54,13.17-12.22,18.54-29,18.83-45.52.29-16.52-14.07-47.01-18.41-63.33Z"/><path class="cls-20" d="m104.72,343.16c16.64-25.4,27.16-54.57,30.59-84.84.3-2.68.24-5.99-2.25-7.47-2.52-1.49-5.69.08-7.58,2.06-5.96,6.28-6.12,15.93-10.45,23.35-2.98,5.12-7.82,8.96-11.54,13.59-4.75,5.91-7.63,13-10.44,19.99"/><path class="cls-20" d="m115.59,293.23c-.17-17.36-.45-35.26-7.68-51.6-3.1-7.01-7.39-13.52-11.67-20-4.26-6.46-8.69-13.09-15.16-17.65-4.3,3.87-3.32,10.85-.53,16.13,2.79,5.28,7.07,9.94,8.93,15.53,2.49,7.5.24,15.34,4.87,22.32-5.55-6.14-10.41-12.84-14.45-19.92-1.7-2.99-3.28-6.06-5.46-8.78-2.63-3.27-6.05-5.88-9.43-8.46-4.06-3.1-8.13-6.2-12.19-9.31-2.03-1.55-4.88-3.16-6.89-1.79-1.78,1.22-1.38,3.87-.54,5.89,2.54,6.09,7.38,11.11,11.38,16.52,8.42,11.4,13.33,24.92,22.94,35.47"/><path class="cls-20" d="m93.02,279.01c-6.52-4.07-10.82-10.44-15.55-16.22-11.35-13.88-26.02-25.23-40.53-36.42-1.51-1.17-3.73-2.38-5.12-1.33-.6.46-.81,1.23-.91,1.96-.59,4.36,1.72,8.9,4.85,12.56s7.08,6.67,10.61,10.02c8.07,7.66,13.96,17.21,16.81,27.25"/><path class="cls-20" d="m112.21,285.6c-3.69-7.26-12.31-10.93-20.18-13.95l-13.23-5.09c-1.22-.47-2.58-.95-3.78-.55-1.16.38-1.84,1.44-2.57,2.36-2.8,3.53-7.56,5.55-4.22,8.04-9.67-6.73-28.82-18.32-39.9-22.43-3.6,1.89-1.09,6.98,9.58,16.35,3.18,2.79,7.45,4.47,9.97,7.79,1.4,1.85,2.06,3.94,2.32,6.12,1.54,4.28,1.9,8.98,2,13.66,1.76,10.3,4.59,20.75,7.47,30.62,1.06,3.62,2.23,7.2,3.52,10.74,2.51,1.34,5.18,2.45,7.84,3.39,8.92,3.15,19.49,4.81,26.96-.14,6.61-4.38,8.8-12.58,10.55-20.14,1.29-5.56,2.58-11.11,3.87-16.67,1.53-6.6,3-13.81-.2-20.11Z"/><path class="cls-13" d="m67.58,274.99c5.47,7.9,15.28,11.53,22.12,18.27,6.89,6.78,10.44,16.8,9.37,26.41-2.06-5.2-4.15-10.43-7.18-15.13-7.44-11.52-20.33-19.45-24.31-29.55Z"/><path class="cls-12" d="m371.07,512.85c19.89-11.2,45.13-12.34,65.95-2.98-9.78-6.69-21.28-10.87-33.08-12.02-14.32-1.39-30.88,3.09-32.87,14.99Z"/><path class="cls-4" d="m200.9,131.31c3.74-3.66,9.01-5.37,14.13-5.12s10.07,2.33,14.29,5.41c-10.01-3.03-21.06-2.04-30.41,2.72.25-.25-.06-.99,1.99-3.01Z"/><path class="cls-4" d="m271.4,125.81c3.74-3.66,9.01-5.37,14.13-5.12s10.07,2.33,14.29,5.41c-10.01-3.03-21.06-2.04-30.41,2.72.25-.25-.06-.99,1.99-3.01Z"/></svg>