<?xml version="1.0" encoding="UTF-8"?><svg xmlns="http://www.w3.org/2000/svg" xmlns:xlink="http://www.w3.org/1999/xlink" viewBox="0 0 476 710"><defs><style>.cls-1{stroke:#c9c9c9;stroke-width:6px;}.cls-1,.cls-2,.cls-3,.cls-4,.cls-5,.cls-6,.cls-7,.cls-8{fill:none;}.cls-1,.cls-2,.cls-3,.cls-4,.cls-5,.cls-6,.cls-8{stroke-linecap:round;}.cls-1,.cls-6,.cls-7{stroke-miterlimit:10;}.cls-9{fill:url(#linear-gradient);}.cls-10,.cls-11{fill:#f5dccb;}.cls-12,.cls-13{fill:#ffb82b;}.cls-2{stroke-width:11px;}.cls-2,.cls-3,.cls-4,.cls-5,.cls-8{stroke-linejoin:round;}.cls-2,.cls-6{stroke:#000;}.cls-14{clip-path:url(#clippath-1);}.cls-15{clip-path:url(#clippath-2);}.cls-3{stroke:#e7cab5;}.cls-3,.cls-4,.cls-5{stroke-width:2px;}.cls-4{stroke:#dcbba5;}.cls-5{stroke:#e0c1ab;}.cls-6{stroke-width:9px;}.cls-7{stroke:#fff;}.cls-16,.cls-17,.cls-18,.cls-19,.cls-20,.cls-21,.cls-22,.cls-23,.cls-24,.cls-25,.cls-26,.cls-13,.cls-11,.cls-27,.cls-28{stroke-width:0px;}.cls-17{fill:#facfb9;}.cls-18{fill:#4a8c77;}.cls-19{fill:#454241;}.cls-20{fill:#d9b7a0;}.cls-21{fill:#e0c1ab;}.cls-22{fill:#dcbba5;}.cls-23{fill:#d9d9d9;}.cls-24{fill:#a6a6a6;}.cls-25{fill:#9e5536;}.cls-26{fill:#ba9788;}.cls-27{fill:#039686;}.cls-28{fill:#00685e;}.cls-8{stroke:#ffb82b;stroke-width:3px;}</style><linearGradient id="linear-gradient" x1="247.66" y1="222.3" x2="257.28" y2="333.04" gradientUnits="userSpaceOnUse"><stop offset="0" stop-color="#d9b7a0"/><stop offset="1" stop-color="#f5dccb"/></linearGradient><clipPath id="clippath-1"><path class="cls-11" d="m170.75,97.67c2.8,32.72,2.23,67.49,18.43,96.66,9.38,12.66,21.98,23.17,36.49,30.23,6.76,2.98,14.67,3.5,21.95,1.91,20.45-8.71,38.16-23.01,50.63-40.66,10.77-25.32,20.01-51.23,27.99-78-8.64-16.93-24.88-29.8-43.06-37.27-18.18-7.47-38.23-9.9-57.93-9.7-13.83.14-27.95,1.63-40.29,7.39-12.34,5.77-15.54,13.82-14.2,29.43Z"/></clipPath><clipPath id="clippath-2"><path class="cls-13" d="m94.84,127.25c.6-9.68-1.15-19.5-5.04-28.29-2.03-4.58-4.63-8.89-6.37-13.6-1.75-4.71-2.59-10.05-.97-14.81,1.93-5.69,7.05-9.58,12.39-11.8,6.55-2.72,14.1-3.41,20.6-.54,6.04,2.66,10.77,8.38,12.45,15.02,4.38,17.39-11.48,34.21-9.91,52.12.1,1.09.22,2.32-.44,3.16-.55.7-1.47.92-2.32,1.09-6.64,1.35-13.28,2.69-20.38-2.34Z"/></clipPath></defs><g id="Layer_26"><path class="cls-9" d="m295.63,184.7c-3.18,19.26-3.86,38.91-1.8,58.46,4.22,4.51,10.26,7.37,16.51,7.82-5.08,11.01-11.56,21.41-19.24,30.9-7.33,9.05-16.26,17.57-27.62,20.83-15.65,4.5-32.89-2.14-44.88-12.92-11.99-10.77-19.78-25.15-28.63-38.4,5.53-1.13,11.52-4.2,11.19-9.69-1.32-21.89-.63-30.46-2.97-46.38"/><path class="cls-20" d="m315.77,133.21c.93-1.61,1.9-3.26,3.35-4.45s3.53-1.83,5.31-1.14c2.57,1,3.38,4.17,3.35,6.86-.08,7.09-3.45,13.83-8.05,19.29s-10.39,9.84-16.14,14.16"/><path class="cls-20" d="m172.64,122.69c-.72-1.72-1.47-3.49-2.76-4.86s-3.27-2.29-5.12-1.85c-2.68.64-3.88,3.68-4.19,6.35-.82,7.04,1.66,14.17,5.53,20.21,3.87,6.04,9.06,11.15,14.2,16.21"/><path class="cls-10" d="m170.75,97.67c2.8,32.72,2.23,67.49,18.43,96.66,9.38,12.66,21.98,23.17,36.49,30.23,6.76,2.98,14.67,3.5,21.95,1.91,20.45-8.71,38.16-23.01,50.63-40.66,10.77-25.32,20.01-51.23,27.99-78-8.64-16.93-24.88-29.8-43.06-37.27-18.18-7.47-38.23-9.9-57.93-9.7-13.83.14-27.95,1.63-40.29,7.39-12.34,5.77-15.54,13.82-14.2,29.43Z"/><g class="cls-14"><ellipse class="cls-17" cx="286.17" cy="172.96" rx="17.28" ry="18.24" transform="translate(75.01 432.23) rotate(-81.99)"/><ellipse class="cls-17" cx="193.94" cy="168.95" rx="17.28" ry="18.24" transform="translate(-.39 337.46) rotate(-81.99)"/></g><ellipse class="cls-16" cx="208.09" cy="128.82" rx="11.19" ry="8" transform="translate(51.52 316.93) rotate(-81.99)"/><ellipse class="cls-16" cx="269.89" cy="134.6" rx="11.19" ry="8" transform="translate(98.99 383.1) rotate(-81.99)"/><path class="cls-18" d="m226.73,472.44c-22.9-24.2-41.48-52.26-54.66-82.56-6.94,17.77,1.2,37.41,9.24,54.74,12.88,27.79,26.07,56.04,46.83,78.87"/><path class="cls-18" d="m124.18,292.01c15.42,15.97,30.65,34.04,33.57,55.77,1.84-26.8-14.95-53.89-33.57-55.77Z"/><path class="cls-18" d="m194.72,543.81c22.86,55.26,68.72,101.13,124.86,124.87-45.75-36.63-84.8-81.15-114.79-130.87,18.02,23.04,41.99,41.64,69.09,53.59-25.77-21.92-48.94-46.74-68.9-73.79"/><path class="cls-18" d="m277.4,536.18c21.85,39.06,51.8,73.8,87.51,101.53-29.29-34.82-58.58-69.64-87.51-101.53Z"/><path class="cls-18" d="m315.26,441.72c-13.52-44-35.66-85.47-64.89-121.53,25.48,58.11,50.97,116.22,76.45,174.33"/><path class="cls-16" d="m256.51,111.21c8.41-1.18,16.96-2.18,25.42-1.21s16.93,4.11,22.84,10.12c-4.06,1.58-8.6-.17-12.77-1.53-10.31-3.35-21.43-4.25-32.13-2.59-1.69.26-3.58.54-4.97-.44s-1.22-3.96,1.62-4.35Z"/><path class="cls-16" d="m230.1,108.83c-8.3-1.9-16.74-3.64-25.24-3.39-8.51.24-17.19,2.64-23.52,8.13,3.93,1.93,8.59.57,12.85-.42,10.53-2.45,21.68-2.39,32.22.18,1.66.41,3.53.85,4.99,0s1.51-3.84-1.29-4.48Z"/><path class="cls-27" d="m191.95,251.37c18.79,16.76,37.59,33.52,56.85,49.55,18.54-17.3,38.67-32.99,59.2-45.78,24.84,7.8,44.28,28.11,54.35,51.55,10.07,23.44,11.54,49.7,8.38,74.91-3.16,25.21-10.76,49.67-18.25,74.05,3.61,70.71,17.5,140.91,38.99,208.5-8.21,14.46-27.02,19.03-43.77,21.72-79.23,12.73-163.47,14.85-238.23-17.05,21.85-118.34,43.78-238.84,25.49-357.53.06-.53.12-1.06.18-1.59"/><path class="cls-28" d="m284.61,461.14c-28.58-37.15-53.37-77.06-73.87-118.96,2.32,29.02,6.54,58.44,19.28,84.76,10.64,22,26.8,40.95,42.78,59.64,20.31,23.75,40.61,47.5,60.92,71.25-17.21-24.27-18.68-57.16-49.1-96.69Z"/><path class="cls-28" d="m209.19,500.44c15.81,42.52,50.55,77.59,92.91,93.81-29.48-26.01-53.43-58.26-92.91-93.81Z"/><g id="Layer_33"><path class="cls-11" d="m413.58,504.24c-.5-5.02-7.31-8.42-13.34-10.14-14.32-4.1-27.2-5.23-42.09-5.31-48.69-.27-104.35,12.08-153.02,13.51-29.26.86-53.84,2.96-79.15,17.68-3.74,17.32-6.04,34.95-6.92,52.64,7.39-.62,14.81-.73,22.25-.21,6.58.46,13.24,1.24,19.73,2.5,4.56.89,8.88,1.86,13.57,1.78,3.62-.06,7.79-1.03,12.05-2.28,3.18-2.21,6.37-4.41,9.78-6.23,15.31-8.16,33.52-8.03,50.86-7.7,40.01.76,80.03,1.53,120.04,2.29,11.42.22,23.71.18,33.01-6.44,7.67-5.46,11.98-14.66,13.52-23.95,1.54-9.28.62-18.78-.31-28.14Z"/><path class="cls-11" d="m128.02,519.12c-2.99,1.54-5.84,3.37-8.48,5.45-.67.53-1.34,1.09-1.74,1.85-1.75,3.38,3.14,7.5,1.47,10.93-.6,1.22-1.89,1.94-2.71,3.03-1.58,2.08-1.14,5.04-.34,7.53s1.87,5.08,1.32,7.63c-.8,3.72-4.85,6.35-4.87,10.16-.02,3.08,2.62,5.43,5.03,7.35.74.59,1.52,1.19,2.44,1.41,1.07.25,2.18-.07,3.23-.38,5.05-1.5,10.11-3,15.16-4.5"/><path class="cls-11" d="m344.02,467.46c.32,12.14.63,24.28.95,36.42,23.39,6.55,44.83,24.15,69.07,25.71,4.42-11.63,9.12-40.28,7.95-52.66"/><path class="cls-11" d="m201.92,561.33c49.88-5.32,99.94,4.96,149.98,8.46,10.59.74,21.5,1.14,31.56-2.24,14-4.7,24.92-16.51,30.73-30.09,5.8-13.58,6.91-28.79,5.57-43.5-.55,11.54-7.76,22.01-17.09,28.83-9.32,6.82-20.58,10.45-31.82,13.12-54.99,13.07-114.26,5.78-168.94,25.43Z"/><path class="cls-21" d="m347.15,489.78c12.29-.03,24.56,3.69,34.75,10.54,3.49,2.35,6.99,5.15,11.18,5.53-9.76-8.71-21.94-14.68-34.81-17.07-3.64-.67-7.54-1.04-10.91.49-.79.36-1.6.83-2.47.74s-1.76-.23,2.25-.24Z"/></g><path class="cls-27" d="m352.86,305.54c-21.21,48.9-35.27,101.29-41.48,155.05,39.32,13.1,80.24,20.79,120.51,23.91-.39-44.62-4.12-89.2-11.12-133.2-3.26-20.47-7.52-41.52-19.07-58.26-11.39-16.51-28.98-27.25-47.36-33.38-18.38-6.13-37.73-8.07-57.01-12.54.14,0,.29,0,.49-.08l4.71,4.1"/><path class="cls-28" d="m328.09,395.86c-8.01-39.19,5.06-81.89,33.8-110.42-12.58,22.8-19.58,48.5-20.27,74.37,3.95-11.73,12.2-22.04,22.92-28.63-14.71,20.77-26.33,43.61-36.45,64.68Z"/><path class="cls-28" d="m153.35,574.1c47.12,59.92,120.61,98.32,196.71,102.78-69.63-27.86-135.3-65.6-196.71-102.78Z"/><path class="cls-28" d="m317.33,435.23c2.09-16.18,12.59-30.43,25.56-40.75,12.97-10.32,28.37-17.25,43.49-24.3-25.17,21.55-49.7,43.79-69.05,65.05Z"/><path class="cls-28" d="m339.71,453.87c25.89-8.81,50.71-20.62,73.75-35.11-16.57,24.35-47.71,38.52-73.75,35.11Z"/><path class="cls-18" d="m327.74,380.64c-4.03,19.03-8.06,38.06-12.1,57.08,6.91-21.02,13.83-42.03,12.1-57.08Z"/><path class="cls-11" d="m85.41,456.99c-6.18,26.43.77,53.96,7.69,80.21,1.73,6.57,3.58,13.37,7.91,18.6,6.8,8.21,18.09,10.81,28.54,12.92,2.29.46,4.77.9,6.88-.09,1.8-.85,2.99-2.6,4.05-4.3,20.95-33.46,26.85-75.96,15.81-113.86"/><path class="cls-27" d="m142.35,307.71c21.21,49.9,35.27,103.36,41.48,158.22-39.32,13.37-80.24,21.21-120.51,24.4.39-45.53,4.12-91.03,11.12-135.93,3.26-20.88,7.52-42.37,19.07-59.45,11.39-16.85,28.98-27.81,47.36-34.07,18.38-6.26,37.73-8.23,57.01-12.8-.14,0-.29,0-.49-.08-1.57,1.4-3.14,2.79-4.71,4.19"/><path class="cls-28" d="m150.49,439.08c-6.71-10.79-13.48-21.66-22.21-30.98-8.73-9.32-19.67-17.1-32.25-20.15,20.01,23.84,38.85,48.61,54.46,51.13Z"/><path class="cls-28" d="m159.92,462.76c11.07-56.69,8.4-115.88-7.73-171.4,1.03,32.63,2.06,65.26,3.09,97.88-6.67-11.37-14.92-21.86-24.46-31.09,17.2,36.98,26.26,77.52,29.1,104.61Z"/><path class="cls-6" d="m197.27,242.92c-41.09,53.83-37.39,102.17-28.88,152"/><circle class="cls-24" cx="174.52" cy="413.03" r="29"/><circle class="cls-23" cx="174.52" cy="413.03" r="18.34"/><path class="cls-27" d="m320.83,124.13c-19.24-20.79-49.85-25.27-77.19-26.63-27.34-1.36-51.18.43-71.94,19.3-6.33-20.19-3.48-43.78,7.47-61.96,10.96-18.18,29.77-30.54,49.48-31.53-.11-.02-.22-.03-.43-.25,11.53-7.41,26.41-7.93,37.85-1.97,22.72-.69,45.01,12.9,56.14,34.22,11.13,21.32,10.65,49.52-1.4,68.82Z"/><path class="cls-28" d="m231.4,28.03c-6.99,10.61-10.93,23.12-11.27,35.77-.66-9.74-1.26-19.86,2.41-28.91.84-2.06,1.93-4.09,3.65-5.54s4.18-2.21,5.21-1.32Z"/><path class="cls-28" d="m265.29,24.66c5.81,7.92,9.15,17.54,9.45,27.24,2.74-5.15,3.06-11.49.85-16.92s-6.92-9.85-10.3-10.32Z"/><path class="cls-26" d="m242.49,168.91c-1.15-13.24-1.03-26.57.36-39.76-4.54,9.36-6.74,19.8-6.36,30.18.15,4.04,1.39,8.94,6,9.59Z"/><path class="cls-1" d="m334.75,350.55c-3.83,19.69-13.92,38.11-28.45,51.94-14.53,13.83-33.43,23-53.28,25.85"/><path class="cls-1" d="m296.95,336.23c-14.86,36.94-5.52,82.35,22.7,110.43"/><path class="cls-2" d="m294.13,343.04c1.69-6.72,3.46-13.58,7.37-19.3s10.46-10.13,17.36-9.57c8.06.66,14.33,8,16.24,15.86s.36,16.11-1.56,23.97"/><path class="cls-6" d="m297.7,241.04c18.19,19.9,27.2,47.92,24.03,74.74"/><ellipse class="cls-16" cx="251.58" cy="428.46" rx="5.25" ry="3.5"/><ellipse class="cls-16" cx="321.08" cy="447.96" rx="3.5" ry="5.25" transform="translate(-226.61 509.58) rotate(-60.79)"/><path class="cls-25" d="m258.03,188.99l7.38-6.27-51.91-3.02,6.6,7.08c10.02,10.75,26.72,11.72,37.93,2.21Z"/><path class="cls-11" d="m177.96,421.54c.08-5.22.08-10.45.06-15.68-.19-2.69-.38-5.37-.59-8.06-1.91-5.21-2.08-11.24-2.72-16.57-1.11-9.24-2.31-18.45-2.88-27.74-.44-7.07-.67-14.15-.72-21.22-.74-5.55-1.42-11.11-1.97-16.67-7.02-4.92-16.35-5.19-24.7-4.43-6.91.63-13.77,1.73-20.51,3.29-1.25.29-2.51.61-3.76.98.31,3.13.15,6.29-.05,9.58-.4,6.36-.8,12.71-1.2,19.07-.78,12.42-2.42,24.71-4.24,37.02-1.82,12.33-3.49,24.75-5.74,37.01-1.01,5.48-2.23,10.9-4.05,16.17-2.31,15.2-4.81,30.29-6.97,45.1-4.38,30.08-2.75,56.97,12.43,82.02,1.95,3.22,4.27,6.5,7.79,8.04,2.74,1.19,5.87,1.18,8.85.85,19.86-2.18,36.31-17.18,44.25-34.8,7.94-17.61,8.62-37.49,7.21-56.68-1.41-19.19-.8-38.04-.49-57.27Z"/><path class="cls-4" d="m178.78,504.16c.76,13.31-1.53,26.99-7.95,38.68-6.43,11.69-17.22,21.21-30.08,24.75s-27.65.55-37.22-8.73"/><path class="cls-22" d="m98.53,486.76c-2.2,17.14-4.34,34.97,1.16,51.35-6.78-9.9-6.88-22.76-6.57-34.76.14-5.29.43-10.96,5.41-16.59Z"/></g><g id="Layer_36"><path class="cls-19" d="m94.84,127.23c.37,2.21.38,4.63.48,6.88.1,2.25.71,4.7,2.29,5.84,2.04,1.47,4.94.21,6.81,1.99.66.63,1.15,1.62,1.95,1.92,1.56.59,2.75-1.66,4.16-2.67,2.18-1.56,5.33-.15,7.22-2.22.96-1.05,1.28-2.75,1.21-4.33s-.48-3.1-.78-4.63c-.44-2.28-.63-4.64-.55-6.98"/><path class="cls-12" d="m94.84,127.25c.6-9.68-1.15-19.5-5.04-28.29-2.03-4.58-4.63-8.89-6.37-13.6-1.75-4.71-2.59-10.05-.97-14.81,1.93-5.69,7.05-9.58,12.39-11.8,6.55-2.72,14.1-3.41,20.6-.54,6.04,2.66,10.77,8.38,12.45,15.02,4.38,17.39-11.48,34.21-9.91,52.12.1,1.09.22,2.32-.44,3.16-.55.7-1.47.92-2.32,1.09-6.64,1.35-13.28,2.69-20.38-2.34Z"/><g class="cls-15"><path class="cls-7" d="m98.62,132c3.39-12.59,5.01-25.85,4.78-39.06-.07-4.12-.46-8.64-2.92-11.55-.37-.44-.92-.86-1.39-.58-.23.13-.38.4-.5.67-1.62,3.58-.23,8.04,1.64,11.45.54.98,1.19,1.99,2.14,2.28,1.35.41,2.67-.82,3.51-2.15,2.14-3.39,2.8-8.02,1.73-12.05-.32-1.19-1.37-2.54-2.2-1.78-.4.37-.46,1.05-.49,1.66-.1,2.44-.19,4.97.58,7.23.77,2.26,2.67,4.17,4.71,3.86,1.68-.26,2.99-1.92,3.7-3.75.94-2.41,1.07-5.26.36-7.78-.12-.42-.27-.85-.57-1.12-.6-.56-1.55-.16-2,.58s-.52,1.7-.57,2.61c-.93,16.21.13,32.58,3.16,48.42"/></g><path class="cls-8" d="m132.78,65.63c5.06-5.33,12-8.1,18.72-10.72"/><path class="cls-8" d="m121.06,53.05c3.68-7.48,8.42-14.38,14-20.41"/><path class="cls-8" d="m102.75,48.18c.4-7.48,1.39-14.92,2.98-22.22"/><path class="cls-8" d="m77.21,67.15c-6.9-.72-13.81-1.44-20.71-2.15"/><path class="cls-8" d="m75.61,88.01c-4.29,1.17-8.51,2.63-12.63,4.35"/><path class="cls-8" d="m133.93,81.1c4.09-.47,8.24-.37,12.3.31"/><path class="cls-8" d="m87.27,53.48c-4.23-6.63-9.43-12.58-15.36-17.57"/></g><g id="Layer_37"><path class="cls-11" d="m124.68,240.7c.09-22.98-3.03-45.97-9.28-68.41-.86-3.09-1.34-7.06,2.08-8.7,2.29-1.1,5.39-.47,7.41.91,2.03,1.38,3.22,3.35,4.36,5.26,4.15,6.98,8.38,14.17,9,21.87.32,3.93,1.83,10.49,2.01,14.43.56,12.39,7,21.4,6.71,33.79"/><path class="cls-11" d="m121.12,329.52c6.06,2.86,9.62,10.43,16.06,12.15,4.24,1.13,8.69-.62,12.46-2.97,7.8-4.87,14.03-12.51,17.46-21.39.92-2.4,1.69-4.95,3.32-6.87.91-1.07,2.06-1.9,2.93-3.01,2.11-2.69,2.27-6.48,2.33-9.98.12-6.97.24-13.93.36-20.9.04-2.05.08-4.14.65-6.1.27-.94.67-1.85.76-2.83.23-2.48-1.6-4.69-3.64-5.92-3.9-2.35-8.65-2.27-13.13-2-12.7.78-25.83,2.83-36.48,10.22-3.31,2.3-6.44,5.25-7.87,9.17-1.13,3.11-1.1,6.54-1.05,9.88.06,4.14.12,8.28.18,12.42"/><path class="cls-11" d="m183.29,265.74c.67,2.8,1.34,5.61,2.01,8.41.2.82.39,1.7.07,2.48-.51,1.25-2.16,1.66-3.42,1.23s-2.23-1.45-3.14-2.44c-3.82-4.17-7.64-8.34,4.48-9.67Z"/><path class="cls-11" d="m170.2,335.85c-1.68-3.72-.47-8.16,1.62-11.66s4.97-6.47,7.01-10c6.37-11.05,1.8-21.02,3.71-39.41.43-4.13-6.01-6.13-8.87-9.12.11,14.78-3.81,29.57-11.22,42.32-2.59,4.46-5.72,9.14-5.22,14.29.22,2.22,1.11,4.31,2.02,6.34,2.2,4.9,4.58,9.71,10.95,7.24Z"/><path class="cls-22" d="m136.96,293.56c8.78,7.38,13.23,19.31,14.58,31.1,2.04-9.27-.08-19.48-5.62-26.97-.88-1.2-1.85-2.33-2.99-3.26-2.79-2.28-6.55-3.18-5.97-.87Z"/><path class="cls-11" d="m184.34,263.81c-2.74-7.96-5.49-15.92-8.23-23.88-1.67-2.33-4-3.99-6.56-5.04-2.26.12-4.41.37-6.73.04-2.3-.33-4.39-.43-6.69-.45-4.29-.03-8.51-1.29-12.8-1.23-3.57.05-7.13.41-10.66.95-3.38,1.27-8.16.65-9.62,4.1-.85,2.02-.02,4.63-1.26,6.41-1.06,1.52-3.1,1.68-4.83,2.16-3.68,1.03-6.74,4.27-7.73,8.17-.42,1.66-.49,3.42-1.13,5-1.77,4.34-7.13,5.82-9.41,9.88-1.83,3.25-1.25,7.47.24,10.91,1.49,3.44,3.8,6.41,5.5,9.73,3.35,6.52,4.26,14.08,6.13,21.23,1.86,7.16,5.15,14.53,11.33,18l-1.22-43.23c6.26,2.51,13.78,1.38,19.04-3.02,3.84,1.63,6.39,5.54,9.97,7.74,3.58,2.2,9.61,1.25,9.97-3.12.1-1.23-.3-2.44-.7-3.6-1.79-5.22-3.67-10.6-7.26-14.64-.99-1.12-2.16-2.1-3.42-2.9,2.81,1.34,5.31,3.43,7.07,6.12,2.05,3.13,3.12,6.84,4.63,10.3,1.51,3.46,3.67,6.87,6.97,8.38,3.3,1.51,7.88.26,9.08-3.33.82-2.44-.07-5.11-.95-7.53-1.99-5.46-3.97-10.92-5.96-16.37-.11-.3-.22-.61-.33-.91.2.44.41.88.62,1.32,1.67,3.4,4.05,6.74,7.51,7.88,3.45,1.14,7.97-1.03,8.27-4.85.11-1.45-.36-2.87-.84-4.23Zm-21.2-9.94c-3.6-3.27-8.62-3.99-13.32-4.57,5.25-.96,10.91,1.25,14.33,5.59-.32-.36-.65-.7-1-1.02Z"/><path class="cls-3" d="m118.61,261.29c6.59.82,13.16,1.77,19.71,2.86,3.12.52,6.29,1.09,9.08,2.67,2.22,1.26,4.09,3.11,5.7,5.16,2.79,3.54,4.84,7.73,5.97,12.18.49,1.94.79,4.1-.11,5.86-1.21,2.39-4.26,3.14-6.72,2.4-2.46-.73-4.46-2.59-6.35-4.42-1.89-1.83-3.84-3.73-6.26-4.58-6.07,4.11-13.91,5.12-20.73,2.7"/><path class="cls-3" d="m140.52,247.99c4.91.21,9.8.87,14.59,1.98,2.82.65,5.68,1.49,7.97,3.34,3.47,2.79,5.1,7.39,6.57,11.73,1.88,5.57,3.76,11.14,5.63,16.7.82,2.43,1.64,5.12.75,7.52-.94,2.52-3.67,3.97-6.22,3.78-2.55-.2-4.87-1.79-6.54-3.84-1.68-2.05-2.8-4.53-3.84-7.01-1.19-2.85-2.31-5.77-3.94-8.37-1.62-2.6-3.82-4.92-6.57-6.03"/><path class="cls-3" d="m171.3,268.6c2.35,2.35,4.83,4.54,7.43,6.57.91.71,1.88,1.42,2.98,1.66s2.41-.09,3.03-1.09c.51-.83.46-1.9.37-2.89-.97-11.08-4-21.95-8.87-31.81-.62-1.25-1.29-2.52-2.35-3.39-1.04-.85-2.35-1.23-3.62-1.54-7.52-1.81-15.29-1.92-23.13-1.77-6.41.16-12.82.63-19.18,1.39-1.19.14-2.54.39-3.18,1.38"/><g id="Layer_39"><path class="cls-11" d="m182.91,258.79c-.4-6.95-.8-13.91-1.21-20.86-.15-2.66-.34-5.44-1.76-7.71-1.94-3.12-5.82-4.64-9.55-4.98s-7.48.27-11.22.36c-2.22.05-4.94.18-5.94,2.12-.55,1.06-.35,2.34.02,3.47,1.48,4.57,5.41,8.09,9.84,10.19s9.35,2.95,14.21,3.68c.55.08,1.13.18,1.53.55.31.29.47.7.61,1.09.97,2.68,1.95,5.35,3.48,12.09Z"/></g><g id="Layer_40"><path class="cls-5" d="m154.92,234.85c6.4,4.6,13.26,9.37,21.19,9.96.46.03.94.06,1.32.3,1.08.67.65,2.39,1.45,3.36"/></g></g></svg>