<?xml version="1.0" encoding="UTF-8"?><svg xmlns="http://www.w3.org/2000/svg" xmlns:xlink="http://www.w3.org/1999/xlink" viewBox="0 0 476 710"><defs><style>.cls-1{stroke:#e1c2ac;}.cls-1,.cls-2,.cls-3,.cls-4{fill:none;stroke-linecap:round;}.cls-1,.cls-3{stroke-linejoin:round;}.cls-2{stroke:#c9c9c9;stroke-width:6px;}.cls-2,.cls-4{stroke-miterlimit:10;}.cls-5,.cls-6{fill:url(#linear-gradient);}.cls-7{clip-path:url(#clippath);}.cls-6,.cls-8,.cls-9,.cls-10,.cls-11,.cls-12,.cls-13,.cls-14,.cls-15,.cls-16,.cls-17,.cls-18,.cls-19,.cls-20{stroke-width:0px;}.cls-21,.cls-18{fill:#f5dccb;}.cls-3{stroke-width:11px;}.cls-3,.cls-4{stroke:#000;}.cls-22{clip-path:url(#clippath-1);}.cls-4{stroke-width:9px;}.cls-9{fill:#facfb9;}.cls-10{fill:#4a8c77;}.cls-11{fill:#d9b7a0;}.cls-12{fill:#e1c2ac;}.cls-13{fill:#d9d9d9;}.cls-14{fill:#a6a6a6;}.cls-15{fill:#a88167;}.cls-16{fill:#9e5536;}.cls-17{fill:#ba9788;}.cls-19{fill:#039686;}.cls-20{fill:#00685e;}</style><linearGradient id="linear-gradient" x1="295.62" y1="232.42" x2="303.79" y2="326.49" gradientUnits="userSpaceOnUse"><stop offset="0" stop-color="#d9b7a0"/><stop offset="1" stop-color="#f5dccb"/></linearGradient><clipPath id="clippath"><path class="cls-6" d="m336.37,200.48c-2.7,16.36-3.28,33.06-1.53,49.66,3.59,3.83,8.72,6.26,14.03,6.64-4.32,9.35-9.82,18.19-16.34,26.25-6.22,7.69-13.82,14.92-23.46,17.69-13.3,3.82-27.94-1.82-38.12-10.97-10.19-9.15-16.8-21.36-24.32-32.62,4.7-.96,9.79-3.57,9.51-8.23-1.12-18.59-.54-25.87-2.52-39.4"/></clipPath><clipPath id="clippath-1"><path class="cls-18" d="m223.75,135.5c6.23,27.19,9.87,56.51,26.95,79.13,9.39,9.53,21.23,16.89,34.27,21.11,6.04,1.71,12.75,1.2,18.69-.99,16.17-9.75,29.37-23.87,37.77-40.19,6.06-22.57,10.77-45.46,14.31-68.93-9.28-13.22-24.45-22.12-40.63-26.25-16.18-4.13-33.33-3.8-49.88-1.3-11.62,1.76-23.32,4.68-33.02,10.99-9.7,6.31-11.44,13.46-8.46,26.44Z"/></clipPath></defs><g id="Layer_26"><path class="cls-5" d="m336.37,200.48c-2.7,16.36-3.28,33.06-1.53,49.66,3.59,3.83,8.72,6.26,14.03,6.64-4.32,9.35-9.82,18.19-16.34,26.25-6.22,7.69-13.82,14.92-23.46,17.69-13.3,3.82-27.94-1.82-38.12-10.97-10.19-9.15-16.8-21.36-24.32-32.62,4.7-.96,9.79-3.57,9.51-8.23-1.12-18.59-.54-25.87-2.52-39.4"/><g class="cls-7"><path class="cls-15" d="m149.39,490.79c-2.11-15.77,5.38-24.82,11.3-39.58,5.93-14.76,15.49-27.72,23-41.53,3.62-7.99,6.19-16.46,7.64-25.11.75-4.48,1.21-9.07,2.92-13.28,3.1-7.59,9.88-13.04,13.97-20.15,6.79-11.81,5.39-26.6,9.94-39.44.59-1.66,1.33-3.36,2.68-4.49,3.29-2.76,8.75-.69,10.86,3.04,2.11,3.74,1.77,8.34,1.05,12.57-.72,4.23-1.74,8.57-.79,12.76.28,1.25.81,2.54,1.89,3.24.99.63,2.24.64,3.41.6,7.2-.25,14.37-1.54,21.56-1.13,7.19.41,14.71,2.84,19.14,8.53,2.33,2.99,3.51,7.57,1,10.41-1.16,1.31-2.98,2.1-3.57,3.75-1.31,3.64,4.42,6.11,5.03,9.92.79,4.96-7.3,8.45-5.78,13.24.64,2.03,2.94,3.4,3.01,5.53.14,4.08-7.15,4.3-8.29,8.22-.59,2.04.81,4.28.18,6.31-.67,2.13-3.17,2.97-5.33,3.52-5.47,1.37-10.95,2.74-16.42,4.11-2.07.52-4.26,1.11-5.71,2.67-1.21,1.3-1.72,3.08-2.16,4.79-7.21,28.44-3.61,58.72-10.46,87.24-3.88,16.15-12.93,33.12-28.89,37.71-14.1,4.06-29.8-3.44-38.26-15.43-8.46-11.99-10.04-16.51-12.91-38.03Z"/><path class="cls-15" d="m47.46,576.59c-2.11-15.77,5.38-24.82,11.3-39.58,5.93-14.76,15.49-27.72,23-41.53,3.62-7.99,6.19-16.46,7.64-25.11.75-4.48,1.21-9.07,2.92-13.28,3.1-7.59,9.88-13.04,13.97-20.15,6.79-11.81,5.39-26.6,9.94-39.44.59-1.66,1.33-3.36,2.68-4.49,3.29-2.76,8.75-.69,10.86,3.04,2.11,3.74,1.77,8.34,1.05,12.57-.72,4.23-1.74,8.57-.79,12.76.28,1.25.81,2.54,1.89,3.24.99.63,2.24.64,3.41.6,7.2-.25,14.37-1.54,21.56-1.13,7.19.41,14.71,2.84,19.14,8.53,2.33,2.99,3.51,7.57,1,10.41-1.16,1.31-2.98,2.1-3.57,3.75-1.31,3.64,4.42,6.11,5.03,9.92.79,4.96-7.3,8.45-5.78,13.24.64,2.03,2.94,3.4,3.01,5.53.14,4.08-7.15,4.3-8.29,8.22-.59,2.04.81,4.28.18,6.31-.67,2.13-3.17,2.97-5.33,3.52-5.47,1.37-10.95,2.74-16.42,4.11-2.07.52-4.26,1.11-5.71,2.67-1.21,1.3-1.72,3.08-2.16,4.79-7.21,28.44-3.61,58.72-10.46,87.24-3.88,16.15-12.93,33.12-28.89,37.71-14.1,4.06-29.8-3.44-38.26-15.43-8.46-11.99-10.04-16.51-12.91-38.03Z"/></g><path class="cls-11" d="m349.94,148.22c.59-1.47,1.21-2.97,2.3-4.14s2.76-1.96,4.33-1.59c2.28.54,3.34,3.11,3.63,5.37.78,5.98-1.26,12.04-4.48,17.18-3.22,5.14-7.58,9.5-11.9,13.82"/><path class="cls-11" d="m228.3,156.32c-.81-1.36-1.65-2.76-2.9-3.76-1.25-1-3.02-1.54-4.52-.95-2.18.86-2.83,3.55-2.77,5.84.14,6.02,3.08,11.73,7.04,16.35,3.97,4.62,8.94,8.31,13.86,11.96"/><path class="cls-21" d="m223.75,135.5c6.23,27.19,9.87,56.51,26.95,79.13,9.39,9.53,21.23,16.89,34.27,21.11,6.04,1.71,12.75,1.2,18.69-.99,16.17-9.75,29.37-23.87,37.77-40.19,6.06-22.57,10.77-45.46,14.31-68.93-9.28-13.22-24.45-22.12-40.63-26.25-16.18-4.13-33.33-3.8-49.88-1.3-11.62,1.76-23.32,4.68-33.02,10.99-9.7,6.31-11.44,13.46-8.46,26.44Z"/><g class="cls-22"><ellipse class="cls-9" cx="329.74" cy="185.17" rx="15.49" ry="14.67"/><ellipse class="cls-9" cx="251.69" cy="192.71" rx="15.49" ry="14.67"/></g><ellipse class="cls-8" cx="256.28" cy="159.13" rx="6.8" ry="9.51"/><ellipse class="cls-8" cx="311.15" cy="154.83" rx="6.8" ry="9.51"/><path class="cls-10" d="m277.84,444.9c-19.45-20.56-35.23-44.4-46.43-70.13-5.9,15.09,1.02,31.78,7.85,46.5,10.94,23.61,22.14,47.6,39.78,67"/><path class="cls-10" d="m190.73,291.63c13.1,13.56,26.04,28.91,28.52,47.37,1.56-22.77-12.7-45.78-28.52-47.37Z"/><path class="cls-10" d="m250.64,505.53c19.42,46.94,58.37,85.9,106.06,106.08-38.86-31.12-72.03-68.94-97.51-111.17,15.31,19.57,35.67,35.37,58.69,45.52-21.89-18.62-41.57-39.7-58.53-62.69"/><path class="cls-10" d="m320.88,499.05c18.56,33.18,44,62.69,74.34,86.24-24.88-29.58-49.76-59.16-74.34-86.24Z"/><path class="cls-10" d="m353.04,418.81c-11.48-37.38-30.29-72.61-55.12-103.23,21.65,49.36,43.3,98.72,64.94,148.08"/><path class="cls-8" d="m297.48,136.74c6.94-1.99,14.01-3.84,21.24-4.03,7.23-.18,14.73,1.45,20.41,5.81-3.23,1.81-7.26.87-10.93.23-9.07-1.6-18.53-1.04-27.33,1.62-1.39.42-2.95.88-4.23.22s-1.49-3.18.85-3.85Z"/><path class="cls-8" d="m274.99,137.86c-7.21-.62-14.51-1.08-21.64.13-7.13,1.21-14.15,4.25-18.83,9.62,3.53,1.16,7.29-.54,10.76-1.88,8.57-3.31,17.96-4.58,27.13-3.67,1.44.14,3.07.29,4.19-.6,1.13-.89.82-3.41-1.61-3.61Z"/><path class="cls-18" d="m129.6,434.47c-4.67,16.2-6.65,33.21-5.8,49.87.63,12.34,9.27,27.5,17.67,35.09,5.78,5.23,16.09,5.36,23.69,5.8,14.37.84,22.04-4.4,30.47-18.03,3.07-4.96,4.87-10.68,6.64-16.32,3.92-12.5,7.83-25,11.75-37.5,1.31-4.19,2.64-8.45,2.89-12.81"/><path class="cls-18" d="m469.53,442.45c.89,14.85-1.03,29.87-5.63,44.02-3.41,10.48-8.96,21.2-18.85,26.05-6.81,3.34-14.79,3.4-22.29,2.26-14.18-2.15-28.86-9.6-34-23-1.87-4.87-2.33-10.15-2.78-15.35-.99-11.53-1.98-23.05-2.96-34.58-.33-3.86-.66-7.79.08-11.59"/><path class="cls-19" d="m248.29,257.11c15.97,14.24,31.93,28.48,48.29,42.09,15.75-14.7,32.85-28.03,50.28-38.89,21.1,6.62,37.62,23.88,46.17,43.79,8.55,19.91,9.8,42.21,7.12,63.63-2.69,21.42-9.14,42.2-15.5,62.9,3.07,60.06,14.86,119.7,33.12,177.12-6.98,12.29-22.95,16.16-37.18,18.45-67.3,10.81-138.86,12.62-202.37-14.48,18.56-100.52,37.19-202.89,21.66-303.71l.15-1.35"/><path class="cls-20" d="m327,435.3c-24.28-31.55-45.34-65.46-62.75-101.05,1.97,24.65,5.56,49.64,16.38,72,9.04,18.68,22.76,34.78,36.34,50.66,17.25,20.17,34.5,40.35,51.75,60.52-14.62-20.62-15.87-48.56-41.71-82.14Z"/><path class="cls-19" d="m391.29,299.72c-12.58,43.49-18.76,89.15-18.18,135.12,34.55,6.79,69.85,8.84,104.12,7.11-5.16-37.55-13.12-74.71-23.78-111.02-4.96-16.89-10.82-34.17-22.37-47.02-11.39-12.68-27.36-19.83-43.51-23.01-16.15-3.18-29.52-2.46-46.25-4.14.12-.02,1.13,1.07,1.3.98,1.47.98-1.09.61.38,1.59"/><path class="cls-20" d="m215.5,531.26c40.03,50.9,102.45,83.52,167.1,87.31-59.15-23.66-114.93-55.73-167.1-87.31Z"/><path class="cls-20" d="m262.94,468.69c13.43,36.12,42.94,65.91,78.92,79.69-25.04-22.09-45.38-49.49-78.92-79.69Z"/><path class="cls-19" d="m203.35,303.13c15.41,43.4,21.59,101.45,24.04,148.29-34.03,9.32-66.13,1.86-100.43,2.49,2.68-38.59,8.17-76.97,16.42-114.68,3.84-17.54,8.55-35.54,19.22-49.43,10.53-13.7,26-22.09,41.91-26.45,15.91-4.36,32.42-5.04,49-7.92-.12,0-.24-.01-.41-.1l-4.21,3.31"/><path class="cls-4" d="m252.81,249.93c-34.9,45.73-31.76,86.79-24.53,129.12"/><circle class="cls-14" cx="233.49" cy="394.44" r="24.63"/><circle class="cls-13" cx="233.49" cy="394.44" r="15.58"/><path class="cls-19" d="m353.12,139.99c-18.64-15.21-44.92-15.36-68.08-13.26-23.16,2.1-43,6.42-58.23,24.75-7.71-16.24-8.11-36.42-1.05-53.01,7.06-16.59,21.43-29.21,37.89-32.38-.09,0-.18,0-.39-.16,8.82-7.6,21.28-9.8,31.61-6.14,19.03-3.27,39.39,5.52,51.28,22.14,11.89,16.62,14.82,40.39,6.97,58.06Z"/><path class="cls-20" d="m266.51,69.74c-4.62,9.75-6.46,20.74-5.24,31.42-1.71-8.12-3.41-16.55-1.4-24.6.46-1.83,1.14-3.67,2.41-5.09s3.26-2.35,4.23-1.73Z"/><path class="cls-20" d="m294.62,62.89c5.82,5.98,9.77,13.67,11.18,21.79,1.7-4.66,1.22-10.03-1.29-14.33-2.5-4.3-6.99-7.46-9.89-7.46Z"/><path class="cls-17" d="m292.52,186.93c-2.53-11-4.01-22.23-4.41-33.49-2.71,8.41-3.33,17.45-1.78,26.14.6,3.38,2.22,7.36,6.19,7.35Z"/><path class="cls-2" d="m369.6,341.36c-3.25,16.73-11.82,32.38-24.17,44.12-12.34,11.75-28.4,19.54-45.26,21.96"/><path class="cls-2" d="m337.49,329.2c-12.62,31.38-4.69,69.95,19.28,93.81"/><path class="cls-3" d="m335.09,334.99c1.43-5.7,2.94-11.54,6.26-16.39s8.88-8.61,14.74-8.13c6.85.56,12.18,6.79,13.8,13.47,1.62,6.67.3,13.69-1.32,20.36"/><path class="cls-4" d="m338.12,248.34c15.45,16.9,23.1,40.71,20.41,63.49"/><ellipse class="cls-8" cx="298.95" cy="407.55" rx="4.46" ry="2.97"/><ellipse class="cls-8" cx="357.99" cy="424.11" rx="2.97" ry="4.46" transform="translate(-186.9 529.58) rotate(-60.79)"/><path class="cls-20" d="m383.26,437.24c2.36-42.89,13.64-85.28,32.9-123.68-6.4,1.53-10.6,7.49-14.2,13-8.32,12.76-16.78,25.84-20.31,40.66-2.3,9.66-2.42,19.69-2.35,29.61.1,14.6.55,29.19,3.96,40.4Z"/><path class="cls-16" d="m311.39,200.78l2.82-3.21-44,3.93,3.34,2.66c11.49,9.16,28.15,7.68,37.84-3.38Z"/><path class="cls-20" d="m203.18,443.83c-5.98-25.23-3.2-51.58-3.53-77.51-.33-25.93-4.53-53.49-21.57-73.03,12.44,29.38,9.61,62.62,12.88,94.36,2.08,20.16,6.71,40.05,12.23,56.18Z"/></g><g id="Layer_38"><path class="cls-18" d="m313.66,370.8c.74-4.11,3.26-7.67,6-10.83,7.49-8.64,17.14-15.39,27.83-19.46,4.6-1.75,3.46,2.24,7.26,5.37.19.15.43.4.71.73.77,3.6,3.53,7.45,5.49,10.12,39.06,53.28,38.59,45.12,66.79,72.5,18.71,18.16,27.74,25.53,26.49,51.58l-7.66,30.33c-9.74,12.11-29.67,10.3-42.15,1.04-12.48-9.26-19.83-23.66-28.43-36.61-19.27-29.04-18.61-48.59-53.73-85.16-1.06-2.54-3.08-4.98-4.84-7.32-.89-1.67-1.84-3.3-3.09-4.73-.26-.29-.53-.5-.8-.67-.29-2.29-.27-4.6.13-6.88Z"/><path class="cls-18" d="m357.18,350.82c1.37-22.08-11.64-42.16-1.85-70.79.67-1.97.79-4.35-.49-6.04-1.36-1.8-4.2-2.09-6.34-1.21-2.14.88-3.72,2.66-5.11,4.44-6.4,8.2-10.65,17.92-12.24,28.04-9.16-8.6-18.96-16.58-29.3-23.86-10.75-7.58-22.97-14.66-36.34-14.46-1.94.03-4.36.61-4.7,2.43-.28,1.49,1.08,2.76,2.32,3.69,10.84,8.13,23.52,14.38,32.08,24.69,1.24,1.49,2.35,3.76.96,5.12-.75.73-1.92.83-2.96,1.07-4.62,1.06-7.81,6.05-6.68,10.45.52,2,1.79,3.86,1.79,5.92,0,4.1-4.98,7.19-4.56,11.27.22,2.2,2.04,4.24,1.5,6.39-.32,1.28-1.4,2.23-2.17,3.33-3.29,4.73-.19,11.17,3.87,15.32,5.65,5.78,11.4,11.22,17,17.13,9.84,10.41,12.14,9.79,18.28,16.68"/><path class="cls-12" d="m331.17,306.6c6.04,4.76,11.49,10.27,16.19,16.36-2.24-8.11-8.88-14.85-16.19-16.36Z"/><path class="cls-12" d="m290.08,320.92c2.06,3.8,4.8,7.23,8.04,10.09-4.51-1.2-7.98-5.57-8.04-10.09Z"/><path class="cls-12" d="m286.87,338.93c.88,3.84,2.48,7.51,4.69,10.77-1.64-1.49-3.32-3.02-4.33-4.99-1.01-1.97-1.23-4.51-.36-5.78Z"/><path class="cls-12" d="m297.87,303.61c2.57,2.47,5.25,4.83,8.01,7.09-.05-2.05-1.37-3.9-3.04-5.1-1.67-1.19-3.66-1.84-4.97-1.99Z"/><path class="cls-18" d="m311.78,380.14c34.34,32.6,51.18,79.07,77.23,118.62,2.77,4.21,5.71,8.41,9.6,11.61,4.01,3.3,8.87,5.39,13.75,7.16,9.07,3.28,17.88,4.21,26.23-.6-9.01-3.31-15.6-7.2-22.61-13.76-8.12-7.6-14.34-16.95-20.5-26.21-11.85-17.84-23.71-35.69-35.56-53.53-14.06-21.17-29.17-43.28-48.15-43.28Z"/><path class="cls-18" d="m.45,273.37c.34-1.82,2.76-2.4,4.7-2.43,13.37-.21,25.59,6.88,36.34,14.46,10.34,7.29,20.14,15.27,29.3,23.86,1.59-10.11,5.84-19.83,12.24-28.04,1.39-1.78,2.97-3.56,5.11-4.44,2.14-.88,4.98-.59,6.34,1.21,1.27,1.69,1.16,4.07.49,6.04-9.78,28.63,3.22,48.72,1.85,70.79l-29.82,38.77c-.35-.23-.75-.41-1.23-.52-10.51-2.35-17.16-13.17-25.02-19.62-3.12-2.56-6.3-5.02-9.48-7.47-1.89-1.45-3.5-3.24-4.66-5.32,0-.01-.01-.02-.02-.03-2.82-5.07-7.16-10.59-3.87-15.32.76-1.1,1.85-2.05,2.17-3.33.54-2.15-1.28-4.19-1.5-6.39-.42-4.08,4.55-7.17,4.56-11.27,0-2.06-1.27-3.92-1.79-5.92-1.14-4.4,2.05-9.39,6.68-10.45,1.04-.24,2.21-.34,2.96-1.07,1.39-1.36.28-3.63-.96-5.12-8.56-10.31-21.25-16.56-32.08-24.69-1.25-.93-2.6-2.2-2.32-3.69Z"/><path class="cls-12" d="m70.43,309.07c.27,3.26-.98,6.21-1.94,9.08-1.95,5.84-2.83,12.65-2.06,19.24.77,6.59,3.26,12.89,6.99,16.58-2.34-10.07-4.71-20.6-3.84-31.02.38-4.54,1.36-9.15.86-13.88Z"/><path class="cls-1" d="m29.65,325.1c6.41,4.69,13.75,8.11,21.46,10.02,2.21.55,4.55.97,6.75.39s4.23-2.42,4.33-4.69c.1-2.49-1.96-4.47-3.85-6.09-6.74-5.75-13.48-11.49-20.21-17.24"/><path class="cls-1" d="m25.42,340.75c8.03,10.93,22.89,16.33,36.06,13.12,1.5-.36,3.28-1.23,3.23-2.77-.02-.6-.34-1.15-.68-1.66-2.75-4.15-6.99-7.28-11.76-8.7-1.95-.58-3.99-.89-5.87-1.67-3.62-1.51-6.29-4.67-8.39-7.98"/><path class="cls-1" d="m22.18,350.07c.8,5.9,5.68,10.64,11.23,12.79s11.69,2.12,17.62,1.65c1.69-.13,3.78-.65,4.12-2.31.2-.99-.37-1.97-1.06-2.71-3.15-3.34-8.67-3.28-12.11-6.32"/><path class="cls-18" d="m78.49,356.55c2.88-2.05,6.07-3.76,9.53-4.39s5.96-.07,8.79,2.04c.66,1.44,4.16,10.26,5.72,12.84,2.72,4.52,5.07,9.3,8,13.69.81,1.21,1.66,2.41,2.53,3.6,2.95,4.75,7.02,8.91,10.63,13.16,4.24,4.98,8.39,10.07,12.99,14.73,8.67,8.79,18.26,16.74,28.04,24.26,5.58,5.01,8.63,6.47,15.09,14.4,8.01,9.84,13.51,23.05,10.14,35.34l-34.93,36.16c-8.62.93-14.5-6.89-20.53-13.24-27.36-28.84-37.19-50.24-47.3-71.76-4.82-10.26-9.7-20.55-16.58-31.68-2.08-3.37-5.66-10.24-7.74-13.61-5.11-13.93,3.46-26.87,15.63-35.55Z"/><path class="cls-18" d="m59.09,386.79c5.5,8.34,9.3,17.66,13.43,26.76,10.74,23.63,23.89,46.08,37.25,68.34,5.03,8.38,10.13,16.8,16.62,24.12,4.13,4.66,8.8,8.85,13.88,12.45,2.71,1.92,5.58,3.69,8.77,4.59,5.48,1.54,11.32.36,16.89-.83-4.22.37-7.58-3.3-10.18-6.65-18.26-23.59-34.93-48.39-49.88-74.2-11.98-20.68-23.71-42.94-46.78-54.58Z"/></g></svg>