<?xml version="1.0" encoding="UTF-8"?><svg xmlns="http://www.w3.org/2000/svg" xmlns:xlink="http://www.w3.org/1999/xlink" viewBox="0 0 476 710"><defs><style>.cls-1{stroke:#c9c9c9;stroke-width:6px;}.cls-1,.cls-2,.cls-3{fill:none;stroke-linecap:round;}.cls-1,.cls-3{stroke-miterlimit:10;}.cls-4,.cls-5{fill:url(#linear-gradient);}.cls-6{clip-path:url(#clippath);}.cls-5,.cls-7,.cls-8,.cls-9,.cls-10,.cls-11,.cls-12,.cls-13,.cls-14,.cls-15,.cls-16,.cls-17,.cls-18,.cls-19{stroke-width:0px;}.cls-20,.cls-17{fill:#f5dccb;}.cls-2{stroke-linejoin:round;stroke-width:11px;}.cls-2,.cls-3{stroke:#000;}.cls-21{clip-path:url(#clippath-1);}.cls-3{stroke-width:9px;}.cls-8{fill:#facfb9;}.cls-9{fill:#4a8c77;}.cls-10{fill:#d9b7a0;}.cls-11{fill:#e1c1ac;}.cls-12{fill:#d9d9d9;}.cls-13{fill:#a6a6a6;}.cls-14{fill:#a88167;}.cls-15{fill:#9e5536;}.cls-16{fill:#ba9788;}.cls-18{fill:#039686;}.cls-19{fill:#00685e;}</style><linearGradient id="linear-gradient" x1="229.66" y1="212.3" x2="239.28" y2="323.04" gradientUnits="userSpaceOnUse"><stop offset="0" stop-color="#d9b7a0"/><stop offset="1" stop-color="#f5dccb"/></linearGradient><clipPath id="clippath"><path class="cls-5" d="m277.63,174.7c-3.18,19.26-3.86,38.91-1.8,58.46,4.22,4.51,10.26,7.37,16.51,7.82-5.08,11.01-11.56,21.41-19.24,30.9-7.33,9.05-16.26,17.57-27.62,20.83-15.65,4.5-32.89-2.14-44.88-12.92-11.99-10.77-19.78-25.15-28.63-38.4,5.53-1.13,11.52-4.2,11.19-9.69-1.32-21.89-.63-30.46-2.97-46.38"/></clipPath><clipPath id="clippath-1"><path class="cls-17" d="m145.05,98.2c7.33,32.01,11.61,66.52,31.72,93.15,11.06,11.22,24.99,19.88,40.34,24.86,7.11,2.01,15.01,1.42,22-1.17,19.04-11.48,34.58-28.11,44.47-47.32,7.13-26.57,12.67-53.52,16.85-81.14-10.92-15.56-28.79-26.04-47.83-30.91-19.05-4.86-39.24-4.48-58.72-1.53-13.68,2.07-27.46,5.51-38.87,12.93-11.41,7.43-13.46,15.85-9.96,31.13Z"/></clipPath></defs><g id="Layer_26"><path class="cls-4" d="m277.63,174.7c-3.18,19.26-3.86,38.91-1.8,58.46,4.22,4.51,10.26,7.37,16.51,7.82-5.08,11.01-11.56,21.41-19.24,30.9-7.33,9.05-16.26,17.57-27.62,20.83-15.65,4.5-32.89-2.14-44.88-12.92-11.99-10.77-19.78-25.15-28.63-38.4,5.53-1.13,11.52-4.2,11.19-9.69-1.32-21.89-.63-30.46-2.97-46.38"/><g class="cls-6"><path class="cls-14" d="m57.52,516.46c-2.48-18.56,6.33-29.22,13.31-46.6,6.98-17.38,18.24-32.63,27.07-48.89,4.26-9.41,7.29-19.37,8.99-29.56.88-5.27,1.42-10.68,3.44-15.63,3.64-8.94,11.64-15.36,16.45-23.72,8-13.9,6.34-31.32,11.7-46.43.69-1.96,1.56-3.95,3.15-5.29,3.87-3.25,10.3-.82,12.78,3.58s2.08,9.82,1.24,14.8-2.05,10.09-.93,15.02c.33,1.47.95,2.99,2.22,3.81,1.16.75,2.64.76,4.02.71,8.47-.3,16.92-1.81,25.38-1.33s17.32,3.35,22.53,10.04c2.74,3.52,4.14,8.92,1.18,12.26-1.36,1.54-3.51,2.48-4.2,4.41-1.54,4.28,5.2,7.19,5.92,11.68.93,5.84-8.59,9.95-6.81,15.59.76,2.39,3.46,4.01,3.54,6.51.17,4.8-8.42,5.06-9.76,9.68-.7,2.4.96,5.04.21,7.43-.79,2.51-3.73,3.5-6.28,4.14-6.44,1.61-12.89,3.23-19.33,4.84-2.43.61-5.01,1.3-6.72,3.14-1.42,1.53-2.02,3.62-2.54,5.64-8.48,33.47-4.25,69.13-12.32,102.71-4.57,19.02-15.22,38.99-34.01,44.4-16.6,4.78-35.09-4.05-45.04-18.16s-11.81-19.44-15.2-44.76Z"/><path class="cls-14" d="m-62.48,617.46c-2.48-18.56,6.33-29.22,13.31-46.6,6.98-17.38,18.24-32.63,27.07-48.89,4.26-9.41,7.29-19.37,8.99-29.56.88-5.27,1.42-10.68,3.44-15.63,3.64-8.94,11.64-15.36,16.45-23.72,8-13.9,6.34-31.32,11.7-46.43.69-1.96,1.56-3.95,3.15-5.29,3.87-3.25,10.3-.82,12.78,3.58s2.08,9.82,1.24,14.8-2.05,10.09-.93,15.02c.33,1.47.95,2.99,2.22,3.81,1.16.75,2.64.76,4.02.71,8.47-.3,16.92-1.81,25.38-1.33,8.46.49,17.32,3.35,22.53,10.04,2.74,3.52,4.14,8.92,1.18,12.26-1.36,1.54-3.51,2.48-4.2,4.41-1.54,4.28,5.2,7.19,5.92,11.68.93,5.84-8.59,9.95-6.81,15.59.76,2.39,3.46,4.01,3.54,6.51.17,4.8-8.42,5.06-9.76,9.68-.7,2.4.96,5.04.21,7.43-.79,2.51-3.73,3.5-6.28,4.14-6.44,1.61-12.89,3.23-19.33,4.84-2.43.61-5.01,1.3-6.72,3.14-1.42,1.53-2.02,3.62-2.54,5.64-8.48,33.47-4.25,69.13-12.32,102.71-4.57,19.02-15.22,38.99-34.01,44.4-16.6,4.78-35.09-4.05-45.04-18.16s-11.81-19.44-15.2-44.76Z"/></g><path class="cls-10" d="m293.61,113.18c.7-1.73,1.43-3.49,2.7-4.87s3.24-2.31,5.1-1.87c2.69.63,3.93,3.66,4.27,6.33.91,7.03-1.49,14.17-5.28,20.23s-8.92,11.19-14.01,16.27"/><path class="cls-10" d="m150.41,122.71c-.95-1.61-1.94-3.25-3.41-4.43s-3.56-1.82-5.32-1.12c-2.56,1.01-3.33,4.18-3.27,6.87.17,7.09,3.62,13.8,8.29,19.24,4.67,5.44,10.52,9.78,16.32,14.07"/><path class="cls-20" d="m145.05,98.2c7.33,32.01,11.61,66.52,31.72,93.15,11.06,11.22,24.99,19.88,40.34,24.86,7.11,2.01,15.01,1.42,22-1.17,19.04-11.48,34.58-28.11,44.47-47.32,7.13-26.57,12.67-53.52,16.85-81.14-10.92-15.56-28.79-26.04-47.83-30.91-19.05-4.86-39.24-4.48-58.72-1.53-13.68,2.07-27.46,5.51-38.87,12.93-11.41,7.43-13.46,15.85-9.96,31.13Z"/><g class="cls-21"><ellipse class="cls-8" cx="269.83" cy="156.67" rx="18.24" ry="17.28"/><ellipse class="cls-8" cx="177.95" cy="165.56" rx="18.24" ry="17.28"/></g><ellipse class="cls-7" cx="188.36" cy="124.85" rx="8" ry="11.19"/><ellipse class="cls-7" cx="252.36" cy="120.95" rx="8" ry="11.19"/><path class="cls-9" d="m208.73,462.44c-22.9-24.2-41.48-52.26-54.66-82.56-6.94,17.77,1.2,37.41,9.24,54.74,12.88,27.79,26.07,56.04,46.83,78.87"/><path class="cls-9" d="m106.18,282.01c15.42,15.97,30.65,34.04,33.57,55.77,1.84-26.8-14.95-53.89-33.57-55.77Z"/><path class="cls-9" d="m176.72,533.81c22.86,55.26,68.72,101.13,124.86,124.87-45.75-36.63-84.8-81.15-114.79-130.87,18.02,23.04,41.99,41.64,69.09,53.59-25.77-21.92-48.94-46.74-68.9-73.79"/><path class="cls-9" d="m259.4,526.18c21.85,39.06,51.8,73.8,87.51,101.53-29.29-34.82-58.58-69.64-87.51-101.53Z"/><path class="cls-9" d="m297.26,431.72c-13.52-44-35.66-85.47-64.89-121.53,25.48,58.11,50.97,116.22,76.45,174.33"/><path class="cls-7" d="m231.86,99.66c8.17-2.34,16.49-4.53,25-4.74,8.51-.22,17.34,1.71,24.02,6.84-3.8,2.13-8.54,1.03-12.86.27-10.68-1.88-21.82-1.22-32.18,1.91-1.63.49-3.47,1.03-4.98.26s-1.76-3.75,1-4.54Z"/><path class="cls-7" d="m205.38,100.98c-8.48-.73-17.08-1.27-25.47.16-8.39,1.42-16.65,5.01-22.16,11.33,4.16,1.36,8.58-.63,12.66-2.21,10.08-3.9,21.14-5.39,31.93-4.32,1.7.17,3.61.35,4.94-.7s.96-4.01-1.9-4.26Z"/><path class="cls-18" d="m173.95,241.37c18.79,16.76,37.59,33.52,56.85,49.55,18.54-17.3,38.67-32.99,59.2-45.78,24.84,7.8,44.28,28.11,54.35,51.55,10.07,23.44,11.54,49.7,8.38,74.91-3.16,25.21-10.76,49.67-18.25,74.05,3.61,70.71,17.5,140.91,38.99,208.5-8.21,14.46-27.02,19.03-43.77,21.72-79.23,12.73-163.47,14.85-238.23-17.05,21.85-118.34,43.78-238.84,25.49-357.53.06-.53.12-1.06.18-1.59"/><path class="cls-19" d="m266.61,451.14c-28.58-37.15-53.37-77.06-73.87-118.96,2.32,29.02,6.54,58.44,19.28,84.76,10.64,22,26.8,40.95,42.78,59.64,20.31,23.75,40.61,47.5,60.92,71.25-17.21-24.27-18.68-57.16-49.1-96.69Z"/><path class="cls-17" d="m432.39,457.56c1.05,17.49-1.22,35.16-6.63,51.82-4.01,12.33-10.55,24.96-22.19,30.66-8.02,3.93-17.41,4-26.25,2.67-16.7-2.53-33.98-11.31-40.02-27.08-2.2-5.74-2.74-11.95-3.27-18.08-1.16-13.57-2.33-27.14-3.49-40.71-.39-4.55-.78-9.17.1-13.64"/><path class="cls-18" d="m342.28,291.53c-14.81,51.2-22.09,104.95-21.41,159.07,40.67,7.99,82.23,10.4,122.57,8.37-6.07-44.21-15.44-87.95-27.99-130.7-5.84-19.88-12.74-40.23-26.33-55.36-13.4-14.93-32.21-23.34-51.22-27.08-19.01-3.74-34.75-2.9-54.44-4.88.14-.02,1.33,1.26,1.53,1.16,1.73,1.16-1.29.71.44,1.87"/><path class="cls-19" d="m310.09,385.86c-8.01-39.19,5.06-81.89,33.8-110.42-12.58,22.8-19.58,48.5-20.27,74.37,3.95-11.73,12.2-22.04,22.92-28.63-14.71,20.77-26.33,43.61-36.45,64.68Z"/><path class="cls-19" d="m135.35,564.1c47.12,59.92,120.61,98.32,196.71,102.78-69.63-27.86-135.3-65.6-196.71-102.78Z"/><path class="cls-19" d="m191.19,490.44c15.81,42.52,50.55,77.59,92.91,93.81-29.48-26.01-53.43-58.26-92.91-93.81Z"/><path class="cls-19" d="m299.33,425.23c2.09-16.18,12.59-30.43,25.56-40.75,12.97-10.32,28.37-17.25,43.49-24.3-25.17,21.55-49.7,43.79-69.05,65.05Z"/><path class="cls-19" d="m321.71,443.87c25.89-8.81,50.71-20.62,73.75-35.11-16.57,24.35-47.71,38.52-73.75,35.11Z"/><path class="cls-9" d="m309.74,370.64c-4.03,19.03-8.06,38.06-12.1,57.08,6.91-21.02,13.83-42.03,12.1-57.08Z"/><path class="cls-17" d="m39.36,456.56c-1.05,17.49,1.22,35.16,6.63,51.82,4.01,12.33,10.55,24.96,22.19,30.66,8.02,3.93,17.41,4,26.25,2.67,16.7-2.53,33.98-11.31,40.02-27.08,2.2-5.74,2.74-11.95,3.27-18.08,1.16-13.57,2.33-27.14,3.49-40.71.39-4.55.78-9.17-.1-13.64"/><path class="cls-18" d="m121.05,295.54c18.15,51.09,28.95,105.31,31.83,160.45-40.06,10.97-81.38,16.32-121.76,17.06,3.15-45.43,9.62-90.62,19.33-135.01,4.52-20.65,10.07-41.84,22.63-58.19,12.39-16.13,30.61-26,49.33-31.14,18.73-5.13,38.16-5.93,57.68-9.32-.14,0-.29-.02-.49-.11-1.65,1.3-3.3,2.6-4.95,3.9"/><path class="cls-19" d="m132.49,429.08c-6.71-10.79-13.48-21.66-22.21-30.98-8.73-9.32-19.67-17.1-32.25-20.15,20.01,23.84,38.85,48.61,54.46,51.13Z"/><path class="cls-19" d="m141.92,452.76c11.07-56.69,8.4-115.88-7.73-171.4,1.03,32.63,2.06,65.26,3.09,97.88-6.67-11.37-14.92-21.86-24.46-31.09,17.2,36.98,26.26,77.52,29.1,104.61Z"/><path class="cls-3" d="m179.27,232.92c-41.09,53.83-37.39,102.17-28.88,152"/><circle class="cls-13" cx="156.52" cy="403.03" r="29"/><circle class="cls-12" cx="156.52" cy="403.03" r="18.34"/><path class="cls-18" d="m297.35,103.49c-21.95-17.9-52.88-18.08-80.15-15.61-27.26,2.47-50.62,7.56-68.54,29.14-9.08-19.12-9.55-42.87-1.24-62.4,8.32-19.53,25.23-34.39,44.61-38.12-.11,0-.22,0-.46-.19,10.39-8.95,25.05-11.53,37.21-7.23,22.4-3.85,46.37,6.5,60.36,26.06,13.99,19.56,17.45,47.55,8.21,68.35Z"/><path class="cls-19" d="m195.4,20.79c-5.44,11.48-7.6,24.42-6.17,36.99-2.01-9.56-4.02-19.49-1.65-28.96.54-2.16,1.34-4.32,2.84-5.99s3.84-2.77,4.98-2.03Z"/><path class="cls-19" d="m228.49,12.72c6.86,7.04,11.5,16.09,13.16,25.65,2-5.49,1.43-11.81-1.52-16.87s-8.23-8.79-11.64-8.78Z"/><path class="cls-16" d="m226.02,158.75c-2.98-12.95-4.72-26.17-5.19-39.43-3.19,9.9-3.91,20.55-2.09,30.77.71,3.98,2.62,8.66,7.28,8.66Z"/><path class="cls-1" d="m316.75,340.55c-3.83,19.69-13.92,38.11-28.45,51.94-14.53,13.83-33.43,23-53.28,25.85"/><path class="cls-1" d="m278.95,326.23c-14.86,36.94-5.52,82.35,22.7,110.43"/><path class="cls-2" d="m276.13,333.04c1.69-6.72,3.46-13.58,7.37-19.3s10.46-10.13,17.36-9.57c8.06.66,14.33,8,16.24,15.86s.36,16.11-1.56,23.97"/><path class="cls-3" d="m279.7,231.04c18.19,19.9,27.2,47.92,24.03,74.74"/><ellipse class="cls-7" cx="233.58" cy="418.46" rx="5.25" ry="3.5"/><ellipse class="cls-7" cx="303.08" cy="437.96" rx="3.5" ry="5.25" transform="translate(-227.1 488.75) rotate(-60.79)"/><path class="cls-15" d="m245.42,178.2l6.38-7.28-51.79,4.62,7.57,6.04c11.49,9.16,28.15,7.68,37.84-3.38Z"/></g><g id="Layer_38"><path class="cls-17" d="m50.72,511.02c-9.24-14.57-6.58-32.28.6-47.58,7.18-15.29,18.48-29.14,26.7-44.09,11.17-20.34,15.46-41.77,22.24-63.3.9-2.87,3.1-6.6,6.3-8.1,1.85-.87,4.08-1.03,6.23-1.01,7.1.07,14.01,1.91,20.43,4.31,9.92,3.72,19.49,3.49,19.61,12.21.1,6.95-.92,5.26-5.57,19.49-2.32,7.1.32,20.8.27,28.14-.17,22.63-1.62,45.25-4.36,67.78-1.76,14.47-4.19,29.3-12.91,42.07"/><path class="cls-17" d="m101.33,355.13c2.23-11.46,4.45-22.92,6.68-34.38.73-3.77,1.51-7.65,3.61-10.87,3.27-5,9.13-7.54,13.71-11.37,10.06-8.42,13.24-22.32,15.54-35.23.83-4.64,3.06-10.52,7.77-10.27,3.28.18,5.44,3.45,6.67,6.49,4.25,10.51,3.87,22.8-1.03,33.03-1.11,2.31-2.28,5.47-.28,7.08,1.29,1.04,3.16.69,4.78.34,11.79-2.56,24.67-2.02,35.17,3.92,2.39,1.35,4.91,4.23,3.33,6.48-.51.72-1.34,1.15-1.95,1.79-3.25,3.43,1.83,8.71,1.59,13.42-.21,4.09-4.41,6.91-5.37,10.9-1.66,6.92,6.81,14.82,2.36,20.38-2.23,2.79-7.24,3.88-7.09,7.44.06,1.59,1.27,2.87,1.84,4.35,1.14,2.96-.45,6.44-3,8.32-2.55,1.88-5.83,2.46-8.99,2.66-8.42.53-16.92-1.24-25.27-.03-8.35,1.21-17.1,6.78-17.85,15.18"/><path class="cls-11" d="m152.95,298.73c-5.23-.41-10.65-.48-16.24-.2,3.51-1.93,6.62-2.45,9.23-2.13s4.76,1.42,7.01,2.34Z"/><path class="cls-11" d="m153.8,378.96c-6.45-1.91-13.18-2.91-19.91-2.94,3.55.43,7.03,1.27,10.51,2.11,3.75.91,7.5,1.82,9.4.82Z"/><path class="cls-17" d="m418.86,510.02c9.24-14.57,6.58-32.28-.6-47.58-7.18-15.29-18.48-29.14-26.7-44.09-11.17-20.34-15.46-41.77-22.24-63.3-.9-2.87-3.1-6.6-6.3-8.1-1.85-.87-4.08-1.03-6.23-1.01-7.1.07-14.01,1.91-20.43,4.31-9.92,3.72-19.49,3.49-19.61,12.21-.1,6.95.92,5.26,5.57,19.49,2.32,7.1-.32,20.8-.27,28.14.17,22.63,1.62,45.25,4.36,67.78,1.76,14.47,4.19,29.3,12.91,42.07"/><path class="cls-17" d="m368.25,354.13c-2.23-11.46-4.45-22.92-6.68-34.38-.73-3.77-1.51-7.65-3.61-10.87-3.27-5-9.13-7.54-13.71-11.37-10.06-8.42-13.24-22.32-15.54-35.23-.83-4.64-3.06-10.52-7.77-10.27-3.28.18-5.44,3.45-6.67,6.49-4.25,10.51-3.87,22.8,1.03,33.03,1.11,2.31,2.28,5.47.28,7.08-1.29,1.04-3.16.69-4.78.34-11.79-2.56-24.67-2.02-35.17,3.92-2.39,1.35-4.91,4.23-3.33,6.48.51.72,1.34,1.15,1.95,1.79,3.25,3.43-1.83,8.71-1.59,13.42.21,4.09,4.41,6.91,5.37,10.9,1.66,6.92-6.81,14.82-2.36,20.38,2.23,2.79,7.24,3.88,7.09,7.44-.06,1.59-1.27,2.87-1.84,4.35-1.14,2.96.45,6.44,3,8.32,2.55,1.88,5.83,2.46,8.99,2.66,8.42.53,16.92-1.24,25.27-.03,8.35,1.21,17.1,6.78,17.85,15.18"/><path class="cls-11" d="m316.63,297.73c5.23-.41,10.65-.48,16.24-.2-3.51-1.93-6.62-2.45-9.23-2.13s-4.76,1.42-7.01,2.34Z"/><path class="cls-11" d="m315.78,377.96c6.45-1.91,13.18-2.91,19.91-2.94-3.55.43-7.03,1.27-10.51,2.11-3.75.91-7.5,1.82-9.4.82Z"/></g></svg>