<?xml version="1.0" encoding="UTF-8"?><svg id="Layer_26" xmlns="http://www.w3.org/2000/svg" xmlns:xlink="http://www.w3.org/1999/xlink" viewBox="0 0 476 710"><defs><style>.cls-1{stroke:#c9c9c9;stroke-width:6px;}.cls-1,.cls-2,.cls-3,.cls-4,.cls-5,.cls-6{fill:none;}.cls-1,.cls-3,.cls-4,.cls-5,.cls-6{stroke-linecap:round;}.cls-1,.cls-7,.cls-6{stroke-miterlimit:10;}.cls-8{fill:url(#linear-gradient);}.cls-2,.cls-3,.cls-4,.cls-5{stroke-linejoin:round;}.cls-2,.cls-7,.cls-5{stroke:#d9b7a0;}.cls-9,.cls-7,.cls-10{fill:#f5dccb;}.cls-3{stroke-width:11px;}.cls-3,.cls-6{stroke:#000;}.cls-11{clip-path:url(#clippath-1);}.cls-4{stroke:#ba9788;stroke-width:4px;}.cls-5{stroke-width:2px;}.cls-6{stroke-width:9px;}.cls-12,.cls-13,.cls-14,.cls-15,.cls-16,.cls-17,.cls-18,.cls-10,.cls-19,.cls-20{stroke-width:0px;}.cls-13{fill:#facfb9;}.cls-14{fill:#4a8c77;}.cls-15{fill:#d9b7a0;}.cls-16{fill:#d9d9d9;}.cls-17{fill:#a6a6a6;}.cls-18{fill:#ba9788;}.cls-19{fill:#039686;}.cls-20{fill:#00685e;}</style><linearGradient id="linear-gradient" x1="229.66" y1="212.3" x2="239.28" y2="323.04" gradientUnits="userSpaceOnUse"><stop offset="0" stop-color="#d9b7a0"/><stop offset="1" stop-color="#f5dccb"/></linearGradient><clipPath id="clippath-1"><path class="cls-10" d="m145.05,98.2c7.33,32.01,11.61,66.52,31.72,93.15,11.06,11.22,24.99,19.88,40.34,24.86,7.11,2.01,15.01,1.42,22-1.17,19.04-11.48,34.58-28.11,44.47-47.32,7.13-26.57,12.67-53.52,16.85-81.14-10.92-15.56-28.79-26.04-47.83-30.91-19.05-4.86-39.24-4.48-58.72-1.53-13.68,2.07-27.46,5.51-38.87,12.93-11.41,7.43-13.46,15.85-9.96,31.13Z"/></clipPath></defs><path class="cls-8" d="m277.63,174.7c-3.18,19.26-3.86,38.91-1.8,58.46,4.22,4.51,10.26,7.37,16.51,7.82-5.08,11.01-11.56,21.41-19.24,30.9-7.33,9.05-16.26,17.57-27.62,20.83-15.65,4.5-32.89-2.14-44.88-12.92-11.99-10.77-19.78-25.15-28.63-38.4,5.53-1.13,11.52-4.2,11.19-9.69-1.32-21.89-.63-30.46-2.97-46.38"/><path class="cls-15" d="m293.61,113.18c.7-1.73,1.43-3.49,2.7-4.87s3.24-2.31,5.1-1.87c2.69.63,3.93,3.66,4.27,6.33.91,7.03-1.49,14.17-5.28,20.23s-8.92,11.19-14.01,16.27"/><path class="cls-15" d="m150.41,122.71c-.95-1.61-1.94-3.25-3.41-4.43s-3.56-1.82-5.32-1.12c-2.56,1.01-3.33,4.18-3.27,6.87.17,7.09,3.62,13.8,8.29,19.24,4.67,5.44,10.52,9.78,16.32,14.07"/><path class="cls-9" d="m145.05,98.2c7.33,32.01,11.61,66.52,31.72,93.15,11.06,11.22,24.99,19.88,40.34,24.86,7.11,2.01,15.01,1.42,22-1.17,19.04-11.48,34.58-28.11,44.47-47.32,7.13-26.57,12.67-53.52,16.85-81.14-10.92-15.56-28.79-26.04-47.83-30.91-19.05-4.86-39.24-4.48-58.72-1.53-13.68,2.07-27.46,5.51-38.87,12.93-11.41,7.43-13.46,15.85-9.96,31.13Z"/><g class="cls-11"><ellipse class="cls-13" cx="269.83" cy="156.67" rx="18.24" ry="17.28"/><ellipse class="cls-13" cx="177.95" cy="165.56" rx="18.24" ry="17.28"/></g><ellipse class="cls-12" cx="188.36" cy="124.85" rx="8" ry="11.19"/><ellipse class="cls-12" cx="252.36" cy="120.95" rx="8" ry="11.19"/><path class="cls-10" d="m146.53,425.22c4.53,19.59,9.05,39.17,13.58,58.76.62,2.67,1.19,5.66-.29,8-1.39,2.19-4.14,3.09-6.68,3.78-27.27,7.4-56.24,8.81-84.14,4.1-3.29-16.57-6.58-33.15-9.87-49.72-.75-3.78-1.44-7.93.53-11.26,1.97-3.32,6-4.82,9.74-6.02,14.9-4.77,30.15-8.53,45.59-11.24,12.47-2.18,29.55-5.02,31.54,3.61Z"/><path class="cls-14" d="m208.73,462.44c-22.9-24.2-41.48-52.26-54.66-82.56-6.94,17.77,1.2,37.41,9.24,54.74,12.88,27.79,26.07,56.04,46.83,78.87"/><path class="cls-14" d="m106.18,282.01c15.42,15.97,30.65,34.04,33.57,55.77,1.84-26.8-14.95-53.89-33.57-55.77Z"/><path class="cls-14" d="m176.72,533.81c22.86,55.26,68.72,101.13,124.86,124.87-45.75-36.63-84.8-81.15-114.79-130.87,18.02,23.04,41.99,41.64,69.09,53.59-25.77-21.92-48.94-46.74-68.9-73.79"/><path class="cls-14" d="m259.4,526.18c21.85,39.06,51.8,73.8,87.51,101.53-29.29-34.82-58.58-69.64-87.51-101.53Z"/><path class="cls-14" d="m297.26,431.72c-13.52-44-35.66-85.47-64.89-121.53,25.48,58.11,50.97,116.22,76.45,174.33"/><path class="cls-12" d="m231.86,99.66c8.17-2.34,16.49-4.53,25-4.74,8.51-.22,17.34,1.71,24.02,6.84-3.8,2.13-8.54,1.03-12.86.27-10.68-1.88-21.82-1.22-32.18,1.91-1.63.49-3.47,1.03-4.98.26s-1.76-3.75,1-4.54Z"/><path class="cls-12" d="m205.38,100.98c-8.48-.73-17.08-1.27-25.47.16-8.39,1.42-16.65,5.01-22.16,11.33,4.16,1.36,8.58-.63,12.66-2.21,10.08-3.9,21.14-5.39,31.93-4.32,1.7.17,3.61.35,4.94-.7s.96-4.01-1.9-4.26Z"/><path class="cls-19" d="m173.95,241.37c18.79,16.76,37.59,33.52,56.85,49.55,18.54-17.3,38.67-32.99,59.2-45.78,24.84,7.8,44.28,28.11,54.35,51.55,10.07,23.44,11.54,49.7,8.38,74.91-3.16,25.21-10.76,49.67-18.25,74.05,3.61,70.71,17.5,140.91,38.99,208.5-8.21,14.46-27.02,19.03-43.77,21.72-79.23,12.73-163.47,14.85-238.23-17.05,21.85-118.34,43.78-238.84,25.49-357.53.06-.53.12-1.06.18-1.59"/><path class="cls-20" d="m266.61,451.14c-28.58-37.15-53.37-77.06-73.87-118.96,2.32,29.02,6.54,58.44,19.28,84.76,10.64,22,26.8,40.95,42.78,59.64,20.31,23.75,40.61,47.5,60.92,71.25-17.21-24.27-18.68-57.16-49.1-96.69Z"/><path class="cls-10" d="m387.86,438.52c-.67,29.16-1.34,58.32-2.01,87.48-.24,10.34-.8,21.66-6.62,29.05-6.54,8.31-17.35,8.66-26.93,7.64-44.3-4.68-119.08-44.84-159.46-67.02,8.71-26.42,26.53-56.53,58.87-54.48,10.19.65,42.47,24.79,49.74,27.05,6.16-8.84,2.51-22.99,6.4-33.6,2.65-7.22,8.6-11.97,14.88-14.12,6.29-2.16,12.97-2.07,19.54-1.98,8.2.12,16.51.26,24.46,2.93,7.95,2.66,15.64,8.19,21.12,17.05Z"/><path class="cls-15" d="m145.6,464.33c-25.27,11.94-48.59,27.76-68.84,46.71,12.06-19.95,30.02-36.48,51.16-47.09,3.1-1.55,6.32-3,9.78-3.41s7.22.37,7.9,3.79Z"/><path class="cls-15" d="m308.26,474.59c18.35,7.58,35.3,17.62,50,29.65-8.76-12.66-21.81-23.15-37.16-29.89-2.25-.99-4.59-1.91-7.11-2.16-2.51-.26-5.24.24-5.74,2.4Z"/><path class="cls-19" d="m334.86,295.54c-21.21,48.9-35.27,101.29-41.48,155.05,39.32,13.1,80.24,20.79,120.51,23.91-.39-44.62-4.12-89.2-11.12-133.2-3.26-20.47-7.52-41.52-19.07-58.26-11.39-16.51-28.98-27.25-47.36-33.38-18.38-6.13-37.73-8.07-57.01-12.54.14,0,.29,0,.49-.08l4.71,4.1"/><path class="cls-20" d="m310.09,385.86c-8.01-39.19,5.06-81.89,33.8-110.42-12.58,22.8-19.58,48.5-20.27,74.37,3.95-11.73,12.2-22.04,22.92-28.63-14.71,20.77-26.33,43.61-36.45,64.68Z"/><path class="cls-20" d="m135.35,564.1c47.12,59.92,120.61,98.32,196.71,102.78-69.63-27.86-135.3-65.6-196.71-102.78Z"/><path class="cls-20" d="m191.19,490.44c15.81,42.52,50.55,77.59,92.91,93.81-29.48-26.01-53.43-58.26-92.91-93.81Z"/><path class="cls-20" d="m299.33,425.23c2.09-16.18,12.59-30.43,25.56-40.75,12.97-10.32,28.37-17.25,43.49-24.3-25.17,21.55-49.7,43.79-69.05,65.05Z"/><path class="cls-20" d="m321.71,443.87c25.89-8.81,50.71-20.62,73.75-35.11-16.57,24.35-47.71,38.52-73.75,35.11Z"/><path class="cls-14" d="m309.74,370.64c-4.03,19.03-8.06,38.06-12.1,57.08,6.91-21.02,13.83-42.03,12.1-57.08Z"/><path class="cls-10" d="m266.06,431.4c-5.81-.23-14.89-2.95-31.93.62-45.21,12.85-88.89,30.71-129.78,53.35l-44.17-37.02c-1.13,32.66,1.86,65.45,8.6,97.7,9.95,16.09,28.19,27.11,47.94,29.82,23.22-6.42,43.85-19.33,64.09-32.07,44-27.69,87.99-55.37,133.55-81.6.25-1.28.41-2.57.5-3.87-7.83-7.95-14.2-15.79-24.98-19.85,0,0-11.89-5.25-23.81-7.08Z"/><path class="cls-5" d="m227.92,514.44c24.72-16.75,53.64-29.03,81.73-39.47l.02-.19"/><path class="cls-19" d="m124.35,297.71c21.21,49.9,35.27,103.36,41.48,158.22-39.32,13.37-80.24,21.21-120.51,24.4.39-45.53,4.12-91.03,11.12-135.93,3.26-20.88,7.52-42.37,19.07-59.45,11.39-16.85,28.98-27.81,47.36-34.07,18.38-6.26,37.73-8.23,57.01-12.8-.14,0-.29,0-.49-.08-1.57,1.4-3.14,2.79-4.71,4.19"/><path class="cls-20" d="m132.49,429.08c-6.71-10.79-13.48-21.66-22.21-30.98-8.73-9.32-19.67-17.1-32.25-20.15,20.01,23.84,38.85,48.61,54.46,51.13Z"/><path class="cls-20" d="m141.92,452.76c11.07-56.69,8.4-115.88-7.73-171.4,1.03,32.63,2.06,65.26,3.09,97.88-6.67-11.37-14.92-21.86-24.46-31.09,17.2,36.98,26.26,77.52,29.1,104.61Z"/><path class="cls-6" d="m179.27,232.92c-41.09,53.83-37.39,102.17-28.88,152"/><circle class="cls-17" cx="156.52" cy="403.03" r="29"/><circle class="cls-16" cx="156.52" cy="403.03" r="18.34"/><path class="cls-10" d="m179.49,416.68c-9.51-9.45-22.71-16.03-37.01-18.46-14.3-2.43-29.6-.68-42.89,4.89-1.84.77-3.84,1.83-4.3,3.55-.81,3.05,3.61,4.94,7.16,5.34,8.62.97,17.45-.02,26.11.65,8.67.67,17.78,3.46,22.28,9.84"/><path class="cls-10" d="m173.59,432.48c-9.51-9.45-22.71-16.03-37.01-18.46-14.3-2.43-29.6-.68-42.89,4.89-1.84.77-3.84,1.83-4.3,3.55-.81,3.05,3.61,4.94,7.16,5.34,8.62.97,17.45-.02,26.11.65,8.67.67,17.78,3.46,22.28,9.84"/><path class="cls-10" d="m174.79,440.93c-10.73-8.4-24.76-13.6-39.33-14.58-14.56-.97-29.57,2.29-42.06,9.15-1.73.95-3.58,2.19-3.8,3.95-.39,3.11,4.26,4.54,7.85,4.57,8.72.09,17.37-1.77,26.1-1.97,8.72-.2,18.17,1.64,23.5,7.51"/><path class="cls-10" d="m175.71,451.16c-11.92-7.12-26.64-10.7-41.27-10.05-14.63.66-29.08,5.55-40.49,13.72-1.58,1.13-3.24,2.57-3.2,4.32.07,3.11,4.9,4.01,8.48,3.65,8.69-.88,17.02-3.67,25.67-4.85,8.65-1.17,18.32-.4,24.49,4.82"/><path class="cls-10" d="m178.05,415.55c11.28,12.19,22.55,24.39,33.83,36.58,1.6,1.73,3.26,3.59,3.42,5.79.24,3.3-2.91,6.14-5.92,8.41-6.76,5.1-14.04,9.71-21.48,14.1-5.09,3-10.43,5.97-16.45,7.19-6.03,1.22-12.96.36-16.94-3.4-6.24-5.89-2.72-15.35-5.42-22.92-2.53-7.11-10.69-12.91-9.59-20.37.52-3.51,3.08-6.62,5.56-9.56,7.26-8.62,16.33-18.14,33.01-15.82Z"/><path class="cls-7" d="m150.25,448.08c-7.74-5.59-16.81-7.74-25.5-6.05"/><path class="cls-7" d="m154.44,430.78c-10.8-4.95-23.18-6.36-34.82-3.96"/><path class="cls-7" d="m157.25,419.08c-8.88-5.59-19.29-7.74-29.25-6.05"/><path class="cls-2" d="m144.68,464.61c21.6-10.96,34.12-16.4,57.28-23.33"/><path class="cls-2" d="m313.66,457.01c-.82,6.8-1.54,12.67-5.41,18.38.32.11.65.22.97.34"/><path class="cls-19" d="m297.35,103.49c-21.95-17.9-52.88-18.08-80.15-15.61-27.26,2.47-50.62,7.56-68.54,29.14-9.08-19.12-9.55-42.87-1.24-62.4,8.32-19.53,25.23-34.39,44.61-38.12-.11,0-.22,0-.46-.19,10.39-8.95,25.05-11.53,37.21-7.23,22.4-3.85,46.37,6.5,60.36,26.06,13.99,19.56,17.45,47.55,8.21,68.35Z"/><path class="cls-20" d="m195.4,20.79c-5.44,11.48-7.6,24.42-6.17,36.99-2.01-9.56-4.02-19.49-1.65-28.96.54-2.16,1.34-4.32,2.84-5.99s3.84-2.77,4.98-2.03Z"/><path class="cls-20" d="m228.49,12.72c6.86,7.04,11.5,16.09,13.16,25.65,2-5.49,1.43-11.81-1.52-16.87s-8.23-8.79-11.64-8.78Z"/><path class="cls-18" d="m226.02,158.75c-2.98-12.95-4.72-26.17-5.19-39.43-3.19,9.9-3.91,20.55-2.09,30.77.71,3.98,2.62,8.66,7.28,8.66Z"/><path class="cls-4" d="m205.16,175.2c14.83,2.44,30.32,1.07,44.22-4.3"/><path class="cls-1" d="m316.75,340.55c-3.83,19.69-13.92,38.11-28.45,51.94-14.53,13.83-33.43,23-53.28,25.85"/><path class="cls-1" d="m278.95,326.23c-14.86,36.94-5.52,82.35,22.7,110.43"/><path class="cls-3" d="m276.13,333.04c1.69-6.72,3.46-13.58,7.37-19.3s10.46-10.13,17.36-9.57c8.06.66,14.33,8,16.24,15.86s.36,16.11-1.56,23.97"/><path class="cls-6" d="m279.7,231.04c18.19,19.9,27.2,47.92,24.03,74.74"/><ellipse class="cls-12" cx="233.58" cy="418.46" rx="5.25" ry="3.5"/><ellipse class="cls-12" cx="303.08" cy="437.96" rx="3.5" ry="5.25" transform="translate(-227.1 488.75) rotate(-60.79)"/></svg>