<svg xmlns="http://www.w3.org/2000/svg" xmlns:xlink="http://www.w3.org/1999/xlink" width="1080" zoomAndPan="magnify" viewBox="0 0 810 809.999993" height="1080" preserveAspectRatio="xMidYMid meet" version="1.0"><path fill="#58b704" d="M 637.242188 676.273438 C 632.097656 678.035156 585.691406 694.066406 576.289062 697.308594 C 576.289062 697.308594 576.023438 697.398438 575.53125 697.5625 C 575.035156 697.726562 574.769531 697.828125 574.769531 697.828125 C 565.34375 701.011719 518.824219 716.722656 513.679688 718.472656 C 508 720.410156 502.273438 716.027344 496.179688 702.796875 C 490.070312 689.566406 490.019531 681.660156 484.050781 665.730469 C 478.082031 649.8125 427.574219 514.914062 418.132812 478 C 408.691406 441.074219 428.839844 428.921875 427.371094 423.078125 C 425.902344 417.238281 416.992188 388.066406 403.054688 341.050781 C 395.464844 315.453125 389.582031 287.535156 385.808594 267.425781 C 384.402344 275.863281 382.816406 284.417969 381.042969 292.742188 C 370.816406 340.695312 364.203125 370.476562 363.199219 376.417969 C 362.199219 382.351562 383.222656 392.90625 376.695312 430.453125 C 370.171875 468.003906 330.34375 606.421875 325.640625 622.757812 C 320.941406 639.09375 321.496094 646.988281 316.441406 660.648438 C 311.386719 674.320312 306.023438 679.136719 300.207031 677.640625 C 294.949219 676.296875 247.355469 664.261719 237.699219 661.828125 C 237.699219 661.828125 237.417969 661.75 236.914062 661.625 C 236.40625 661.496094 236.128906 661.421875 236.128906 661.421875 C 226.496094 658.914062 178.976562 646.554688 173.71875 645.199219 C 167.902344 643.707031 165.519531 636.898438 167.671875 622.492188 C 169.828125 608.070312 174.109375 601.429688 177.835938 584.84375 C 181.574219 568.253906 213.265625 427.753906 225.609375 391.691406 C 237.953125 355.636719 261.472656 356.5 263.433594 350.820312 C 265.410156 345.132812 273.953125 315.84375 288.054688 268.882812 C 300.347656 227.976562 319.546875 184.546875 324.285156 174.015625 C 324.867188 172.722656 324.804688 171.203125 324.042969 170 C 322.75 167.972656 321.191406 163.964844 322.828125 157.578125 C 324.359375 151.625 326.820312 148.011719 328.519531 146.097656 C 329.113281 145.425781 329.289062 144.539062 329.050781 143.742188 C 328.582031 142.15625 328.316406 140.535156 328.367188 138.886719 C 328.390625 137.785156 328.554688 136.695312 328.820312 135.617188 L 329.378906 133.425781 C 330.292969 129.867188 333.914062 127.722656 337.464844 128.636719 L 370.5 137.101562 L 372.148438 137.519531 L 405.183594 145.984375 C 408.742188 146.898438 410.882812 150.519531 409.972656 154.070312 L 409.414062 156.261719 C 409.136719 157.328125 408.742188 158.367188 408.25 159.339844 C 407.5 160.8125 406.476562 162.105469 405.308594 163.269531 C 404.726562 163.851562 404.449219 164.714844 404.648438 165.589844 C 405.21875 168.085938 405.636719 172.433594 404.105469 178.386719 C 403.332031 181.378906 402.203125 183.570312 401 185.179688 L 401.394531 185.039062 L 433.667969 174.015625 C 437.140625 172.824219 440.917969 174.6875 442.109375 178.160156 L 442.84375 180.300781 C 443.199219 181.339844 443.4375 182.417969 443.554688 183.519531 C 443.730469 185.15625 443.589844 186.800781 443.25 188.425781 C 443.082031 189.234375 443.324219 190.109375 443.972656 190.730469 C 445.820312 192.503906 448.546875 195.914062 450.535156 201.730469 C 452.664062 207.964844 451.421875 212.082031 450.292969 214.199219 C 449.621094 215.453125 449.671875 216.976562 450.371094 218.21875 C 455.921875 228.34375 478.449219 270.148438 493.898438 309.964844 C 511.625 355.675781 522.421875 384.210938 524.84375 389.726562 C 527.25 395.238281 550.628906 392.539062 565.746094 427.527344 C 580.863281 462.515625 623.429688 600.113281 628.449219 616.359375 C 633.464844 632.605469 638.257812 638.890625 641.523438 653.09375 C 644.769531 667.363281 642.917969 674.335938 637.242188 676.273438 Z M 637.242188 676.273438 " fill-opacity="1" fill-rule="nonzero"/><path fill="#4a8e00" d="M 426.976562 191.628906 C 426.34375 189.539062 436.75 187.789062 443.539062 183.53125 C 443.539062 183.546875 443.539062 183.570312 443.554688 183.582031 C 443.730469 185.21875 443.589844 186.867188 443.25 188.488281 C 443.210938 188.664062 443.199219 188.855469 443.199219 189.046875 C 443.199219 189.160156 443.222656 189.273438 443.234375 189.386719 C 443.25 189.449219 443.25 189.515625 443.261719 189.566406 C 443.300781 189.71875 443.351562 189.855469 443.414062 189.996094 C 443.425781 190.007812 443.425781 190.019531 443.4375 190.035156 C 443.515625 190.1875 443.605469 190.339844 443.71875 190.476562 C 435.734375 191.148438 427.613281 193.746094 426.976562 191.628906 Z M 453.765625 224.605469 C 453.058594 223.285156 452.421875 222.09375 451.851562 221.054688 C 451.828125 221.019531 451.800781 220.96875 451.789062 220.929688 C 451.546875 220.472656 451.320312 220.054688 451.105469 219.660156 C 451.066406 219.597656 451.027344 219.511719 450.992188 219.445312 C 450.761719 219.015625 450.546875 218.621094 450.34375 218.28125 C 449.660156 217.027344 449.597656 215.519531 450.269531 214.261719 C 450.394531 214.035156 450.507812 213.769531 450.636719 213.492188 C 450.6875 213.363281 450.738281 213.238281 450.789062 213.109375 C 450.851562 212.945312 450.914062 212.78125 450.980469 212.601562 C 451.042969 212.425781 451.09375 212.234375 451.15625 212.046875 C 451.207031 211.894531 451.246094 211.714844 451.28125 211.550781 C 451.332031 211.335938 451.398438 211.121094 451.433594 210.878906 C 448.570312 212.4375 445.683594 213.503906 444.074219 214.328125 C 441.511719 215.632812 446.605469 217.570312 453.765625 224.605469 Z M 556.636719 412.144531 C 557.308594 412.890625 557.941406 413.675781 558.589844 414.449219 C 558.15625 413.816406 557.726562 413.207031 557.296875 412.613281 C 557.257812 412.5625 557.21875 412.511719 557.179688 412.460938 C 556.75 411.875 556.308594 411.304688 555.875 410.75 C 555.863281 410.722656 555.839844 410.710938 555.824219 410.683594 C 544.75 396.769531 532.6875 394.566406 527.390625 391.957031 C 527.363281 391.941406 527.351562 391.929688 527.328125 391.917969 C 527.109375 391.816406 526.910156 391.703125 526.71875 391.601562 C 526.65625 391.5625 526.589844 391.523438 526.527344 391.488281 C 526.390625 391.398438 526.25 391.308594 526.121094 391.21875 C 526.058594 391.171875 525.996094 391.132812 525.933594 391.082031 C 525.820312 390.992188 525.71875 390.917969 525.617188 390.828125 C 525.566406 390.777344 525.5 390.726562 525.449219 390.675781 C 525.351562 390.585938 525.273438 390.484375 525.199219 390.382812 C 525.160156 390.332031 525.121094 390.296875 525.082031 390.246094 C 524.980469 390.09375 524.882812 389.941406 524.816406 389.789062 C 524.742188 389.625 524.664062 389.433594 524.578125 389.21875 C 524.539062 389.128906 524.5 389.027344 524.460938 388.941406 C 524.410156 388.800781 524.347656 388.671875 524.296875 388.535156 C 524.246094 388.433594 524.210938 388.304688 524.160156 388.191406 C 524.09375 388.027344 524.03125 387.875 523.957031 387.699219 C 523.90625 387.570312 523.84375 387.417969 523.792969 387.28125 C 523.726562 387.113281 523.652344 386.949219 523.589844 386.773438 C 523.511719 386.59375 523.4375 386.40625 523.371094 386.214844 C 523.308594 386.050781 523.234375 385.886719 523.171875 385.695312 C 523.09375 385.492188 523.003906 385.289062 522.929688 385.074219 C 522.851562 384.882812 522.777344 384.707031 522.703125 384.515625 C 522.613281 384.289062 522.523438 384.0625 522.421875 383.820312 C 522.347656 383.617188 522.257812 383.414062 522.183594 383.199219 C 522.09375 382.972656 521.992188 382.730469 521.902344 382.488281 C 521.800781 382.234375 521.699219 381.984375 521.597656 381.730469 C 521.496094 381.476562 521.394531 381.222656 521.292969 380.957031 C 521.195312 380.714844 521.105469 380.460938 521.003906 380.207031 C 520.902344 379.953125 520.800781 379.703125 520.699219 379.433594 C 520.574219 379.105469 520.445312 378.777344 520.304688 378.433594 C 520.203125 378.167969 520.089844 377.890625 519.988281 377.609375 C 519.902344 377.371094 519.800781 377.117188 519.699219 376.863281 C 519.535156 376.457031 519.382812 376.039062 519.214844 375.609375 C 519.152344 375.457031 519.101562 375.304688 519.039062 375.164062 C 518.847656 374.683594 518.660156 374.1875 518.46875 373.683594 C 518.394531 373.492188 518.316406 373.300781 518.253906 373.113281 C 518.0625 372.605469 517.859375 372.097656 517.65625 371.578125 C 517.621094 371.464844 517.570312 371.351562 517.519531 371.234375 C 517.011719 369.917969 516.480469 368.535156 515.921875 367.09375 C 516.667969 385.734375 509.421875 393.070312 509.8125 394.578125 C 511.03125 399.253906 535.410156 388.433594 556.636719 412.144531 Z M 468.59375 516.144531 L 491.984375 584.613281 C 501.957031 613.824219 533.726562 629.421875 562.933594 619.4375 C 592.144531 609.464844 607.742188 577.695312 597.757812 548.484375 L 574.363281 480.015625 C 564.390625 450.804688 532.625 435.207031 503.414062 445.191406 C 474.207031 455.164062 458.605469 486.933594 468.59375 516.144531 Z M 405.132812 169.414062 C 405.117188 169.136719 405.09375 168.882812 405.082031 168.628906 C 405.070312 168.476562 405.054688 168.324219 405.042969 168.175781 C 405.019531 167.945312 404.992188 167.730469 404.96875 167.527344 C 404.941406 167.351562 404.917969 167.171875 404.890625 166.996094 C 404.867188 166.84375 404.839844 166.679688 404.816406 166.539062 C 404.765625 166.222656 404.699219 165.917969 404.636719 165.652344 C 404.433594 164.777344 404.714844 163.917969 405.296875 163.332031 C 406.460938 162.167969 407.488281 160.875 408.238281 159.40625 C 408.742188 158.429688 409.136719 157.390625 409.402344 156.324219 L 409.960938 154.132812 C 403.6875 162.472656 383.640625 152.09375 382.726562 155.132812 C 381.855469 158.1875 399.300781 161.570312 405.132812 169.414062 Z M 385.273438 190.628906 L 399.785156 185.675781 L 401 185.257812 C 401.457031 184.648438 401.902344 183.949219 402.332031 183.152344 C 396.769531 186.320312 388.253906 183.902344 384.617188 183.507812 C 382.539062 183.265625 383.679688 185.558594 385.273438 190.628906 Z M 640.867188 673.6875 C 639.496094 679.480469 612.683594 692.835938 578.445312 704.582031 C 545.484375 715.898438 517.011719 721.792969 510.816406 718.890625 C 506.0625 718.6875 501.246094 713.820312 496.167969 702.796875 C 490.058594 689.566406 490.007812 681.660156 484.039062 665.730469 C 483.355469 663.90625 482.074219 660.507812 480.351562 655.882812 C 480.289062 655.707031 480.210938 655.515625 480.148438 655.339844 C 480.011719 654.957031 479.859375 654.566406 479.707031 654.160156 C 478.78125 651.6875 477.753906 648.925781 476.625 645.898438 C 476.511719 645.605469 476.410156 645.300781 476.296875 645.011719 C 476.132812 644.554688 475.953125 644.109375 475.789062 643.640625 C 475.625 643.1875 475.449219 642.730469 475.269531 642.261719 C 475.144531 641.917969 475.015625 641.578125 474.890625 641.234375 C 474.738281 640.828125 474.585938 640.410156 474.433594 639.992188 C 474.179688 639.320312 473.941406 638.648438 473.6875 637.964844 C 473.636719 637.839844 473.597656 637.710938 473.546875 637.585938 C 473.320312 636.949219 473.078125 636.316406 472.835938 635.671875 C 472.699219 635.289062 472.558594 634.910156 472.40625 634.519531 C 472.242188 634.0625 472.066406 633.59375 471.886719 633.125 C 471.722656 632.667969 471.546875 632.210938 471.378906 631.742188 C 470.671875 629.828125 469.9375 627.851562 469.199219 625.824219 C 469.164062 625.722656 469.125 625.621094 469.085938 625.519531 C 468.730469 624.570312 468.390625 623.621094 468.035156 622.65625 C 467.996094 622.554688 467.957031 622.441406 467.921875 622.328125 C 467.589844 621.453125 467.273438 620.566406 466.945312 619.664062 C 466.84375 619.386719 466.730469 619.09375 466.628906 618.804688 C 466.324219 617.96875 466.007812 617.117188 465.691406 616.257812 C 465.613281 616.066406 465.550781 615.863281 465.476562 615.675781 C 465.144531 614.761719 464.804688 613.835938 464.460938 612.910156 C 464.386719 612.707031 464.320312 612.519531 464.246094 612.316406 C 463.902344 611.390625 463.5625 610.464844 463.21875 609.527344 C 463.144531 609.3125 463.066406 609.097656 462.980469 608.882812 C 462.613281 607.867188 462.230469 606.839844 461.851562 605.800781 C 461.8125 605.6875 461.773438 605.585938 461.738281 605.484375 C 460.886719 603.179688 460.039062 600.820312 459.175781 598.453125 C 459.113281 598.261719 459.039062 598.070312 458.972656 597.894531 C 458.621094 596.929688 458.277344 595.96875 457.921875 594.992188 C 457.808594 594.6875 457.707031 594.398438 457.59375 594.09375 C 457.277344 593.207031 456.945312 592.320312 456.628906 591.433594 C 456.503906 591.089844 456.375 590.746094 456.25 590.40625 C 455.945312 589.570312 455.640625 588.71875 455.324219 587.871094 C 455.199219 587.515625 455.070312 587.175781 454.945312 586.820312 C 454.628906 585.945312 454.3125 585.082031 453.996094 584.207031 C 453.867188 583.867188 453.742188 583.511719 453.613281 583.167969 C 453.257812 582.179688 452.90625 581.191406 452.550781 580.203125 C 452.472656 580.015625 452.410156 579.8125 452.335938 579.621094 C 451.015625 575.957031 449.6875 572.257812 448.355469 568.570312 C 448.253906 568.28125 448.152344 568 448.050781 567.710938 C 447.710938 566.757812 447.367188 565.808594 447.039062 564.859375 C 446.9375 564.589844 446.847656 564.3125 446.746094 564.046875 C 446.402344 563.082031 446.0625 562.121094 445.71875 561.171875 C 445.605469 560.851562 445.503906 560.550781 445.390625 560.230469 C 445.074219 559.359375 444.769531 558.484375 444.464844 557.609375 C 444.339844 557.242188 444.199219 556.875 444.074219 556.507812 C 443.753906 555.605469 443.425781 554.695312 443.109375 553.792969 C 443.007812 553.503906 442.894531 553.199219 442.792969 552.90625 C 442.414062 551.855469 442.046875 550.792969 441.675781 549.738281 C 441.625 549.601562 441.574219 549.460938 441.527344 549.320312 C 440.664062 546.886719 439.816406 544.46875 438.976562 542.074219 C 438.902344 541.871094 438.839844 541.679688 438.761719 541.476562 C 438.421875 540.515625 438.089844 539.539062 437.75 538.589844 C 437.636719 538.269531 437.535156 537.96875 437.417969 537.648438 C 437.117188 536.789062 436.824219 535.9375 436.53125 535.089844 C 436.417969 534.75 436.292969 534.417969 436.179688 534.078125 C 435.898438 533.289062 435.632812 532.492188 435.355469 531.707031 C 435.214844 531.3125 435.074219 530.921875 434.949219 530.527344 C 434.695312 529.78125 434.429688 529.046875 434.175781 528.296875 C 434.050781 527.917969 433.910156 527.523438 433.78125 527.144531 C 433.492188 526.320312 433.210938 525.496094 432.933594 524.671875 C 432.84375 524.40625 432.757812 524.140625 432.65625 523.875 C 432.339844 522.9375 432.007812 522 431.691406 521.0625 C 431.640625 520.898438 431.578125 520.71875 431.515625 520.554688 C 431.148438 519.453125 430.765625 518.375 430.414062 517.296875 C 430.375 517.195312 430.347656 517.09375 430.3125 516.996094 C 429.992188 516.042969 429.675781 515.105469 429.359375 514.179688 C 429.257812 513.890625 429.171875 513.597656 429.070312 513.304688 C 428.828125 512.570312 428.574219 511.835938 428.335938 511.125 C 428.21875 510.785156 428.105469 510.441406 427.992188 510.085938 C 427.777344 509.429688 427.546875 508.769531 427.332031 508.125 C 427.21875 507.769531 427.105469 507.414062 426.976562 507.058594 C 426.761719 506.425781 426.558594 505.792969 426.355469 505.171875 C 426.242188 504.828125 426.128906 504.488281 426.015625 504.144531 C 425.8125 503.535156 425.621094 502.941406 425.433594 502.332031 C 425.316406 501.976562 425.203125 501.621094 425.089844 501.28125 C 424.886719 500.671875 424.695312 500.078125 424.507812 499.480469 C 424.40625 499.175781 424.304688 498.871094 424.214844 498.570312 C 423.976562 497.820312 423.746094 497.085938 423.519531 496.363281 C 423.46875 496.222656 423.429688 496.070312 423.378906 495.933594 C 423.113281 495.070312 422.847656 494.234375 422.582031 493.410156 C 422.515625 493.195312 422.441406 492.980469 422.378906 492.765625 C 422.1875 492.15625 421.996094 491.546875 421.820312 490.964844 C 421.746094 490.699219 421.65625 490.445312 421.578125 490.179688 C 421.414062 489.660156 421.261719 489.140625 421.109375 488.644531 C 421.023438 488.355469 420.933594 488.0625 420.84375 487.785156 C 420.707031 487.328125 420.566406 486.871094 420.4375 486.429688 C 420.351562 486.136719 420.273438 485.859375 420.1875 485.578125 C 420.058594 485.148438 419.933594 484.730469 419.820312 484.3125 C 419.742188 484.035156 419.652344 483.753906 419.578125 483.476562 C 419.464844 483.070312 419.347656 482.691406 419.25 482.296875 C 419.171875 482.03125 419.097656 481.765625 419.03125 481.511719 C 418.917969 481.09375 418.804688 480.699219 418.703125 480.296875 C 418.652344 480.09375 418.589844 479.875 418.539062 479.675781 C 418.386719 479.089844 418.234375 478.519531 418.09375 477.964844 C 417.777344 476.722656 417.5 475.515625 417.246094 474.339844 C 417.195312 474.109375 417.15625 473.894531 417.121094 473.679688 C 416.917969 472.703125 416.738281 471.726562 416.574219 470.789062 C 416.550781 470.640625 416.523438 470.5 416.511719 470.347656 C 416.347656 469.320312 416.207031 468.320312 416.082031 467.34375 C 416.066406 467.292969 416.066406 467.230469 416.066406 467.179688 C 415.941406 466.113281 415.839844 465.074219 415.761719 464.0625 C 413.824219 437.828125 428.601562 428.085938 427.332031 423.054688 C 425.863281 417.210938 416.953125 388.039062 403.015625 341.027344 C 399.1875 328.113281 395.792969 314.617188 392.890625 301.816406 C 392.789062 301.398438 392.699219 300.96875 392.597656 300.550781 C 392.371094 299.546875 392.15625 298.546875 391.925781 297.558594 C 391.839844 297.128906 391.738281 296.710938 391.648438 296.277344 C 391.507812 295.644531 391.371094 295.023438 391.230469 294.390625 C 391.15625 294.035156 391.078125 293.667969 391.003906 293.3125 C 390.738281 292.109375 390.484375 290.90625 390.230469 289.714844 C 390.179688 289.472656 390.128906 289.222656 390.078125 288.980469 C 389.9375 288.296875 389.785156 287.625 389.648438 286.953125 C 389.597656 286.671875 389.53125 286.40625 389.480469 286.140625 C 389.039062 284.011719 388.609375 281.921875 388.203125 279.867188 C 388.152344 279.613281 388.101562 279.363281 388.050781 279.109375 C 387.644531 277.054688 387.238281 275.054688 386.871094 273.101562 C 386.832031 272.886719 386.796875 272.683594 386.746094 272.46875 C 386.632812 271.847656 386.503906 271.238281 386.390625 270.628906 C 386.351562 270.453125 386.328125 270.277344 386.289062 270.085938 C 386.074219 268.945312 385.859375 267.816406 385.65625 266.714844 C 385.65625 266.6875 385.640625 266.664062 385.640625 266.636719 C 385.691406 266.890625 385.730469 267.144531 385.78125 267.398438 C 384.375 275.839844 382.792969 284.394531 381.015625 292.71875 C 370.792969 340.671875 364.175781 370.449219 363.175781 376.394531 C 362.175781 382.324219 383.195312 392.882812 376.671875 430.429688 C 370.144531 467.976562 330.316406 606.398438 325.617188 622.734375 C 320.914062 639.066406 321.472656 646.960938 316.417969 660.625 C 312.09375 672.308594 307.546875 677.503906 302.691406 677.84375 C 293.9375 680.023438 266.933594 676.527344 235.707031 668.796875 C 201.113281 660.230469 173.527344 649.472656 170.742188 643.71875 C 167.140625 640.804688 165.914062 634.125 167.648438 622.480469 C 169.800781 608.058594 174.085938 601.417969 177.8125 584.828125 C 178.179688 583.183594 179.382812 579.546875 180.980469 574.730469 L 180.128906 574.578125 C 187.199219 543.390625 206.703125 458.296875 219.261719 412.839844 C 219.273438 412.789062 219.285156 412.75 219.300781 412.699219 C 219.488281 412.015625 219.679688 411.34375 219.855469 410.671875 C 219.894531 410.535156 219.933594 410.394531 219.96875 410.265625 C 220.136719 409.683594 220.300781 409.101562 220.464844 408.53125 C 220.527344 408.316406 220.589844 408.101562 220.640625 407.886719 C 220.792969 407.351562 220.933594 406.832031 221.085938 406.328125 C 221.148438 406.109375 221.210938 405.882812 221.277344 405.667969 C 221.414062 405.171875 221.554688 404.691406 221.695312 404.210938 C 221.769531 403.957031 221.832031 403.714844 221.910156 403.460938 C 222.035156 403.019531 222.164062 402.585938 222.289062 402.15625 C 222.367188 401.890625 222.441406 401.636719 222.515625 401.371094 C 222.632812 400.976562 222.746094 400.585938 222.871094 400.207031 C 222.960938 399.914062 223.035156 399.636719 223.125 399.355469 C 223.238281 399 223.339844 398.648438 223.441406 398.304688 C 223.53125 398.011719 223.621094 397.734375 223.707031 397.457031 C 223.808594 397.140625 223.910156 396.820312 224 396.519531 C 224.101562 396.199219 224.203125 395.882812 224.292969 395.578125 C 224.367188 395.328125 224.457031 395.058594 224.53125 394.820312 C 224.644531 394.464844 224.761719 394.136719 224.863281 393.804688 C 224.925781 393.601562 224.988281 393.402344 225.050781 393.210938 C 225.230469 392.691406 225.394531 392.195312 225.558594 391.714844 C 225.976562 390.511719 226.394531 389.34375 226.839844 388.21875 C 226.925781 388.003906 227.015625 387.800781 227.09375 387.582031 C 227.460938 386.660156 227.839844 385.746094 228.21875 384.871094 C 228.285156 384.734375 228.347656 384.605469 228.410156 384.464844 C 228.828125 383.515625 229.257812 382.605469 229.703125 381.714844 C 229.726562 381.664062 229.753906 381.628906 229.777344 381.578125 C 230.261719 380.613281 230.742188 379.6875 231.234375 378.800781 C 243.996094 355.800781 261.699219 355.75 263.398438 350.847656 C 265.375 345.15625 273.914062 315.871094 288.019531 268.90625 C 291.894531 256.007812 296.457031 242.851562 301.03125 230.558594 C 301.539062 229.191406 302.046875 227.847656 302.554688 226.503906 C 302.65625 226.25 302.742188 226 302.84375 225.746094 C 303.402344 224.289062 303.945312 222.84375 304.503906 221.421875 C 304.582031 221.207031 304.667969 221.003906 304.746094 220.789062 C 305.316406 219.320312 305.875 217.875 306.429688 216.441406 C 306.519531 216.226562 306.609375 216 306.683594 215.785156 C 307.253906 214.328125 307.835938 212.882812 308.394531 211.464844 C 308.445312 211.335938 308.496094 211.210938 308.546875 211.082031 C 309.117188 209.675781 309.675781 208.28125 310.21875 206.914062 C 310.269531 206.785156 310.320312 206.660156 310.371094 206.535156 C 310.917969 205.175781 311.460938 203.847656 311.992188 202.542969 C 312.042969 202.425781 312.082031 202.3125 312.132812 202.199219 C 312.664062 200.894531 313.199219 199.613281 313.71875 198.359375 C 313.753906 198.269531 313.792969 198.195312 313.816406 198.105469 C 314.351562 196.8125 314.882812 195.558594 315.390625 194.34375 C 315.390625 194.328125 315.390625 194.328125 315.402344 194.316406 C 319.433594 184.75 322.636719 177.527344 324.234375 174.003906 C 324.816406 172.710938 324.753906 171.191406 323.992188 169.984375 C 323.132812 168.644531 322.15625 166.414062 322.082031 163.207031 C 324.144531 166.617188 329.277344 169.898438 334.421875 171.214844 C 340.492188 172.773438 349.210938 174.664062 348.324219 176.828125 C 347.425781 178.984375 327.328125 173.789062 322.753906 185.902344 C 319.621094 194.191406 317.011719 195.710938 310.15625 212.871094 C 298.003906 252.40625 274.699219 329.683594 278.414062 340 C 283.203125 353.265625 296.710938 355.21875 296.9375 358.792969 C 297.167969 362.367188 290.527344 359.464844 273.179688 360.628906 C 253.285156 361.972656 241.019531 370.691406 227.953125 396.960938 C 211.238281 443.039062 185.492188 575.503906 185.492188 575.503906 L 185.3125 575.476562 C 183.765625 589.253906 184.527344 598.324219 189.886719 609.84375 C 198.414062 628.144531 212.328125 636.609375 240.753906 643.894531 C 269.175781 651.183594 288.359375 652.929688 308.484375 631.453125 C 328.605469 609.972656 344.625 549.6875 355.089844 512.179688 C 365.558594 474.679688 375.023438 442.0625 370.273438 410.597656 C 365.519531 379.132812 325.769531 370.957031 327.300781 366.359375 C 327.847656 364.722656 356.75 366.992188 363.515625 344.636719 C 368.941406 326.707031 376.746094 284.039062 382.84375 251.191406 C 382.816406 251.039062 382.792969 250.875 382.765625 250.734375 C 382.726562 250.507812 382.691406 250.277344 382.652344 250.050781 C 382.574219 249.605469 382.5 249.1875 382.4375 248.769531 C 382.410156 248.605469 382.386719 248.453125 382.359375 248.289062 C 382.171875 247.160156 382.003906 246.121094 381.855469 245.183594 C 381.839844 245.109375 381.828125 245.03125 381.816406 244.957031 C 381.613281 243.726562 381.449219 242.664062 381.308594 241.8125 C 381.09375 240.40625 380.207031 239.175781 378.902344 238.59375 C 377.445312 237.933594 375.417969 236.605469 373.589844 233.96875 C 377.191406 235.691406 383.273438 235.628906 388.304688 233.90625 C 394.234375 231.878906 402.570312 228.683594 403.003906 230.976562 C 403.207031 232.015625 399.238281 233.96875 395.121094 236.984375 L 396.78125 236.324219 C 396.78125 236.324219 389.164062 253.625 421.78125 343.925781 C 438.128906 389.179688 444.453125 404.855469 470.65625 401.941406 C 498.296875 398.863281 460.773438 413.636719 452.5 438.4375 C 444.222656 463.25 438.320312 478.609375 457.226562 532.960938 C 476.132812 587.3125 479.363281 596.753906 493.542969 621.566406 C 507.152344 645.378906 520.953125 689.425781 591.167969 669.949219 C 613.28125 661.472656 628.601562 651.703125 633.605469 634.71875 C 633.882812 633.78125 633.898438 632.757812 634.011719 631.742188 C 636.875 638.648438 639.460938 644.390625 641.460938 653.121094 C 643.921875 663.664062 643.527344 670.203125 640.867188 673.6875 Z M 384.273438 259.109375 C 384.273438 259.085938 384.261719 259.058594 384.261719 259.035156 C 384.210938 258.78125 384.171875 258.539062 384.132812 258.300781 C 384.132812 258.273438 384.121094 258.238281 384.121094 258.210938 C 384.160156 258.503906 384.222656 258.808594 384.273438 259.109375 Z M 384.691406 261.429688 C 384.652344 261.1875 384.601562 260.949219 384.566406 260.707031 C 384.550781 260.644531 384.539062 260.570312 384.527344 260.503906 C 384.578125 260.808594 384.628906 261.125 384.691406 261.429688 Z M 367.851562 211.90625 C 371.019531 212.804688 371.476562 213.71875 370.5625 217.570312 C 369.664062 221.421875 368.75 224.820312 372.148438 230.699219 C 371.246094 222.210938 374.339844 213.945312 378.761719 211.78125 C 385.441406 209.980469 401.914062 202.390625 401.304688 201.035156 C 400.191406 198.535156 380.027344 206.734375 376.367188 208.242188 C 371.90625 209.421875 368.738281 209.878906 367.382812 206.027344 C 366.027344 202.175781 368.511719 196.523438 379.609375 192.667969 C 379.609375 192.667969 367.167969 195.609375 364.898438 200.363281 C 362.644531 205.113281 364.683594 211.007812 367.851562 211.90625 Z M 301.894531 408.898438 C 271.988281 401.230469 241.539062 419.253906 233.871094 449.160156 L 215.902344 519.25 C 208.234375 549.15625 226.253906 579.609375 256.160156 587.273438 C 286.066406 594.941406 316.515625 576.921875 324.183594 547.015625 L 342.152344 476.925781 C 349.820312 447.015625 331.800781 416.566406 301.894531 408.898438 Z M 363.378906 150.851562 C 363.808594 148.164062 342.457031 143.957031 338.566406 143.210938 C 334.675781 142.460938 333.953125 144.324219 336.449219 146.492188 C 338.960938 148.660156 363.097656 152.550781 363.378906 150.851562 Z M 363.378906 150.851562 " fill-opacity="1" fill-rule="nonzero"/><path fill="#ffffff" d="M 303.644531 402.117188 C 269.910156 393.464844 235.417969 413.878906 226.773438 447.613281 L 208.933594 517.171875 C 204.738281 533.519531 207.171875 550.511719 215.761719 565.035156 C 224.355469 579.558594 238.089844 589.859375 254.425781 594.054688 C 259.660156 595.398438 264.957031 596.058594 270.226562 596.058594 C 281.402344 596.058594 292.414062 593.066406 302.285156 587.222656 C 316.808594 578.632812 327.109375 564.894531 331.304688 548.546875 L 349.148438 478.988281 C 357.777344 445.253906 337.375 410.761719 303.644531 402.117188 Z M 346.285156 478.253906 L 328.441406 547.8125 C 324.449219 563.402344 314.617188 576.492188 300.777344 584.675781 C 286.941406 592.863281 270.734375 595.183594 255.148438 591.191406 C 239.5625 587.199219 226.472656 577.378906 218.285156 563.527344 C 210.085938 549.6875 207.78125 533.480469 211.773438 517.894531 L 229.613281 448.335938 C 236.582031 421.164062 261.117188 403.070312 287.953125 403.070312 C 292.898438 403.070312 297.914062 403.675781 302.90625 404.96875 C 335.070312 413.207031 354.53125 446.09375 346.285156 478.253906 Z M 318.898438 478.015625 L 304.328125 534.847656 C 300.4375 550.019531 286.726562 560.132812 271.746094 560.132812 C 268.984375 560.132812 266.183594 559.789062 263.398438 559.078125 C 245.429688 554.464844 234.570312 536.105469 239.167969 518.148438 L 253.742188 461.3125 C 258.355469 443.355469 276.714844 432.480469 294.671875 437.082031 C 312.640625 441.695312 323.5 460.058594 318.898438 478.015625 Z M 358.652344 214.730469 C 359.804688 216.683594 360.132812 218.976562 359.578125 221.183594 L 336.703125 310.394531 C 336.132812 312.601562 334.753906 314.453125 332.800781 315.605469 C 331.46875 316.390625 329.988281 316.796875 328.480469 316.796875 C 327.769531 316.796875 327.058594 316.707031 326.351562 316.53125 C 321.800781 315.363281 319.0625 310.726562 320.21875 306.175781 L 343.089844 216.960938 C 343.660156 214.757812 345.042969 212.90625 346.992188 211.753906 C 348.945312 210.601562 351.238281 210.273438 353.441406 210.828125 C 355.648438 211.386719 357.5 212.769531 358.652344 214.730469 Z M 604.550781 545.886719 L 581.335938 477.925781 C 570.082031 444.964844 534.105469 427.3125 501.144531 438.566406 C 485.179688 444.015625 472.292969 455.367188 464.867188 470.511719 C 457.429688 485.65625 456.339844 502.789062 461.800781 518.753906 L 485.015625 586.71875 C 493.972656 612.9375 518.558594 629.472656 544.839844 629.472656 C 551.59375 629.472656 558.460938 628.382812 565.203125 626.078125 C 581.167969 620.628906 594.054688 609.273438 601.480469 594.132812 C 608.90625 578.988281 609.996094 561.855469 604.550781 545.886719 Z M 598.832031 592.839844 C 591.75 607.285156 579.457031 618.09375 564.238281 623.289062 C 532.8125 634.023438 498.523438 617.195312 487.789062 585.765625 L 464.574219 517.804688 C 453.84375 486.378906 470.671875 452.085938 502.097656 441.351562 C 508.523438 439.160156 515.074219 438.121094 521.511719 438.121094 C 546.5625 438.121094 570.003906 453.886719 578.546875 478.886719 L 601.761719 546.851562 C 606.96875 562.058594 605.929688 578.390625 598.832031 592.839844 Z M 578.914062 547.433594 C 584.90625 564.984375 575.503906 584.132812 557.953125 590.125 C 554.394531 591.34375 550.71875 591.953125 547.054688 591.953125 C 541.988281 591.953125 536.945312 590.796875 532.269531 588.492188 C 524.210938 584.539062 518.164062 577.667969 515.261719 569.167969 L 496.292969 513.648438 C 493.390625 505.144531 493.972656 496.019531 497.929688 487.960938 C 501.882812 479.902344 508.75 473.855469 517.253906 470.957031 C 534.804688 464.960938 553.949219 474.363281 559.945312 491.914062 Z M 463.511719 349.046875 L 431.703125 262.609375 C 430.082031 258.210938 432.351562 253.308594 436.75 251.683594 C 441.144531 250.0625 446.050781 252.332031 447.671875 256.730469 L 479.476562 343.167969 C 480.261719 345.296875 480.175781 347.613281 479.210938 349.667969 C 478.261719 351.734375 476.5625 353.304688 474.421875 354.078125 C 473.457031 354.433594 472.46875 354.609375 471.480469 354.609375 C 470.265625 354.609375 469.0625 354.34375 467.921875 353.824219 C 465.867188 352.886719 464.296875 351.1875 463.511719 349.046875 Z M 463.511719 349.046875 " fill-opacity="1" fill-rule="nonzero"/><path fill="#ffc533" d="M 600.050781 532.59375 L 480.578125 573.398438 L 467.921875 536.34375 L 587.390625 495.539062 Z M 334.878906 175.054688 C 338.832031 175.054688 342.039062 173.078125 342.039062 170.644531 C 342.039062 168.210938 338.832031 166.234375 334.878906 166.234375 C 330.925781 166.234375 327.71875 168.210938 327.71875 170.644531 C 327.71875 173.078125 330.925781 175.054688 334.878906 175.054688 Z M 212.53125 503.613281 L 334.816406 534.964844 L 344.546875 497.035156 L 222.265625 465.683594 Z M 365.898438 110.730469 C 368.117188 110.730469 369.917969 108.929688 369.917969 106.714844 C 369.917969 104.496094 368.117188 102.695312 365.898438 102.695312 C 363.683594 102.695312 361.882812 104.496094 361.882812 106.714844 C 361.882812 108.929688 363.683594 110.730469 365.898438 110.730469 Z M 404.117188 95.699219 C 396.882812 102.949219 399.898438 120.589844 399.898438 120.589844 C 399.898438 120.589844 405.804688 109.601562 409.324219 105.066406 C 412.847656 100.527344 411.339844 88.4375 404.117188 95.699219 Z M 367.671875 125.417969 C 369.410156 129.230469 377.847656 127.230469 382.472656 140.21875 L 396.640625 143.855469 C 396.628906 143.488281 396.617188 143.121094 396.589844 142.765625 C 395.765625 127.886719 392.042969 109.714844 388.328125 103.9375 C 384.617188 98.160156 375.351562 104.570312 382.957031 110.550781 C 394.527344 119.640625 386.667969 134.097656 378.40625 123.363281 C 370.144531 112.617188 365.609375 120.878906 367.671875 125.417969 Z M 385.527344 175.132812 C 377.101562 168.476562 371.5625 164.992188 359.601562 165.527344 C 346.5625 166.109375 346.285156 169.960938 354.28125 170.40625 C 362.261719 170.847656 367.152344 181.503906 364.050781 181.503906 C 360.945312 181.503906 348.515625 178.84375 342.304688 177.511719 C 336.09375 176.183594 337.425781 186.839844 348.957031 184.609375 C 359.246094 182.632812 369.535156 193 371.640625 195.265625 L 396.753906 186.6875 C 396.324219 185.992188 393.308594 181.277344 385.527344 175.132812 Z M 385.527344 175.132812 " fill-opacity="1" fill-rule="nonzero"/><path fill="#f4a800" d="M 600.050781 532.59375 L 523.917969 558.507812 C 544.6875 550.195312 564.949219 531.503906 582.601562 497.226562 L 587.378906 495.539062 Z M 266.90625 517.5625 L 334.816406 534.976562 L 344.546875 497.046875 L 312.425781 488.8125 C 297.863281 498.757812 282.125 508.566406 266.90625 517.5625 Z M 381.777344 183.949219 C 374.441406 181.972656 372.753906 187.90625 363.164062 185.648438 C 360.765625 185.089844 359.5 185.332031 358.941406 186.015625 C 365.191406 188.679688 370.234375 193.773438 371.640625 195.28125 L 396.753906 186.699219 C 396.640625 186.511719 396.351562 186.054688 395.84375 185.359375 C 391.738281 185.34375 386.011719 185.089844 381.777344 183.949219 Z M 382.460938 140.21875 L 393.601562 143.070312 C 392.257812 139.371094 389.683594 134.226562 385.453125 133.171875 C 378.710938 131.488281 371.957031 126.445312 371.917969 128.355469 C 375.214844 129.851562 379.585938 132.109375 382.460938 140.21875 Z M 405.90625 101.097656 C 404.75 100.679688 403.320312 101.746094 402.6875 103.46875 C 402.066406 105.191406 402.496094 106.929688 403.636719 107.347656 C 404.789062 107.765625 406.222656 106.699219 406.855469 104.976562 C 407.476562 103.253906 407.046875 101.503906 405.90625 101.097656 Z M 336.386719 173.40625 C 337.234375 173.710938 338.300781 172.925781 338.769531 171.644531 C 339.226562 170.367188 338.910156 169.085938 338.058594 168.78125 C 337.210938 168.476562 336.144531 169.265625 335.675781 170.542969 C 335.222656 171.824219 335.539062 173.105469 336.386719 173.40625 Z M 336.386719 173.40625 " fill-opacity="1" fill-rule="nonzero"/></svg>