<?xml version="1.0" encoding="UTF-8"?><svg id="jam" xmlns="http://www.w3.org/2000/svg" viewBox="0 0 2560 1080"><defs><style>.cls-1,.cls-2,.cls-3,.cls-4,.cls-5,.cls-6,.cls-7,.cls-8,.cls-9,.cls-10{stroke-width:0px;}.cls-2{fill:#6c99b3;}.cls-3{fill:#58aeda;}.cls-4{fill:#56ade1;}.cls-5{fill:#084270;}.cls-6{fill:#1d5786;}.cls-7{fill:#12244b;}.cls-8{fill:#d5e0e6;}.cls-9{fill:#b1cbd9;}.cls-10{fill:#fff;}</style></defs><rect class="cls-8" x="-67.64" y="-29.25" width="2630" height="958"/><rect class="cls-9" x="-30.14" y="546.75" width="2581.79" height="402"/><rect class="cls-10" x="-7.05" y="218.14" width="190" height="284"/><rect class="cls-5" x="-7.05" y="218.14" width="190" height="80"/><rect class="cls-5" x="-7.05" y="324.14" width="190" height="15"/><rect class="cls-5" x="-7.05" y="365.14" width="190" height="15"/><rect class="cls-5" x="-7.05" y="408.14" width="190" height="15"/><rect class="cls-5" x="-7.05" y="450.14" width="190" height="15"/><rect class="cls-5" x="-37.88" y="898.62" width="2612.17" height="186"/><rect class="cls-6" x="-64.46" y="969.09" width="2764.74" height="32"/><rect class="cls-6" x="-69.72" y="1045.09" width="2764.74" height="32" transform="translate(2625.29 2122.18) rotate(180)"/><rect class="cls-6" x="-69.72" y="897.09" width="2764.74" height="32" transform="translate(2625.29 1826.18) rotate(180)"/><path class="cls-1" d="m521,669.4l-5.49,3.82"/><path class="cls-3" d="m250.96,623.32l-2.22-64.11c-.16-4.71,3.41-8.71,8.11-9.08l118.14-9.33c5-.39,9.32,3.46,9.49,8.47l2.59,74.55c.17,5.01-3.87,9.16-8.88,9.11l-118.5-1.11c-4.71-.04-8.55-3.79-8.72-8.5Z"/><path class="cls-2" d="m263.09,625.86l-1.59-45.89c-.12-3.37,2.73-6.25,6.46-6.52l93.83-7c3.97-.3,7.39,2.45,7.51,6.04l1.85,53.36c.12,3.59-3.1,6.57-7.08,6.55l-94.09-.48c-3.74-.02-6.78-2.69-6.9-6.06Z"/><rect class="cls-2" x="302.11" y="593.54" width="14" height="104" transform="translate(200.28 -61.87) rotate(16.84)"/><rect class="cls-7" x="209.62" y="671.33" width="350" height="263" rx="8.96" ry="8.96"/><path class="cls-1" d="m218.57,746.33h227.05v188h-236v-179.05c0-4.94,4.01-8.95,8.95-8.95Z"/><rect class="cls-4" x="202.62" y="657.33" width="367" height="26" rx="8.96" ry="8.96"/></svg>