<svg width="984" height="688" viewBox="0 0 984 688" fill="none" xmlns="http://www.w3.org/2000/svg">
<path d="M944.29 234.19C944.29 167.26 890.03 113 823.1 113H160.19C93.26 113 39 167.26 39 234.19V427.64C39 494.57 93.26 548.83 160.19 548.83H823.11C831.89 548.83 840.45 547.89 848.7 546.11L927.26 574.97L909.11 513.02C930.86 491.11 944.3 460.95 944.3 427.64V234.19H944.29Z" fill="#D5E0E6" stroke="#183B5B" stroke-width="9" stroke-linecap="round" stroke-linejoin="round"/>
<path d="M104.711 161.363V210.091H99.0962V161.363H104.711ZM129.842 210.852C126.543 210.852 123.648 210.067 121.158 208.497C118.684 206.926 116.748 204.729 115.353 201.906C113.973 199.083 113.283 195.783 113.283 192.008C113.283 188.201 113.973 184.878 115.353 182.039C116.748 179.2 118.684 176.995 121.158 175.425C123.648 173.855 126.543 173.069 129.842 173.069C133.141 173.069 136.028 173.855 138.503 175.425C140.993 176.995 142.928 179.2 144.308 182.039C145.704 184.878 146.402 188.201 146.402 192.008C146.402 195.783 145.704 199.083 144.308 201.906C142.928 204.729 140.993 206.926 138.503 208.497C136.028 210.067 133.141 210.852 129.842 210.852ZM129.842 205.808C132.348 205.808 134.41 205.166 136.028 203.881C137.646 202.596 138.844 200.907 139.621 198.813C140.398 196.719 140.787 194.451 140.787 192.008C140.787 189.566 140.398 187.289 139.621 185.18C138.844 183.07 137.646 181.365 136.028 180.064C134.41 178.764 132.348 178.113 129.842 178.113C127.336 178.113 125.274 178.764 123.656 180.064C122.038 181.365 120.841 183.07 120.063 185.18C119.286 187.289 118.898 189.566 118.898 192.008C118.898 194.451 119.286 196.719 120.063 198.813C120.841 200.907 122.038 202.596 123.656 203.881C125.274 205.166 127.336 205.808 129.842 205.808ZM154.973 210.091V173.545H160.398V179.065H160.779C161.445 177.257 162.65 175.79 164.395 174.663C166.14 173.537 168.107 172.974 170.296 172.974C170.708 172.974 171.224 172.982 171.842 172.998C172.461 173.014 172.929 173.038 173.246 173.069V178.78C173.056 178.732 172.619 178.661 171.937 178.565C171.271 178.454 170.565 178.399 169.82 178.399C168.043 178.399 166.457 178.772 165.061 179.517C163.681 180.247 162.587 181.262 161.778 182.563C160.985 183.847 160.588 185.315 160.588 186.964V210.091H154.973ZM194.112 210.852C190.591 210.852 187.553 210.075 184.999 208.52C182.462 206.95 180.503 204.761 179.123 201.954C177.759 199.13 177.077 195.847 177.077 192.103C177.077 188.36 177.759 185.061 179.123 182.206C180.503 179.335 182.422 177.098 184.881 175.496C187.355 173.878 190.242 173.069 193.541 173.069C195.444 173.069 197.324 173.387 199.18 174.021C201.036 174.656 202.725 175.687 204.248 177.114C205.77 178.526 206.984 180.398 207.888 182.729C208.792 185.061 209.244 187.932 209.244 191.342V193.721H181.074V188.868H203.534C203.534 186.806 203.122 184.966 202.297 183.348C201.488 181.73 200.33 180.453 198.823 179.517C197.332 178.581 195.571 178.113 193.541 178.113C191.305 178.113 189.369 178.669 187.736 179.779C186.118 180.873 184.873 182.301 184 184.062C183.128 185.822 182.692 187.71 182.692 189.724V192.96C182.692 195.72 183.167 198.06 184.119 199.979C185.087 201.882 186.427 203.334 188.14 204.333C189.853 205.316 191.844 205.808 194.112 205.808C195.587 205.808 196.92 205.602 198.109 205.189C199.315 204.761 200.354 204.127 201.226 203.286C202.098 202.429 202.773 201.367 203.248 200.098L208.673 201.621C208.102 203.46 207.142 205.078 205.794 206.474C204.446 207.854 202.78 208.933 200.798 209.71C198.815 210.471 196.586 210.852 194.112 210.852ZM217.786 210.091V173.545H223.21V179.255H223.686C224.448 177.304 225.677 175.79 227.374 174.711C229.071 173.617 231.11 173.069 233.489 173.069C235.9 173.069 237.906 173.617 239.508 174.711C241.126 175.79 242.387 177.304 243.291 179.255H243.672C244.608 177.368 246.012 175.869 247.883 174.759C249.755 173.632 251.999 173.069 254.617 173.069C257.884 173.069 260.557 174.092 262.635 176.139C264.713 178.169 265.752 181.333 265.752 185.632V210.091H260.137V185.632C260.137 182.935 259.399 181.008 257.924 179.85C256.449 178.692 254.712 178.113 252.713 178.113C250.144 178.113 248.153 178.891 246.741 180.445C245.33 181.984 244.624 183.935 244.624 186.298V210.091H238.914V185.061C238.914 182.983 238.239 181.31 236.891 180.041C235.543 178.756 233.806 178.113 231.681 178.113C230.221 178.113 228.857 178.502 227.588 179.279C226.335 180.056 225.32 181.135 224.543 182.515C223.781 183.879 223.401 185.457 223.401 187.25V210.091H217.786ZM294.862 210.091V173.545H300.477V210.091H294.862ZM297.717 167.454C296.623 167.454 295.679 167.082 294.886 166.336C294.108 165.591 293.72 164.694 293.72 163.648C293.72 162.601 294.108 161.704 294.886 160.959C295.679 160.213 296.623 159.841 297.717 159.841C298.811 159.841 299.747 160.213 300.525 160.959C301.318 161.704 301.714 162.601 301.714 163.648C301.714 164.694 301.318 165.591 300.525 166.336C299.747 167.082 298.811 167.454 297.717 167.454ZM310.761 223.795V173.545H316.186V179.351H316.852C317.265 178.716 317.836 177.907 318.565 176.924C319.311 175.925 320.373 175.036 321.753 174.259C323.149 173.466 325.037 173.069 327.416 173.069C330.493 173.069 333.206 173.839 335.553 175.377C337.901 176.916 339.733 179.097 341.049 181.92C342.366 184.744 343.024 188.075 343.024 191.913C343.024 195.783 342.366 199.138 341.049 201.977C339.733 204.801 337.909 206.99 335.577 208.544C333.245 210.083 330.557 210.852 327.511 210.852C325.164 210.852 323.284 210.463 321.872 209.686C320.461 208.893 319.374 207.997 318.613 206.998C317.851 205.983 317.265 205.142 316.852 204.476H316.376V223.795H310.761ZM316.281 191.818C316.281 194.578 316.686 197.013 317.495 199.122C318.304 201.216 319.485 202.858 321.04 204.047C322.594 205.221 324.498 205.808 326.75 205.808C329.097 205.808 331.056 205.189 332.627 203.952C334.213 202.699 335.402 201.018 336.196 198.908C337.005 196.783 337.409 194.419 337.409 191.818C337.409 189.248 337.012 186.933 336.219 184.871C335.442 182.793 334.26 181.151 332.674 179.945C331.104 178.724 329.129 178.113 326.75 178.113C324.466 178.113 322.547 178.692 320.992 179.85C319.438 180.992 318.264 182.594 317.471 184.656C316.678 186.703 316.281 189.09 316.281 191.818ZM377.476 181.73L372.432 183.157C372.114 182.317 371.647 181.5 371.028 180.707C370.425 179.898 369.6 179.232 368.554 178.708C367.507 178.185 366.166 177.923 364.533 177.923C362.296 177.923 360.432 178.439 358.941 179.47C357.466 180.485 356.729 181.777 356.729 183.348C356.729 184.744 357.236 185.846 358.251 186.655C359.266 187.464 360.853 188.138 363.01 188.677L368.435 190.01C371.702 190.803 374.137 192.016 375.739 193.65C377.341 195.268 378.142 197.354 378.142 199.907C378.142 202.001 377.539 203.873 376.334 205.523C375.144 207.172 373.479 208.473 371.337 209.425C369.196 210.376 366.706 210.852 363.866 210.852C360.139 210.852 357.054 210.043 354.611 208.425C352.168 206.807 350.622 204.444 349.972 201.335L355.301 200.003C355.809 201.969 356.768 203.445 358.18 204.428C359.608 205.411 361.471 205.903 363.771 205.903C366.388 205.903 368.466 205.348 370.005 204.238C371.559 203.112 372.337 201.763 372.337 200.193C372.337 198.924 371.892 197.861 371.004 197.005C370.116 196.132 368.752 195.482 366.912 195.054L360.821 193.626C357.474 192.833 355.016 191.604 353.445 189.938C351.891 188.257 351.114 186.155 351.114 183.633C351.114 181.571 351.693 179.747 352.85 178.161C354.024 176.575 355.618 175.33 357.633 174.426C359.663 173.521 361.963 173.069 364.533 173.069C368.149 173.069 370.988 173.862 373.05 175.449C375.128 177.035 376.603 179.129 377.476 181.73ZM409.626 195.149V173.545H415.241V210.091H409.626V203.905H409.245C408.388 205.76 407.056 207.339 405.248 208.639C403.439 209.924 401.155 210.567 398.395 210.567C396.111 210.567 394.081 210.067 392.305 209.068C390.528 208.052 389.132 206.53 388.117 204.499C387.102 202.453 386.594 199.876 386.594 196.767V173.545H392.209V196.386C392.209 199.051 392.955 201.176 394.446 202.763C395.953 204.349 397.872 205.142 400.204 205.142C401.599 205.142 403.019 204.785 404.463 204.071C405.922 203.357 407.143 202.263 408.127 200.788C409.126 199.313 409.626 197.433 409.626 195.149ZM425.525 210.091V173.545H430.95V179.255H431.426C432.187 177.304 433.416 175.79 435.113 174.711C436.811 173.617 438.849 173.069 441.228 173.069C443.639 173.069 445.646 173.617 447.248 174.711C448.866 175.79 450.127 177.304 451.031 179.255H451.411C452.347 177.368 453.751 175.869 455.623 174.759C457.494 173.632 459.739 173.069 462.356 173.069C465.623 173.069 468.296 174.092 470.374 176.139C472.452 178.169 473.491 181.333 473.491 185.632V210.091H467.876V185.632C467.876 182.935 467.138 181.008 465.663 179.85C464.188 178.692 462.451 178.113 460.453 178.113C457.883 178.113 455.892 178.891 454.481 180.445C453.069 181.984 452.363 183.935 452.363 186.298V210.091H446.653V185.061C446.653 182.983 445.979 181.31 444.63 180.041C443.282 178.756 441.545 178.113 439.42 178.113C437.961 178.113 436.596 178.502 435.328 179.279C434.074 180.056 433.059 181.135 432.282 182.515C431.521 183.879 431.14 185.457 431.14 187.25V210.091H425.525ZM516.401 210.852C513.355 210.852 510.667 210.083 508.335 208.544C506.003 206.99 504.179 204.801 502.863 201.977C501.546 199.138 500.888 195.783 500.888 191.913C500.888 188.075 501.546 184.744 502.863 181.92C504.179 179.097 506.011 176.916 508.359 175.377C510.706 173.839 513.419 173.069 516.496 173.069C518.875 173.069 520.755 173.466 522.135 174.259C523.531 175.036 524.593 175.925 525.323 176.924C526.069 177.907 526.648 178.716 527.06 179.351H527.536V161.363H533.151V210.091H527.726V204.476H527.06C526.648 205.142 526.061 205.983 525.299 206.998C524.538 207.997 523.451 208.893 522.04 209.686C520.628 210.463 518.748 210.852 516.401 210.852ZM517.162 205.808C519.415 205.808 521.318 205.221 522.872 204.047C524.427 202.858 525.609 201.216 526.418 199.122C527.226 197.013 527.631 194.578 527.631 191.818C527.631 189.09 527.234 186.703 526.441 184.656C525.648 182.594 524.474 180.992 522.92 179.85C521.366 178.692 519.446 178.113 517.162 178.113C514.783 178.113 512.8 178.724 511.214 179.945C509.644 181.151 508.462 182.793 507.669 184.871C506.892 186.933 506.503 189.248 506.503 191.818C506.503 194.419 506.9 196.783 507.693 198.908C508.502 201.018 509.691 202.699 511.262 203.952C512.848 205.189 514.815 205.808 517.162 205.808ZM560.013 210.757C556.428 210.757 553.375 209.781 550.853 207.83C548.331 205.864 546.403 203.016 545.071 199.289C543.739 195.545 543.072 191.025 543.072 185.727C543.072 180.461 543.739 175.964 545.071 172.237C546.419 168.493 548.354 165.638 550.876 163.671C553.414 161.689 556.46 160.697 560.013 160.697C563.566 160.697 566.603 161.689 569.125 163.671C571.663 165.638 573.598 168.493 574.931 172.237C576.279 175.964 576.953 180.461 576.953 185.727C576.953 191.025 576.287 195.545 574.954 199.289C573.622 203.016 571.695 205.864 569.173 207.83C566.651 209.781 563.597 210.757 560.013 210.757ZM560.013 205.523C563.566 205.523 566.326 203.809 568.293 200.383C570.259 196.957 571.243 192.072 571.243 185.727C571.243 181.508 570.791 177.915 569.887 174.949C568.998 171.983 567.714 169.723 566.032 168.168C564.367 166.614 562.36 165.836 560.013 165.836C556.491 165.836 553.739 167.573 551.757 171.047C549.774 174.505 548.783 179.398 548.783 185.727C548.783 189.946 549.227 193.531 550.115 196.481C551.003 199.432 552.28 201.676 553.946 203.215C555.627 204.753 557.649 205.523 560.013 205.523ZM591.704 161.363V210.091H586.089V161.363H591.704ZM616.835 210.852C613.536 210.852 610.641 210.067 608.151 208.497C605.677 206.926 603.742 204.729 602.346 201.906C600.966 199.083 600.276 195.783 600.276 192.008C600.276 188.201 600.966 184.878 602.346 182.039C603.742 179.2 605.677 176.995 608.151 175.425C610.641 173.855 613.536 173.069 616.835 173.069C620.135 173.069 623.021 173.855 625.496 175.425C627.986 176.995 629.921 179.2 631.301 182.039C632.697 184.878 633.395 188.201 633.395 192.008C633.395 195.783 632.697 199.083 631.301 201.906C629.921 204.729 627.986 206.926 625.496 208.497C623.021 210.067 620.135 210.852 616.835 210.852ZM616.835 205.808C619.342 205.808 621.404 205.166 623.021 203.881C624.639 202.596 625.837 200.907 626.614 198.813C627.391 196.719 627.78 194.451 627.78 192.008C627.78 189.566 627.391 187.289 626.614 185.18C625.837 183.07 624.639 181.365 623.021 180.064C621.404 178.764 619.342 178.113 616.835 178.113C614.329 178.113 612.267 178.764 610.649 180.064C609.031 181.365 607.834 183.07 607.057 185.18C606.279 187.289 605.891 189.566 605.891 192.008C605.891 194.451 606.279 196.719 607.057 198.813C607.834 200.907 609.031 202.596 610.649 203.881C612.267 205.166 614.329 205.808 616.835 205.808ZM641.966 210.091V173.545H647.391V179.065H647.772C648.438 177.257 649.643 175.79 651.388 174.663C653.133 173.537 655.1 172.974 657.289 172.974C657.701 172.974 658.217 172.982 658.835 172.998C659.454 173.014 659.922 173.038 660.239 173.069V178.78C660.049 178.732 659.613 178.661 658.93 178.565C658.264 178.454 657.558 178.399 656.813 178.399C655.036 178.399 653.45 178.772 652.054 179.517C650.674 180.247 649.58 181.262 648.771 182.563C647.978 183.847 647.581 185.315 647.581 186.964V210.091H641.966ZM711.625 181.73L706.581 183.157C706.264 182.317 705.796 181.5 705.177 180.707C704.575 179.898 703.75 179.232 702.703 178.708C701.656 178.185 700.316 177.923 698.682 177.923C696.445 177.923 694.582 178.439 693.091 179.47C691.616 180.485 690.878 181.777 690.878 183.348C690.878 184.744 691.386 185.846 692.401 186.655C693.416 187.464 695.002 188.138 697.159 188.677L702.584 190.01C705.852 190.803 708.286 192.016 709.888 193.65C711.49 195.268 712.291 197.354 712.291 199.907C712.291 202.001 711.689 203.873 710.483 205.523C709.294 207.172 707.628 208.473 705.487 209.425C703.345 210.376 700.855 210.852 698.016 210.852C694.288 210.852 691.203 210.043 688.76 208.425C686.318 206.807 684.771 204.444 684.121 201.335L689.45 200.003C689.958 201.969 690.918 203.445 692.329 204.428C693.757 205.411 695.621 205.903 697.921 205.903C700.538 205.903 702.616 205.348 704.154 204.238C705.709 203.112 706.486 201.763 706.486 200.193C706.486 198.924 706.042 197.861 705.154 197.005C704.265 196.132 702.901 195.482 701.061 195.054L694.97 193.626C691.624 192.833 689.165 191.604 687.595 189.938C686.04 188.257 685.263 186.155 685.263 183.633C685.263 181.571 685.842 179.747 687 178.161C688.174 176.575 689.768 175.33 691.782 174.426C693.812 173.521 696.112 173.069 698.682 173.069C702.298 173.069 705.138 173.862 707.2 175.449C709.278 177.035 710.753 179.129 711.625 181.73ZM720.744 210.091V173.545H726.359V210.091H720.744ZM723.599 167.454C722.504 167.454 721.561 167.082 720.767 166.336C719.99 165.591 719.602 164.694 719.602 163.648C719.602 162.601 719.99 161.704 720.767 160.959C721.561 160.213 722.504 159.841 723.599 159.841C724.693 159.841 725.629 160.213 726.406 160.959C727.199 161.704 727.596 162.601 727.596 163.648C727.596 164.694 727.199 165.591 726.406 166.336C725.629 167.082 724.693 167.454 723.599 167.454ZM752.537 173.545V178.304H733.598V173.545H752.537ZM739.118 164.79H744.733V199.622C744.733 201.208 744.963 202.398 745.423 203.191C745.898 203.968 746.501 204.492 747.231 204.761C747.976 205.015 748.761 205.142 749.586 205.142C750.205 205.142 750.712 205.11 751.109 205.047C751.506 204.967 751.823 204.904 752.061 204.856L753.203 209.9C752.822 210.043 752.291 210.186 751.609 210.329C750.927 210.487 750.062 210.567 749.015 210.567C747.429 210.567 745.875 210.226 744.352 209.543C742.845 208.861 741.592 207.822 740.593 206.427C739.609 205.031 739.118 203.27 739.118 201.145V164.79ZM109.85 291.947C107.535 291.947 105.433 291.511 103.545 290.639C101.658 289.75 100.159 288.474 99.0487 286.808C97.9383 285.127 97.3832 283.096 97.3832 280.717C97.3832 278.623 97.7956 276.926 98.6204 275.625C99.4452 274.309 100.548 273.278 101.928 272.532C103.308 271.787 104.83 271.232 106.496 270.867C108.177 270.486 109.866 270.185 111.564 269.963C113.784 269.677 115.585 269.463 116.964 269.32C118.36 269.162 119.375 268.9 120.01 268.535C120.66 268.17 120.985 267.536 120.985 266.632V266.442C120.985 264.094 120.343 262.27 119.058 260.969C117.789 259.669 115.862 259.018 113.277 259.018C110.596 259.018 108.494 259.605 106.972 260.779C105.449 261.953 104.378 263.206 103.76 264.538L98.43 262.635C99.3817 260.414 100.651 258.685 102.237 257.448C103.839 256.195 105.584 255.322 107.471 254.831C109.375 254.323 111.246 254.069 113.086 254.069C114.26 254.069 115.608 254.212 117.131 254.498C118.67 254.767 120.153 255.33 121.58 256.187C123.024 257.043 124.221 258.336 125.173 260.065C126.125 261.794 126.6 264.11 126.6 267.013V291.091H120.985V286.142H120.7C120.319 286.935 119.685 287.784 118.797 288.688C117.908 289.592 116.727 290.361 115.251 290.996C113.776 291.63 111.976 291.947 109.85 291.947ZM110.707 286.903C112.928 286.903 114.799 286.467 116.322 285.595C117.861 284.722 119.019 283.596 119.796 282.216C120.589 280.836 120.985 279.385 120.985 277.862V272.723C120.748 273.008 120.224 273.27 119.415 273.508C118.622 273.73 117.702 273.928 116.655 274.103C115.624 274.261 114.617 274.404 113.634 274.531C112.666 274.642 111.881 274.737 111.278 274.817C109.819 275.007 108.455 275.316 107.186 275.744C105.933 276.157 104.917 276.783 104.14 277.624C103.379 278.449 102.998 279.575 102.998 281.003C102.998 282.954 103.72 284.429 105.163 285.428C106.623 286.411 108.471 286.903 110.707 286.903ZM136.849 291.091V254.545H142.274V260.255H142.75C143.511 258.304 144.74 256.79 146.438 255.711C148.135 254.617 150.173 254.069 152.552 254.069C154.963 254.069 156.97 254.617 158.572 255.711C160.19 256.79 161.451 258.304 162.355 260.255H162.736C163.671 258.368 165.075 256.869 166.947 255.759C168.819 254.632 171.063 254.069 173.68 254.069C176.948 254.069 179.62 255.092 181.698 257.139C183.776 259.169 184.815 262.333 184.815 266.632V291.091H179.2V266.632C179.2 263.935 178.462 262.008 176.987 260.85C175.512 259.692 173.775 259.113 171.777 259.113C169.207 259.113 167.216 259.891 165.805 261.445C164.393 262.984 163.687 264.935 163.687 267.298V291.091H157.977V266.061C157.977 263.983 157.303 262.31 155.955 261.041C154.606 259.756 152.87 259.113 150.744 259.113C149.285 259.113 147.921 259.502 146.652 260.279C145.399 261.056 144.383 262.135 143.606 263.515C142.845 264.879 142.464 266.457 142.464 268.25V291.091H136.849ZM210.404 291.852C206.883 291.852 203.845 291.075 201.291 289.52C198.754 287.95 196.795 285.761 195.415 282.954C194.051 280.13 193.369 276.847 193.369 273.103C193.369 269.36 194.051 266.061 195.415 263.206C196.795 260.335 198.714 258.098 201.172 256.496C203.647 254.878 206.534 254.069 209.833 254.069C211.736 254.069 213.616 254.387 215.472 255.021C217.328 255.656 219.017 256.687 220.54 258.114C222.062 259.526 223.276 261.398 224.18 263.729C225.084 266.061 225.536 268.932 225.536 272.342V274.721H197.366V269.868H219.826C219.826 267.806 219.414 265.966 218.589 264.348C217.78 262.73 216.622 261.453 215.115 260.517C213.624 259.581 211.863 259.113 209.833 259.113C207.597 259.113 205.661 259.669 204.028 260.779C202.41 261.873 201.165 263.301 200.292 265.062C199.42 266.822 198.984 268.71 198.984 270.724V273.96C198.984 276.72 199.459 279.06 200.411 280.979C201.379 282.882 202.719 284.334 204.432 285.333C206.145 286.316 208.136 286.808 210.404 286.808C211.879 286.808 213.212 286.602 214.401 286.189C215.607 285.761 216.646 285.127 217.518 284.286C218.39 283.429 219.065 282.367 219.54 281.098L224.965 282.621C224.394 284.46 223.434 286.078 222.086 287.474C220.738 288.854 219.072 289.933 217.09 290.71C215.107 291.471 212.878 291.852 210.404 291.852ZM249.971 254.545V259.304H231.032V254.545H249.971ZM236.552 245.79H242.167V280.622C242.167 282.208 242.397 283.398 242.857 284.191C243.333 284.968 243.936 285.492 244.665 285.761C245.411 286.015 246.196 286.142 247.021 286.142C247.639 286.142 248.147 286.11 248.544 286.047C248.94 285.967 249.257 285.904 249.495 285.856L250.637 290.9C250.257 291.043 249.725 291.186 249.043 291.329C248.361 291.487 247.497 291.567 246.45 291.567C244.864 291.567 243.309 291.226 241.786 290.543C240.28 289.861 239.027 288.822 238.027 287.427C237.044 286.031 236.552 284.27 236.552 282.145V245.79Z" fill="black"/>
</svg>
