<svg xmlns="http://www.w3.org/2000/svg" xmlns:xlink="http://www.w3.org/1999/xlink" viewBox="0 0 1972 1080"><defs><style>.cls-1{fill:#edf4fb;}.cls-2{fill:#ced1cc;}.cls-3{fill:#ddded8;}.cls-4{fill:#e9e6df;}.cls-31,.cls-32,.cls-5{fill:#fff;}.cls-6{fill:#cadae1;}.cls-7{fill:#e1cebd;}.cls-8{fill:#7fa6af;}.cls-9{fill:#14254b;}.cls-10{fill:#b1cbd9;}.cls-11{fill:#e8eed5;}.cls-12{fill:#dfe8c9;}.cls-13{fill:#dce1c9;}.cls-14{fill:#d3d7c2;}.cls-15{fill:#ced1bc;}.cls-16{fill:#7192a5;}.cls-17{fill:#214259;}.cls-18{fill:#d7edf0;}.cls-19{fill:#c3beb8;}.cls-20{fill:#639466;}.cls-21{fill:#52a359;}.cls-22{fill:#546a54;}.cls-23{fill:#476a49;}.cls-24{fill:#8dc641;}.cls-25{fill:#d1cbc3;}.cls-26{fill:#18244d;}.cls-27{fill:#ed6b5f;}.cls-28{fill:#f4be4f;}.cls-29{fill:#6abe57;}.cls-30{fill:#010101;opacity:0.5;}.cls-31,.cls-32{stroke:#fff;stroke-miterlimit:10;}.cls-31{stroke-width:3px;}.cls-33{fill:#231f20;}</style></defs><title>Page Credits Fix (SVG)</title><g id="Layer_2" data-name="Layer 2"><g id="Layer_1-2" data-name="Layer 1"><rect class="cls-1" width="1920" height="1080"/><polyline class="cls-2" points="1461 231.66 1107.39 405 970.1 405 947.48 405 810.18 405 445 226"/><path class="cls-3" d="M610.05,305.63,488,164l960,2.8L1298.56,315"/><polyline class="cls-4" points="366.68 180.11 182 0 949.82 0 969.22 0 1737 0 1549.37 183"/><polygon class="cls-5" points="972 1080 1920 1080 1118.04 611 972.05 611 948 611 802 611 0 1080 948.05 1080 972 1080"/><polyline class="cls-6" points="443.43 224 0 0 572.95 0 903.24 405.14 802 405.14 443.43 224"/><polygon class="cls-6" points="1119.1 405.14 1920 0 1347.84 0 1018 405.14 1119.1 405.14"/><rect class="cls-7" x="802" y="405" width="317" height="206"/><rect class="cls-8" x="821" y="417.77" width="278" height="193.23"/><rect class="cls-6" x="868.5" y="432.46" width="183" height="178.54"/><rect class="cls-5" y="398" width="82.71" height="284"/><rect class="cls-9" y="602" width="82.71" height="80"/><rect class="cls-9" y="561" width="82.71" height="15"/><rect class="cls-9" y="520" width="82.71" height="15"/><rect class="cls-9" y="477" width="82.71" height="15"/><rect class="cls-9" y="435" width="82.71" height="15"/><path class="cls-10" d="M1299.81,716.09,1299,403l347-141V920Z"/><rect class="cls-11" x="517" y="916.35" width="886" height="163.65"/><rect class="cls-12" x="582.5" y="786.63" width="755" height="132.72"/><rect class="cls-13" x="698" y="700.81" width="525" height="85.82"/><rect class="cls-14" x="788.75" y="635.95" width="342.5" height="64.86"/><rect class="cls-15" x="853.38" y="611" width="213.25" height="24.95"/><polygon class="cls-16" points="802 611 0 1080 572.95 1080 903.24 611 802 611"/><polygon class="cls-16" points="1119.1 611 1920 1079 1347.84 1079 1018 611 1119.1 611"/><rect class="cls-8" x="956.5" y="432" width="7" height="179"/><path class="cls-10" d="M1286,710q-1-159.5-2-319l383.15-163q.43,353.51.85,707Z"/><path class="cls-17" d="M1295.81,716.09,1295,403l347-141V920Z"/><path class="cls-18" d="M1298,527.39V565l340,71V502Z"/><polygon class="cls-10" points="1429.28 348.21 1429.28 792.32 1442.06 800.22 1442.06 343 1429.28 348.21"/><path class="cls-19" d="M1731.3,1009.13l-4-281.9,126.11-1.11,4,282.94c.37,26-21.65,47.24-49.19,47.48l-25.29.22c-28.15.25-51.27-21.08-51.65-47.63"/><path class="cls-20" d="M1784.7,687.2c12.48-19.75,25.08-39.77,30.19-61s2-44.3-15-62c-17.38-18.08-46.93-28.44-76.74-34.37-7.72,26.23-1.61,53.63,11.12,78.67s31.81,48.13,50.45,78.73"/><path class="cls-21" d="M1731.54,698.47c-14-16.46-36.15-29.37-61.63-36-19.16-5-41.15-6.27-59.68-.13s-32,21-27.78,35.15c26.12.91,49.91,10.18,74.39,16.65s53.51,9.91,74.7-15.7"/><path class="cls-22" d="M1780.66,720.36c-30.17-9.15-68.23-3-90,14.49s-25.51,45.06-8.9,65.13a772.56,772.56,0,0,0,87.84-45.25c8.19-4.92,16.49-10.21,20.77-17.19s2.42-13.49-9.74-17.18"/><path class="cls-23" d="M1792,693.63c-6.92-19.5-15.59-39-31.58-55.64a111.08,111.08,0,0,0-68.44-32.7c-28.09-2.68-59.31,7.46-70.07,26.1L1720.14,696c9.35,6.15,19.77,12.64,32.51,13.26,15.42.74,28.66-7.26,39.34-15.58"/><path class="cls-24" d="M1780.44,707.71c-29.38-7.44-59.16-15-90.41-17.26s-64.66,1.1-89.62,13.72c-25.52,12.9-39.19,33.7-46.41,54.42,38.6,3.83,78.24-1.88,114.13-12s68.6-24.45,112.31-38.9"/><path class="cls-24" d="M1761.26,702.93c8-19.64,18.18-39.38,37.63-56.31s49.45-30.89,84.53-34.18S1957.9,618.6,1972,637l-120.74,66.68c-11.5,6.35-24.31,13.07-40.24,14-19.27,1.08-36.11-6.63-49.76-14.71"/><path class="cls-21" d="M1751.43,721.28c17-16.77,44.23-30.15,75.9-37.31,23.82-5.37,51.29-7.16,74.68-1.43s40.78,20.28,36,34.53c-32.65,1.49-62.11,11.27-92.52,18.27s-66.63,11.08-94-14.06"/><path class="cls-23" d="M1767.38,709.32c38.71-7.1,85.48,1.57,110.55,20.49s26.52,46.65,3.45,65.54a999,999,0,0,1-104.27-51c-9.65-5.46-19.37-11.29-23.89-18.54s-1.44-13.61,14.16-16.47"/><ellipse class="cls-25" cx="960.5" cy="75.5" rx="210.5" ry="42.5"/><rect class="cls-16" x="916" y="517" width="36" height="10" rx="5" ry="5"/><rect class="cls-16" x="968" y="517" width="36" height="10" rx="5" ry="5"/><rect class="cls-26" x="872.04" y="82.86" width="4.65" height="56.99"/><path class="cls-26" d="M885.51,146c0-4-5-7.29-11.15-7.29S863.21,142,863.21,146"/><path class="cls-26" d="M885.52,77c0,4-5,7.29-11.16,7.29S863.21,81,863.21,77Z"/><rect class="cls-26" x="1043.06" y="82.86" width="4.65" height="57.31"/><path class="cls-26" d="M1056.54,146c0-4-5-7.29-11.15-7.29s-11.16,3.26-11.16,7.29"/><path class="cls-26" d="M1056.79,77c0,4-5,7.29-11.15,7.29S1034.49,81,1034.49,77Z"/><rect class="cls-9" x="790.69" y="145.68" width="338.62" height="127.92"/><rect class="cls-9" x="797.85" y="145.34" width="323.03" height="109.15"/><path class="cls-5" d="M895.29,204.22a11,11,0,0,0-8.8-4.35,10.72,10.72,0,0,0-4.26.84,10.26,10.26,0,0,0-5.61,5.71,11.29,11.29,0,0,0-.81,4.29,11.46,11.46,0,0,0,.81,4.35,10.43,10.43,0,0,0,2.26,3.46,10.56,10.56,0,0,0,3.37,2.3,10.42,10.42,0,0,0,4.19.84,11.9,11.9,0,0,0,8.85-4.19v12.15l-1,.36a29.81,29.81,0,0,1-4.39,1.23,20.8,20.8,0,0,1-4,.4,20.36,20.36,0,0,1-7.83-1.55,20.58,20.58,0,0,1-6.59-4.34,21.75,21.75,0,0,1-4.59-6.65,20.34,20.34,0,0,1-1.72-8.41,20.08,20.08,0,0,1,1.7-8.35,20.88,20.88,0,0,1,19.09-12.39,21.74,21.74,0,0,1,4.63.5,27.64,27.64,0,0,1,4.79,1.55Z"/><path class="cls-5" d="M900.89,203.64h9.48V208a11,11,0,0,1,3.72-3.69,10.07,10.07,0,0,1,5.13-1.28H920a5.84,5.84,0,0,1,1,.1v9.06a9,9,0,0,0-4.09-.94,6.1,6.1,0,0,0-5,2,8.71,8.71,0,0,0-1.65,5.74v11.52h-9.48Z"/><path class="cls-5" d="M934.15,218.67q0,6.14,5.76,6.13a5.16,5.16,0,0,0,4.66-2.51h9.16q-2.78,9.21-13.88,9.21a18.26,18.26,0,0,1-6.23-1,13.85,13.85,0,0,1-4.84-2.91,12.86,12.86,0,0,1-3.12-4.5,15,15,0,0,1-1.1-5.86,16.55,16.55,0,0,1,1.05-6.05,12.56,12.56,0,0,1,3-4.58,13.16,13.16,0,0,1,4.68-2.91,17.78,17.78,0,0,1,6.21-1,17.3,17.3,0,0,1,6.12,1,12.33,12.33,0,0,1,4.61,3,12.74,12.74,0,0,1,2.88,4.74,18.61,18.61,0,0,1,1,6.31v1Zm11.1-5.5a5.72,5.72,0,0,0-1.94-3.19,6,6,0,0,0-7.15,0,5.22,5.22,0,0,0-1.75,3.24Z"/><path class="cls-5" d="M980.23,187h9.53v43.47h-9.53v-3a10,10,0,0,1-8.22,3.83,13.13,13.13,0,0,1-5.4-1.1,13.45,13.45,0,0,1-4.29-3,14.05,14.05,0,0,1-2.86-4.56,15.41,15.41,0,0,1-1-5.65,15.69,15.69,0,0,1,1-5.48,13.9,13.9,0,0,1,2.75-4.53,13,13,0,0,1,9.74-4.18,11,11,0,0,1,8.33,3.5Zm-11.94,30a6.3,6.3,0,0,0,1.75,4.4,5.81,5.81,0,0,0,1.94,1.3,6.14,6.14,0,0,0,2.44.48,6,6,0,0,0,2.38-.48,5.91,5.91,0,0,0,1.94-1.3,6.81,6.81,0,0,0,1.3-1.94,5.56,5.56,0,0,0,.5-2.36,5.68,5.68,0,0,0-.5-2.38,6.51,6.51,0,0,0-1.3-2,5.78,5.78,0,0,0-1.94-1.31,6.17,6.17,0,0,0-4.77,0,5.64,5.64,0,0,0-1.93,1.31,6.49,6.49,0,0,0-1.31,1.91A5.33,5.33,0,0,0,968.29,217Z"/><path class="cls-5" d="M995.57,193.33a5.14,5.14,0,0,1,.42-2.07,5.42,5.42,0,0,1,2.85-2.85,5.34,5.34,0,0,1,7,7,5.42,5.42,0,0,1-2.85,2.85,5.31,5.31,0,0,1-4.14,0A5.42,5.42,0,0,1,996,195.4,5.18,5.18,0,0,1,995.57,193.33Zm10.11,10.31v26.87H996.2V203.64Z"/><path class="cls-5" d="M1022.75,211.55v19h-9.48v-19h-3.14v-7.91h3.14v-8.06h9.48v8.06h5.39v7.91Z"/><path class="cls-5" d="M1049.77,210.56a11.09,11.09,0,0,0-5.13-1.37,3.83,3.83,0,0,0-2.12.53,1.59,1.59,0,0,0-.81,1.41,1.79,1.79,0,0,0,.13.76,1.26,1.26,0,0,0,.57.55,4.82,4.82,0,0,0,1.31.47l2.28.53a10.78,10.78,0,0,1,5.86,2.8,7.1,7.1,0,0,1,1.94,5.16,9.34,9.34,0,0,1-.94,4.24,9.12,9.12,0,0,1-2.62,3.17,12.76,12.76,0,0,1-4,2,18,18,0,0,1-5.19.7,21,21,0,0,1-10.73-3.09l3.46-6.7a13.44,13.44,0,0,0,7.54,2.72,3.72,3.72,0,0,0,2.14-.57,1.74,1.74,0,0,0,.84-1.47,2.32,2.32,0,0,0-.13-.86,1.4,1.4,0,0,0-.55-.63,4.54,4.54,0,0,0-1.23-.53c-.54-.15-1.25-.32-2.12-.49-2.93-.6-5-1.48-6.16-2.65a6.57,6.57,0,0,1-1.75-4.84,9.51,9.51,0,0,1,.84-4.06,8.35,8.35,0,0,1,2.41-3.06,11.12,11.12,0,0,1,3.79-1.94,17.07,17.07,0,0,1,5-.68,22.29,22.29,0,0,1,8.64,1.73Z"/><circle class="cls-27" cx="923.65" cy="159.75" r="2.75"/><circle class="cls-28" cx="959.8" cy="159.75" r="2.75"/><circle class="cls-29" cx="996.35" cy="159.75" r="2.75"/><path class="cls-10" d="M630,710q1-159.5,2-319L248.85,228q-.42,353.51-.85,707Z"/><path class="cls-17" d="M620.19,716.09,621,403,274,262V920Z"/><path class="cls-18" d="M618,527.39V565L278,636V502Z"/><polygon class="cls-10" points="486.72 348.21 486.72 792.32 473.94 800.22 473.94 343 486.72 348.21"/><rect class="cls-30" x="314" y="305" width="1293" height="636"/><path class="cls-31" d="M859.16,378.89v11.58h-4.78V362h5.42a26.62,26.62,0,0,1,6,.5,8.35,8.35,0,0,1,3.61,1.88,7.74,7.74,0,0,1,2.72,6,7.49,7.49,0,0,1-2.91,6.21,12.4,12.4,0,0,1-7.85,2.28Zm0-4H861c4.38,0,6.58-1.52,6.58-4.56s-2.26-4.41-6.79-4.41h-1.58Z"/><path class="cls-31" d="M887.79,378.32l9.8,12.15h-5.84l-9-11.67h-.86v11.67h-4.78V362h5.6q6.29,0,9.07,2.12a7.5,7.5,0,0,1,3.07,6.24,7.63,7.63,0,0,1-1.92,5.21A8.77,8.77,0,0,1,887.79,378.32Zm-5.95-3.27h1.52q6.79,0,6.79-4.66,0-4.38-6.61-4.38h-1.7Z"/><path class="cls-31" d="M900.05,376.09A13.34,13.34,0,0,1,905,365.75a17.08,17.08,0,0,1,11.73-4.32,16.75,16.75,0,0,1,11.6,4.36,13.57,13.57,0,0,1,4.86,10.47,13.34,13.34,0,0,1-4.88,10.42,18.11,18.11,0,0,1-22.84.48A13.39,13.39,0,0,1,900.05,376.09Zm4.82.05a9.82,9.82,0,0,0,3.53,7.77,12.62,12.62,0,0,0,16.51-.05,10.28,10.28,0,0,0,0-15.28,12.76,12.76,0,0,0-16.67,0A9.77,9.77,0,0,0,904.87,376.14Z"/><path class="cls-31" d="M939.16,390.47V362h6.65a26.5,26.5,0,0,1,7.54.85,14.5,14.5,0,0,1,5.4,2.82,13.74,13.74,0,0,1-.21,21.21,15.46,15.46,0,0,1-5.37,2.82,27,27,0,0,1-7.45.8Zm4.78-4h2.15a20.17,20.17,0,0,0,5.36-.61,11.44,11.44,0,0,0,3.85-2.05,9.31,9.31,0,0,0,3.53-7.55,9.44,9.44,0,0,0-3.49-7.61q-3.14-2.6-9.25-2.6h-2.15Z"/><path class="cls-31" d="M974.44,362v17.16q0,3.67,1.33,5.38a7.65,7.65,0,0,0,11.22,0q1.34-1.65,1.33-5.38V362h4.78v18.35a9.73,9.73,0,0,1-3.12,7.42,13,13,0,0,1-17.21,0,9.75,9.75,0,0,1-3.11-7.42V362Z"/><path class="cls-31" d="M1018.59,366.21l-3.88,2.07a6.11,6.11,0,0,0-2.07-2.21,5.16,5.16,0,0,0-2.64-.59,5.24,5.24,0,0,0-3.31,1,3,3,0,0,0-1.31,2.51q0,2.08,3.45,3.36l3.16,1.16a13.54,13.54,0,0,1,5.63,3.43,7.21,7.21,0,0,1,1.79,4.95,8.29,8.29,0,0,1-2.91,6.5,10.63,10.63,0,0,1-7.28,2.58,10.42,10.42,0,0,1-6.81-2.19,9.72,9.72,0,0,1-3.3-6.19l4.84-1a7,7,0,0,0,1.14,3.47,5.2,5.2,0,0,0,4.31,1.85,5.28,5.28,0,0,0,3.71-1.35,4.38,4.38,0,0,0,1.48-3.41,4.33,4.33,0,0,0-.26-1.52,3.62,3.62,0,0,0-.8-1.28,6.24,6.24,0,0,0-1.4-1.09,14.63,14.63,0,0,0-2-1L1007,376.2q-6.49-2.47-6.5-7.23a6.6,6.6,0,0,1,2.73-5.38,10.54,10.54,0,0,1,6.79-2.17A9.63,9.63,0,0,1,1018.59,366.21Z"/><path class="cls-31" d="M1042.64,366H1030v6.85h12.33v4H1030v9.53h12.69v4h-17.47V362h17.47Z"/><path class="cls-31" d="M1059.65,378.32l9.8,12.15h-5.85l-9-11.67h-.86v11.67h-4.78V362h5.6q6.27,0,9.06,2.12a7.5,7.5,0,0,1,3.08,6.24,7.59,7.59,0,0,1-1.93,5.21A8.74,8.74,0,0,1,1059.65,378.32Zm-6-3.27h1.52q6.78,0,6.78-4.66,0-4.38-6.6-4.38h-1.7Z"/><path class="cls-5" d="M844.8,433.88v4.58a10.75,10.75,0,0,0-6.94-2.81,8.84,8.84,0,0,0-6.66,2.84,9.54,9.54,0,0,0-2.72,6.91,9.31,9.31,0,0,0,2.72,6.8,9,9,0,0,0,6.67,2.78,8.23,8.23,0,0,0,3.47-.67,10.89,10.89,0,0,0,1.66-.89,20,20,0,0,0,1.8-1.37v4.67a14,14,0,0,1-7,1.87,12.85,12.85,0,0,1-9.38-3.83,12.71,12.71,0,0,1-3.86-9.33,13.14,13.14,0,0,1,3.23-8.73,13.33,13.33,0,0,1,17-2.82Z"/><path class="cls-5" d="M860.88,442h3.76v16.17h-3.76v-1.69a7.19,7.19,0,0,1-10.51-.27A9,9,0,0,1,848.2,450a8.71,8.71,0,0,1,2.17-6.06,7,7,0,0,1,5.45-2.43,6.87,6.87,0,0,1,5.06,2.33ZM852,450a5.61,5.61,0,0,0,1.24,3.78,4.08,4.08,0,0,0,3.22,1.48,4.31,4.31,0,0,0,3.36-1.43,6.13,6.13,0,0,0,0-7.5,4.22,4.22,0,0,0-3.32-1.45,4.13,4.13,0,0,0-3.22,1.46A5.38,5.38,0,0,0,852,450Z"/><path class="cls-5" d="M869.35,442h3.74v1.44a6.86,6.86,0,0,1,1.82-1.47,4.16,4.16,0,0,1,1.93-.42,6.09,6.09,0,0,1,3.09,1l-1.71,3.42a3.65,3.65,0,0,0-2.08-.76c-2,0-3,1.54-3,4.62v8.38h-3.74Z"/><path class="cls-5" d="M882,435.24a2.3,2.3,0,0,1,.71-1.7,2.44,2.44,0,0,1,3.44,0,2.33,2.33,0,0,1,.71,1.71,2.38,2.38,0,0,1-.71,1.73,2.3,2.3,0,0,1-1.71.71,2.42,2.42,0,0,1-2.44-2.45Zm4.3,6.72v16.17h-3.74V442Z"/><path class="cls-5" d="M900.44,444.72l-3.08,1.64c-.49-1-1.09-1.49-1.81-1.49a1.21,1.21,0,0,0-.88.34,1.1,1.1,0,0,0-.37.87c0,.62.72,1.23,2.16,1.84a12.86,12.86,0,0,1,4,2.36,4,4,0,0,1,1,2.9,5.07,5.07,0,0,1-1.73,3.92,6.2,6.2,0,0,1-9.81-2.47l3.19-1.48a7.11,7.11,0,0,0,1,1.48,2.33,2.33,0,0,0,1.63.63c1.26,0,1.89-.58,1.89-1.73,0-.66-.48-1.28-1.46-1.86l-1.13-.55-1.14-.54a6.92,6.92,0,0,1-2.29-1.6,3.88,3.88,0,0,1-.85-2.6,4.62,4.62,0,0,1,1.44-3.49,5.07,5.07,0,0,1,3.59-1.38A4.88,4.88,0,0,1,900.44,444.72Z"/><path class="cls-5" d="M914.24,444.72l-3.09,1.64c-.48-1-1.09-1.49-1.81-1.49a1.25,1.25,0,0,0-.88.34,1.12,1.12,0,0,0-.36.87c0,.62.72,1.23,2.16,1.84a12.86,12.86,0,0,1,4,2.36,4.06,4.06,0,0,1,1,2.9,5.1,5.1,0,0,1-1.73,3.92,6.2,6.2,0,0,1-9.81-2.47l3.19-1.48a7.11,7.11,0,0,0,1,1.48,2.3,2.3,0,0,0,1.63.63c1.26,0,1.89-.58,1.89-1.73,0-.66-.49-1.28-1.46-1.86l-1.13-.55-1.15-.54a7,7,0,0,1-2.29-1.6,3.92,3.92,0,0,1-.84-2.6,4.62,4.62,0,0,1,1.44-3.49,5.06,5.06,0,0,1,3.59-1.38A4.9,4.9,0,0,1,914.24,444.72Z"/><path class="cls-5" d="M930.56,442h3.75v16.17h-3.75v-1.69a7.19,7.19,0,0,1-10.51-.27,9,9,0,0,1-2.17-6.17,8.71,8.71,0,0,1,2.17-6.06,7,7,0,0,1,5.45-2.43,6.87,6.87,0,0,1,5.06,2.33Zm-8.87,8a5.61,5.61,0,0,0,1.25,3.78,4.07,4.07,0,0,0,3.22,1.48,4.29,4.29,0,0,0,3.35-1.43,6.13,6.13,0,0,0,0-7.5,4.4,4.4,0,0,0-6.54,0A5.43,5.43,0,0,0,921.69,450Z"/><path class="cls-5" d="M954.1,432.5v22h7.54v3.64H950.23V432.5Z"/><path class="cls-5" d="M963.83,449.93a8,8,0,0,1,2.51-6,8.83,8.83,0,0,1,12.25,0,8.64,8.64,0,0,1,0,12.16,8.54,8.54,0,0,1-6.19,2.44,8.2,8.2,0,0,1-6.09-2.49A8.34,8.34,0,0,1,963.83,449.93Zm3.82.07a5.46,5.46,0,0,0,1.29,3.83,5,5,0,0,0,7,0,6.08,6.08,0,0,0,0-7.54,4.57,4.57,0,0,0-3.5-1.43,4.52,4.52,0,0,0-3.47,1.43A5.18,5.18,0,0,0,967.65,450Z"/><path class="cls-5" d="M984.46,435.24a2.44,2.44,0,0,1,2.43-2.41,2.39,2.39,0,0,1,1.73.71,2.33,2.33,0,0,1,.71,1.71,2.38,2.38,0,0,1-.71,1.73,2.3,2.3,0,0,1-1.71.71,2.32,2.32,0,0,1-1.73-.71A2.37,2.37,0,0,1,984.46,435.24Zm4.3,6.72v16.17H985V442Z"/><path class="cls-5" d="M1002.89,444.72l-3.09,1.64c-.48-1-1.09-1.49-1.8-1.49a1.21,1.21,0,0,0-.88.34,1.1,1.1,0,0,0-.37.87c0,.62.72,1.23,2.16,1.84a12.86,12.86,0,0,1,4,2.36,4,4,0,0,1,1,2.9,5.1,5.1,0,0,1-1.73,3.92,6.2,6.2,0,0,1-9.81-2.47l3.19-1.48a7.11,7.11,0,0,0,1,1.48,2.31,2.31,0,0,0,1.63.63c1.26,0,1.89-.58,1.89-1.73,0-.66-.49-1.28-1.46-1.86l-1.13-.55-1.15-.54a7.14,7.14,0,0,1-2.29-1.6,3.92,3.92,0,0,1-.84-2.6,4.62,4.62,0,0,1,1.44-3.49,5.07,5.07,0,0,1,3.59-1.38A4.88,4.88,0,0,1,1002.89,444.72Z"/><path class="cls-5" d="M1025.57,436.13v22h-3.87v-22h-5.89V432.5h15.64v3.63Z"/><path class="cls-5" d="M1033,442h3.74v1.44a6.87,6.87,0,0,1,1.83-1.47,4.12,4.12,0,0,1,1.92-.42,6,6,0,0,1,3.09,1l-1.71,3.42a3.63,3.63,0,0,0-2.08-.76q-3,0-3,4.62v8.38H1033Z"/><path class="cls-5" d="M1057.43,442h3.75v16.17h-3.75v-1.69a7.19,7.19,0,0,1-10.51-.27,9,9,0,0,1-2.17-6.17,8.71,8.71,0,0,1,2.17-6.06,7,7,0,0,1,5.45-2.43,6.89,6.89,0,0,1,5.06,2.33Zm-8.87,8a5.61,5.61,0,0,0,1.25,3.78,4.05,4.05,0,0,0,3.22,1.48,4.29,4.29,0,0,0,3.35-1.43,6.13,6.13,0,0,0,0-7.5,4.21,4.21,0,0,0-3.32-1.45,4.16,4.16,0,0,0-3.22,1.46A5.43,5.43,0,0,0,1048.56,450Z"/><path class="cls-5" d="M1078.48,442.66v5a9.19,9.19,0,0,0-2.29-2.14,4.48,4.48,0,0,0-2.34-.6,4.61,4.61,0,0,0-3.51,1.48,5.21,5.21,0,0,0-1.39,3.7,5.34,5.34,0,0,0,1.34,3.74,4.56,4.56,0,0,0,3.47,1.46,4.85,4.85,0,0,0,2.38-.58,9.7,9.7,0,0,0,2.34-2.19v4.93a9.87,9.87,0,0,1-4.55,1.17,8.67,8.67,0,0,1-6.27-2.42,8.08,8.08,0,0,1-2.53-6.06,8.19,8.19,0,0,1,2.56-6.11,8.63,8.63,0,0,1,6.27-2.49A9.32,9.32,0,0,1,1078.48,442.66Z"/><path class="cls-5" d="M1087.2,455.13,1079.92,442h4.34l4.94,9.3,4.62-9.3H1098l-12.89,25h-4.26Z"/><image width="870" height="1600" transform="translate(34 61) scale(0.1)" xlink:href="../../../../Downloads/logo-umn-png.png"/><path class="cls-31" d="M1162.12,762.47V734h6.65a26.5,26.5,0,0,1,7.54.85,14.58,14.58,0,0,1,5.4,2.82,13.74,13.74,0,0,1-.21,21.21,15.46,15.46,0,0,1-5.37,2.82,27,27,0,0,1-7.45.8Zm4.78-4h2.15a20.17,20.17,0,0,0,5.36-.61,11.44,11.44,0,0,0,3.85-2.05,9.31,9.31,0,0,0,3.53-7.55,9.44,9.44,0,0,0-3.49-7.61q-3.13-2.6-9.25-2.6h-2.15Z"/><path class="cls-31" d="M1210.09,738h-12.7v6.85h12.33v4h-12.33v9.53h12.7v4h-17.47V734h17.47Z"/><path class="cls-31" d="M1234.27,738.21l-3.88,2.07a6.11,6.11,0,0,0-2.07-2.21,6,6,0,0,0-6,.42,3,3,0,0,0-1.31,2.51q0,2.09,3.45,3.36l3.15,1.16a13.65,13.65,0,0,1,5.64,3.43,7.21,7.21,0,0,1,1.79,4.95,8.29,8.29,0,0,1-2.91,6.5,10.65,10.65,0,0,1-7.28,2.58,10.42,10.42,0,0,1-6.81-2.19,9.72,9.72,0,0,1-3.3-6.19l4.83-1a7,7,0,0,0,1.15,3.47,5.2,5.2,0,0,0,4.31,1.85,5.28,5.28,0,0,0,3.71-1.35,4.38,4.38,0,0,0,1.48-3.41,4.33,4.33,0,0,0-.26-1.52,3.62,3.62,0,0,0-.8-1.28,6.24,6.24,0,0,0-1.4-1.09,14.63,14.63,0,0,0-2-1l-3.06-1.14q-6.5-2.48-6.5-7.23a6.6,6.6,0,0,1,2.73-5.38,10.54,10.54,0,0,1,6.79-2.17A9.63,9.63,0,0,1,1234.27,738.21Z"/><path class="cls-31" d="M1259.12,755.55h-13.55l-3.53,6.92h-5.15l15.67-30.29,15.11,30.29h-5.22Zm-1.95-4-4.69-9.69-4.92,9.69Z"/><path class="cls-31" d="M1276.41,734v28.5h-4.78V734Z"/><path class="cls-31" d="M1284,762.47V732l23.09,21.74V734h4.78V764.2l-23.09-21.69v20Z"/><path class="cls-31" d="M1337,738h-12.69v6.85h12.32v4h-12.32v9.53H1337v4h-17.47V734H1337Z"/><path class="cls-31" d="M1354,750.32l9.8,12.15h-5.84l-9-11.67H1348v11.67h-4.77V734h5.59q6.29,0,9.07,2.12a7.5,7.5,0,0,1,3.07,6.24,7.63,7.63,0,0,1-1.92,5.21A8.77,8.77,0,0,1,1354,750.32Zm-6-3.27h1.52q6.8,0,6.79-4.66,0-4.38-6.6-4.38H1348Z"/><path class="cls-31" d="M1397.76,747.63h13.08v.94a17.63,17.63,0,0,1-.84,5.68,11.89,11.89,0,0,1-2.77,4.29A15.12,15.12,0,0,1,1396,763a16.3,16.3,0,0,1-11.38-4.32,13.85,13.85,0,0,1,.08-20.93,16.93,16.93,0,0,1,11.73-4.33,17.6,17.6,0,0,1,6.94,1.36,19.74,19.74,0,0,1,6,4.43l-3.4,2.94a12.4,12.4,0,0,0-17.92-1.55,9.89,9.89,0,0,0-3.41,7.67,9.69,9.69,0,0,0,3.8,7.85,12,12,0,0,0,7.69,2.86,10.21,10.21,0,0,0,6.33-2.14,7.42,7.42,0,0,0,3.14-5.17h-7.89Z"/><path class="cls-31" d="M1427.57,750.32l9.81,12.15h-5.85l-9-11.67h-.86v11.67h-4.78V734h5.6q6.27,0,9.06,2.12a7.5,7.5,0,0,1,3.08,6.24,7.59,7.59,0,0,1-1.93,5.21A8.74,8.74,0,0,1,1427.57,750.32Zm-5.94-3.27h1.51q6.79,0,6.79-4.66,0-4.38-6.6-4.38h-1.7Z"/><path class="cls-31" d="M1460.74,755.55h-13.56l-3.53,6.92h-5.15l15.67-30.29,15.12,30.29h-5.23Zm-2-4-4.7-9.69-4.92,9.69Z"/><path class="cls-31" d="M1489.06,738h-11v6.85h10.65v4H1478v13.57h-4.77V734h15.81Z"/><path class="cls-31" d="M1499.37,734v28.5h-4.78V734Z"/><path class="cls-31" d="M1524.88,738.21l-3.87,2.07a6.28,6.28,0,0,0-2.07-2.21,6,6,0,0,0-6,.42,3,3,0,0,0-1.31,2.51q0,2.09,3.44,3.36l3.16,1.16a13.65,13.65,0,0,1,5.64,3.43,7.2,7.2,0,0,1,1.78,4.95,8.29,8.29,0,0,1-2.91,6.5,10.61,10.61,0,0,1-7.28,2.58,10.42,10.42,0,0,1-6.81-2.19,9.82,9.82,0,0,1-3.3-6.19l4.84-1a6.86,6.86,0,0,0,1.15,3.47,5.19,5.19,0,0,0,4.31,1.85,5.3,5.3,0,0,0,3.71-1.35,4.41,4.41,0,0,0,1.47-3.41,4.33,4.33,0,0,0-.25-1.52,3.77,3.77,0,0,0-.8-1.28,6.09,6.09,0,0,0-1.41-1.09,13.63,13.63,0,0,0-2.05-1l-3-1.14q-6.51-2.48-6.5-7.23a6.62,6.62,0,0,1,2.72-5.38,10.54,10.54,0,0,1,6.79-2.17A9.63,9.63,0,0,1,1524.88,738.21Z"/><path class="cls-5" d="M1213.43,811.32l-3.14,1.86a5.36,5.36,0,0,0-1.67-2,4.48,4.48,0,0,0-4.82.38,2.84,2.84,0,0,0-1.06,2.26c0,1.25.93,2.26,2.79,3l2.55,1a10.86,10.86,0,0,1,4.57,3.08,7,7,0,0,1,1.44,4.46,7.84,7.84,0,0,1-2.35,5.84,8.11,8.11,0,0,1-5.9,2.32,7.87,7.87,0,0,1-5.51-2,9.07,9.07,0,0,1-2.67-5.56l3.92-.87a6.54,6.54,0,0,0,.93,3.13,4.41,4.41,0,0,0,6.49.44,4.2,4.2,0,0,0,1.19-3.07,4.58,4.58,0,0,0-.2-1.37,3.62,3.62,0,0,0-.65-1.14,5.08,5.08,0,0,0-1.14-1,9.83,9.83,0,0,0-1.66-.87l-2.47-1q-5.27-2.24-5.27-6.51A6.17,6.17,0,0,1,1201,809a8,8,0,0,1,5.5-2Q1210.94,807,1213.43,811.32Z"/><path class="cls-5" d="M1230,817h3.75v16.17H1230v-1.69a7.19,7.19,0,0,1-10.51-.27,9,9,0,0,1-2.18-6.17,8.72,8.72,0,0,1,2.18-6.06,7,7,0,0,1,5.44-2.43,6.91,6.91,0,0,1,5.07,2.33Zm-8.87,8a5.61,5.61,0,0,0,1.25,3.78,4.05,4.05,0,0,0,3.22,1.48,4.29,4.29,0,0,0,3.35-1.43,6.13,6.13,0,0,0,0-7.5,4.21,4.21,0,0,0-3.32-1.45,4.14,4.14,0,0,0-3.22,1.46A5.43,5.43,0,0,0,1221.1,825Z"/><path class="cls-5" d="M1242.17,805.09v28h-3.74v-28Z"/><path class="cls-5" d="M1249.21,817l4.18,9.08,4.17-9.08h4.2l-8.4,17.28L1245,817Z"/><path class="cls-5" d="M1275.62,817h3.75v16.17h-3.75v-1.69a7.19,7.19,0,0,1-10.51-.27,9,9,0,0,1-2.17-6.17,8.71,8.71,0,0,1,2.17-6.06,7,7,0,0,1,5.45-2.43,6.87,6.87,0,0,1,5.06,2.33Zm-8.87,8a5.61,5.61,0,0,0,1.25,3.78,4.07,4.07,0,0,0,3.22,1.48,4.29,4.29,0,0,0,3.35-1.43,6.13,6.13,0,0,0,0-7.5,4.4,4.4,0,0,0-6.54,0A5.43,5.43,0,0,0,1266.75,825Z"/><path class="cls-5" d="M1287.94,820.45v12.68h-3.74V820.45h-1.59V817h1.59V811h3.74V817h2.9v3.49Z"/><path class="cls-5" d="M1292.85,824.93a8,8,0,0,1,2.51-6,8.83,8.83,0,0,1,12.25,0,8.64,8.64,0,0,1,0,12.16,8.54,8.54,0,0,1-6.19,2.44,8.22,8.22,0,0,1-6.09-2.49A8.34,8.34,0,0,1,1292.85,824.93Zm3.82.07a5.42,5.42,0,0,0,1.3,3.83,5,5,0,0,0,7,0,6.08,6.08,0,0,0,0-7.54,5,5,0,0,0-7,0A5.18,5.18,0,0,0,1296.67,825Z"/><path class="cls-5" d="M1314.05,817h3.74v1.44a6.86,6.86,0,0,1,1.82-1.47,4.19,4.19,0,0,1,1.93-.42,6.06,6.06,0,0,1,3.09,1l-1.71,3.42a3.63,3.63,0,0,0-2.08-.76q-3,0-3,4.62v8.38h-3.74Z"/><path class="cls-5" d="M1351.16,819.78h10.59v.85a17.61,17.61,0,0,1-.68,5.11,10.81,10.81,0,0,1-2.24,3.85,11.61,11.61,0,0,1-9.08,4,12.49,12.49,0,0,1-9.22-3.88,13.38,13.38,0,0,1,15.18-21.5,16.21,16.21,0,0,1,4.89,4l-2.75,2.64c-2.1-2.8-4.67-4.2-7.69-4.2a9.17,9.17,0,0,0-6.82,2.81,9.35,9.35,0,0,0-2.76,6.9,9.62,9.62,0,0,0,9.3,9.63,7.76,7.76,0,0,0,5.13-1.92,6.87,6.87,0,0,0,2.54-4.65h-6.39Z"/><path class="cls-5" d="M1365.33,810.24a2.44,2.44,0,0,1,2.43-2.41,2.39,2.39,0,0,1,1.73.71,2.33,2.33,0,0,1,.71,1.71,2.38,2.38,0,0,1-.71,1.73,2.3,2.3,0,0,1-1.71.71,2.32,2.32,0,0,1-1.73-.71A2.37,2.37,0,0,1,1365.33,810.24Zm4.3,6.72v16.17h-3.73V817Z"/><path class="cls-5" d="M1378.1,805.09v13.75a6.91,6.91,0,0,1,5.08-2.33,7,7,0,0,1,5.45,2.44,8.72,8.72,0,0,1,2.17,6,8.89,8.89,0,0,1-2.19,6.17,7.19,7.19,0,0,1-10.51.27v1.69h-3.73v-28Zm8.88,20.07a5.57,5.57,0,0,0-1.26-3.78,4,4,0,0,0-3.2-1.5,4.3,4.3,0,0,0-3.36,1.45,5.37,5.37,0,0,0-1.27,3.72,5.43,5.43,0,0,0,1.26,3.76,4.18,4.18,0,0,0,3.32,1.45,4.1,4.1,0,0,0,3.22-1.45A5.31,5.31,0,0,0,1387,825.16Z"/><path class="cls-5" d="M1394.75,817h3.74v1.44a6.86,6.86,0,0,1,1.82-1.47,4.19,4.19,0,0,1,1.93-.42,6.06,6.06,0,0,1,3.09,1l-1.71,3.42a3.63,3.63,0,0,0-2.08-.76q-3,0-3,4.62v8.38h-3.74Z"/><path class="cls-5" d="M1419.16,817h3.75v16.17h-3.75v-1.69a7.19,7.19,0,0,1-10.51-.27,9,9,0,0,1-2.18-6.17,8.72,8.72,0,0,1,2.18-6.06,7,7,0,0,1,5.44-2.43,6.89,6.89,0,0,1,5.07,2.33Zm-8.87,8a5.61,5.61,0,0,0,1.25,3.78,4.05,4.05,0,0,0,3.22,1.48,4.29,4.29,0,0,0,3.35-1.43,6.13,6.13,0,0,0,0-7.5,4.21,4.21,0,0,0-3.32-1.45,4.14,4.14,0,0,0-3.22,1.46A5.43,5.43,0,0,0,1410.29,825Z"/><path class="cls-5" d="M1427.62,817h3.76v1.49a6.11,6.11,0,0,1,4.41-1.94,5.56,5.56,0,0,1,4.4,1.78q1.36,1.51,1.36,4.93v9.91h-3.75v-9a5.93,5.93,0,0,0-.66-3.3,2.68,2.68,0,0,0-2.36-.93,2.88,2.88,0,0,0-2.64,1.22,8.47,8.47,0,0,0-.76,4.24v7.8h-3.76Z"/><path class="cls-5" d="M1472.53,826.9h-11l-2.86,6.23h-4.16l12.68-27.24,12.23,27.24h-4.23Zm-1.58-3.63-3.8-8.72-4,8.72Z"/><path class="cls-5" d="M1182.58,871.32l-3.14,1.86a5.46,5.46,0,0,0-1.68-2,3.94,3.94,0,0,0-2.14-.53,4,4,0,0,0-2.67.91,2.85,2.85,0,0,0-1.07,2.26c0,1.25.93,2.26,2.79,3l2.56,1a11,11,0,0,1,4.57,3.08,7,7,0,0,1,1.44,4.46,7.85,7.85,0,0,1-2.36,5.84,8.07,8.07,0,0,1-5.89,2.32,7.85,7.85,0,0,1-5.51-2,9.13,9.13,0,0,1-2.68-5.56l3.92-.87a6.77,6.77,0,0,0,.93,3.13,4.41,4.41,0,0,0,6.49.44,4.17,4.17,0,0,0,1.2-3.07,4.28,4.28,0,0,0-.21-1.37,3.43,3.43,0,0,0-.65-1.14,5,5,0,0,0-1.13-1,10.23,10.23,0,0,0-1.66-.87l-2.48-1q-5.26-2.24-5.26-6.51a6.17,6.17,0,0,1,2.21-4.83,8,8,0,0,1,5.49-2Q1180.09,867,1182.58,871.32Z"/><path class="cls-5" d="M1187.19,865.09h3.74V878.3a6.43,6.43,0,0,1,4.4-1.79,5.68,5.68,0,0,1,4.38,1.78q1.39,1.55,1.39,4.93v9.91h-3.73v-9.56a4.58,4.58,0,0,0-.69-2.82,2.66,2.66,0,0,0-2.22-.87,3.06,3.06,0,0,0-2.75,1.21,8.34,8.34,0,0,0-.78,4.22v7.82h-3.74Z"/><path class="cls-5" d="M1217.75,877h3.76v16.17h-3.76v-1.69a7.18,7.18,0,0,1-10.5-.27,9,9,0,0,1-2.18-6.17,8.72,8.72,0,0,1,2.18-6.06,7,7,0,0,1,5.44-2.43,6.87,6.87,0,0,1,5.06,2.33Zm-8.86,8a5.61,5.61,0,0,0,1.24,3.78,4.09,4.09,0,0,0,3.23,1.48,4.29,4.29,0,0,0,3.35-1.43,6.13,6.13,0,0,0,0-7.5,4.21,4.21,0,0,0-3.32-1.45,4.13,4.13,0,0,0-3.22,1.46A5.43,5.43,0,0,0,1208.89,885Z"/><path class="cls-5" d="M1230.09,880.45v12.68h-3.75V880.45H1225V877h1.33v-6.24c0-2,.35-3.48,1.06-4.32a5.21,5.21,0,0,1,4.25-1.76,7.53,7.53,0,0,1,2.51.58V869l-.38-.2a4.7,4.7,0,0,0-2-.61,1.35,1.35,0,0,0-1.34.71,6.93,6.93,0,0,0-.35,2.69V877h4.07v3.49Z"/><path class="cls-5" d="M1236.46,870.24a2.44,2.44,0,0,1,2.43-2.41,2.39,2.39,0,0,1,1.73.71,2.33,2.33,0,0,1,.71,1.71,2.38,2.38,0,0,1-.71,1.73,2.3,2.3,0,0,1-1.71.71,2.32,2.32,0,0,1-1.73-.71A2.37,2.37,0,0,1,1236.46,870.24Zm4.3,6.72v16.17H1237V877Z"/><path class="cls-5" d="M1257.42,901.93V891.32a6.92,6.92,0,0,1-5.08,2.27,7,7,0,0,1-5.43-2.4,8.75,8.75,0,0,1-2.18-6.06,9,9,0,0,1,2.18-6.16,7,7,0,0,1,5.49-2.46,7,7,0,0,1,5,2.21V877h3.75v25Zm-8.87-17a5.6,5.6,0,0,0,1.26,3.8,4,4,0,0,0,3.21,1.5,4.26,4.26,0,0,0,3.33-1.43,5.37,5.37,0,0,0,1.3-3.75,5.52,5.52,0,0,0-1.28-3.75,4.21,4.21,0,0,0-3.32-1.45,4.14,4.14,0,0,0-3.22,1.46A5.36,5.36,0,0,0,1248.55,885Z"/><path class="cls-5" d="M1277.8,877h3.75v16.17h-3.75v-1.69a7.19,7.19,0,0,1-10.51-.27,9,9,0,0,1-2.17-6.17,8.71,8.71,0,0,1,2.17-6.06,7,7,0,0,1,5.45-2.43,6.87,6.87,0,0,1,5.06,2.33Zm-8.86,8a5.61,5.61,0,0,0,1.24,3.78,4.08,4.08,0,0,0,3.22,1.48,4.31,4.31,0,0,0,3.36-1.43,6.13,6.13,0,0,0,0-7.5,4.22,4.22,0,0,0-3.32-1.45,4.13,4.13,0,0,0-3.22,1.46A5.38,5.38,0,0,0,1268.94,885Z"/><path class="cls-5" d="M1286.27,865.09H1290V878.3a6.47,6.47,0,0,1,4.4-1.79,5.68,5.68,0,0,1,4.39,1.78q1.39,1.55,1.39,4.93v9.91h-3.73v-9.56a4.58,4.58,0,0,0-.69-2.82,2.66,2.66,0,0,0-2.22-.87,3.06,3.06,0,0,0-2.75,1.21,8.21,8.21,0,0,0-.79,4.22v7.82h-3.73Z"/><path class="cls-5" d="M1331.18,886.9h-11l-2.85,6.23h-4.17l12.68-27.24,12.24,27.24h-4.23Zm-1.58-3.63-3.8-8.72-4,8.72Z"/><path class="cls-5" d="M1344.33,865.09v28h-3.74v-28Z"/><path class="cls-5" d="M1348.49,870.24a2.44,2.44,0,0,1,2.43-2.41,2.36,2.36,0,0,1,1.72.71,2.3,2.3,0,0,1,.72,1.71,2.35,2.35,0,0,1-.72,1.73,2.26,2.26,0,0,1-1.71.71,2.32,2.32,0,0,1-1.72-.71A2.37,2.37,0,0,1,1348.49,870.24Zm4.3,6.72v16.17h-3.73V877Z"/><path class="cls-5" d="M1361.39,880.45v12.68h-3.75V880.45h-1.33V877h1.33v-6.24c0-2,.35-3.48,1.06-4.32a5.23,5.23,0,0,1,4.25-1.76,7.48,7.48,0,0,1,2.51.58V869l-.38-.2a4.66,4.66,0,0,0-2-.61,1.35,1.35,0,0,0-1.34.71,6.93,6.93,0,0,0-.35,2.69V877h4.07v3.49Z"/><path class="cls-5" d="M1367.77,870.24a2.3,2.3,0,0,1,.71-1.7,2.44,2.44,0,0,1,3.44,0,2.33,2.33,0,0,1,.71,1.71,2.38,2.38,0,0,1-.71,1.73,2.3,2.3,0,0,1-1.71.71,2.42,2.42,0,0,1-2.44-2.45Zm4.3,6.72v16.17h-3.74V877Z"/><path class="cls-5" d="M1388.72,877h3.75v16.17h-3.75v-1.69a7.19,7.19,0,0,1-10.51-.27A9,9,0,0,1,1376,885a8.72,8.72,0,0,1,2.18-6.06,7,7,0,0,1,5.44-2.43,6.89,6.89,0,0,1,5.07,2.33Zm-8.87,8a5.61,5.61,0,0,0,1.25,3.78,4.05,4.05,0,0,0,3.22,1.48,4.29,4.29,0,0,0,3.35-1.43,6.13,6.13,0,0,0,0-7.5,4.21,4.21,0,0,0-3.32-1.45,4.14,4.14,0,0,0-3.22,1.46A5.43,5.43,0,0,0,1379.85,885Z"/><path class="cls-5" d="M1423.45,886.9h-11l-2.85,6.23h-4.17l12.69-27.24,12.23,27.24h-4.23Zm-1.58-3.63-3.8-8.72-4,8.72Z"/><path class="cls-5" d="M1432.86,877h3.75v1.49a6.15,6.15,0,0,1,4.42-1.94,5.56,5.56,0,0,1,4.4,1.78q1.36,1.51,1.36,4.93v9.91H1443v-9a5.83,5.83,0,0,0-.67-3.3,2.66,2.66,0,0,0-2.35-.93,2.88,2.88,0,0,0-2.64,1.22,8.45,8.45,0,0,0-.77,4.24v7.8h-3.75Z"/><path class="cls-5" d="M1451.5,877h3.76v1.49a6.13,6.13,0,0,1,4.41-1.94,5.56,5.56,0,0,1,4.4,1.78q1.37,1.51,1.36,4.93v9.91h-3.75v-9a5.93,5.93,0,0,0-.66-3.3,2.68,2.68,0,0,0-2.36-.93,2.88,2.88,0,0,0-2.64,1.22,8.47,8.47,0,0,0-.76,4.24v7.8h-3.76Z"/><path class="cls-5" d="M1469.58,870.24a2.44,2.44,0,0,1,2.43-2.41,2.36,2.36,0,0,1,1.72.71,2.3,2.3,0,0,1,.72,1.71,2.35,2.35,0,0,1-.72,1.73,2.26,2.26,0,0,1-1.71.71,2.32,2.32,0,0,1-1.72-.71A2.37,2.37,0,0,1,1469.58,870.24Zm4.3,6.72v16.17h-3.73V877Z"/><path class="cls-5" d="M1488,879.72l-3.09,1.64c-.48-1-1.09-1.49-1.81-1.49a1.25,1.25,0,0,0-.88.34,1.12,1.12,0,0,0-.36.87c0,.62.72,1.23,2.16,1.84a12.86,12.86,0,0,1,4,2.36,4.06,4.06,0,0,1,1,2.9,5.1,5.1,0,0,1-1.73,3.92,6.2,6.2,0,0,1-9.81-2.47l3.19-1.48a7.11,7.11,0,0,0,1,1.48,2.31,2.31,0,0,0,1.63.63c1.26,0,1.89-.58,1.89-1.73,0-.66-.49-1.28-1.46-1.86l-1.13-.55-1.15-.54a7.14,7.14,0,0,1-2.29-1.6,3.92,3.92,0,0,1-.84-2.6,4.62,4.62,0,0,1,1.44-3.49,5.07,5.07,0,0,1,3.59-1.38A4.89,4.89,0,0,1,1488,879.72Z"/><path class="cls-5" d="M1504.33,877h3.75v16.17h-3.75v-1.69a7.19,7.19,0,0,1-10.51-.27,9,9,0,0,1-2.17-6.17,8.71,8.71,0,0,1,2.17-6.06,7,7,0,0,1,5.45-2.43,6.87,6.87,0,0,1,5.06,2.33Zm-8.86,8a5.61,5.61,0,0,0,1.24,3.78,4.07,4.07,0,0,0,3.22,1.48,4.31,4.31,0,0,0,3.36-1.43,6.17,6.17,0,0,0,0-7.5,4.23,4.23,0,0,0-3.33-1.45,4.16,4.16,0,0,0-3.22,1.46A5.42,5.42,0,0,0,1495.47,885Z"/><path class="cls-31" d="M1200.26,536l8.76,19.75L1217.9,536h5.23l-14.22,30.64L1195,536Z"/><path class="cls-31" d="M1231.84,536v28.5h-4.78V536Z"/><path class="cls-31" d="M1239.45,564.47V536h6.64a26.53,26.53,0,0,1,7.55.85,14.58,14.58,0,0,1,5.4,2.82,13.74,13.74,0,0,1-.21,21.21,15.46,15.46,0,0,1-5.37,2.82,27,27,0,0,1-7.45.8Zm4.78-4h2.15a20,20,0,0,0,5.35-.61,11.39,11.39,0,0,0,3.86-2.05,9.31,9.31,0,0,0,3.53-7.55,9.44,9.44,0,0,0-3.49-7.61q-3.14-2.6-9.25-2.6h-2.15Z"/><path class="cls-31" d="M1287.42,540h-12.7v6.85h12.33v4h-12.33v9.53h12.7v4H1270V536h17.47Z"/><path class="cls-31" d="M1292.11,550.09a13.34,13.34,0,0,1,4.91-10.34,17.08,17.08,0,0,1,11.73-4.32,16.75,16.75,0,0,1,11.6,4.36,13.57,13.57,0,0,1,4.86,10.47,13.34,13.34,0,0,1-4.88,10.42,18.11,18.11,0,0,1-22.84.48A13.42,13.42,0,0,1,1292.11,550.09Zm4.82,0a9.82,9.82,0,0,0,3.53,7.77,12.62,12.62,0,0,0,16.51,0,10.28,10.28,0,0,0,0-15.28,12.76,12.76,0,0,0-16.67,0A9.77,9.77,0,0,0,1296.93,550.14Z"/><path class="cls-31" d="M1347.51,549.63h13.08v.94a17.63,17.63,0,0,1-.84,5.68,11.89,11.89,0,0,1-2.77,4.29,15.12,15.12,0,0,1-11.22,4.46,16.3,16.3,0,0,1-11.38-4.32,13.85,13.85,0,0,1,.08-20.93,16.93,16.93,0,0,1,11.73-4.33,17.52,17.52,0,0,1,6.93,1.36,19.65,19.65,0,0,1,6.05,4.43l-3.4,2.94a12.4,12.4,0,0,0-17.92-1.55,9.89,9.89,0,0,0-3.41,7.67,9.69,9.69,0,0,0,3.8,7.85,12,12,0,0,0,7.69,2.86,10.21,10.21,0,0,0,6.33-2.14,7.42,7.42,0,0,0,3.14-5.17h-7.89Z"/><path class="cls-31" d="M1377.32,552.32l9.81,12.15h-5.85l-9-11.67h-.86v11.67h-4.78V536h5.6q6.27,0,9.06,2.12a7.5,7.5,0,0,1,3.08,6.24,7.59,7.59,0,0,1-1.93,5.21A8.77,8.77,0,0,1,1377.32,552.32Zm-5.94-3.27h1.51q6.79,0,6.79-4.66,0-4.38-6.6-4.38h-1.7Z"/><path class="cls-31" d="M1410.49,557.55h-13.56l-3.53,6.92h-5.15l15.67-30.29L1419,564.47h-5.23Zm-2-4-4.7-9.69-4.92,9.69Z"/><path class="cls-31" d="M1438.81,540h-11v6.85h10.65v4h-10.65v13.57H1423V536h15.81Z"/><path class="cls-31" d="M1461.82,540h-12.7v6.85h12.33v4h-12.33v9.53h12.7v4h-17.48V536h17.48Z"/><path class="cls-31" d="M1478.82,552.32l9.8,12.15h-5.84l-9-11.67h-.86v11.67h-4.78V536h5.6c4.18,0,7.21.71,9.06,2.12a7.48,7.48,0,0,1,3.08,6.24,7.59,7.59,0,0,1-1.93,5.21A8.74,8.74,0,0,1,1478.82,552.32Zm-6-3.27h1.52c4.52,0,6.79-1.55,6.79-4.66,0-2.92-2.21-4.38-6.61-4.38h-1.7Z"/><path class="cls-5" d="M1226.8,607.88v4.58a10.75,10.75,0,0,0-6.94-2.81,8.84,8.84,0,0,0-6.66,2.84,9.54,9.54,0,0,0-2.72,6.91,9.31,9.31,0,0,0,2.72,6.8,9,9,0,0,0,6.67,2.78,8.23,8.23,0,0,0,3.47-.67,10.89,10.89,0,0,0,1.66-.89,20,20,0,0,0,1.8-1.37v4.67a14,14,0,0,1-7,1.87,12.85,12.85,0,0,1-9.38-3.83,12.71,12.71,0,0,1-3.86-9.33,13.14,13.14,0,0,1,3.23-8.73,13.33,13.33,0,0,1,17-2.82Z"/><path class="cls-5" d="M1242.88,616h3.75v16.17h-3.75v-1.69a7.19,7.19,0,0,1-10.51-.27,9,9,0,0,1-2.17-6.17,8.71,8.71,0,0,1,2.17-6.06,7,7,0,0,1,5.45-2.43,6.87,6.87,0,0,1,5.06,2.33Zm-8.86,8a5.61,5.61,0,0,0,1.24,3.78,4.08,4.08,0,0,0,3.22,1.48,4.31,4.31,0,0,0,3.36-1.43,6.13,6.13,0,0,0,0-7.5,4.22,4.22,0,0,0-3.32-1.45,4.13,4.13,0,0,0-3.22,1.46A5.38,5.38,0,0,0,1234,624Z"/><path class="cls-5" d="M1251.35,616h3.73v1.44a7,7,0,0,1,1.83-1.47,4.16,4.16,0,0,1,1.93-.42,6,6,0,0,1,3.08,1l-1.71,3.42a3.6,3.6,0,0,0-2.07-.76q-3.06,0-3.06,4.62v8.38h-3.73Z"/><path class="cls-5" d="M1264,609.24a2.3,2.3,0,0,1,.71-1.7,2.44,2.44,0,0,1,3.44,0,2.33,2.33,0,0,1,.71,1.71,2.38,2.38,0,0,1-.71,1.73,2.3,2.3,0,0,1-1.71.71,2.42,2.42,0,0,1-2.44-2.45Zm4.3,6.72v16.17h-3.74V616Z"/><path class="cls-5" d="M1282.44,618.72l-3.08,1.64c-.49-1-1.09-1.49-1.81-1.49a1.21,1.21,0,0,0-.88.34,1.1,1.1,0,0,0-.37.87c0,.62.72,1.23,2.16,1.84a12.86,12.86,0,0,1,4,2.36,4,4,0,0,1,1,2.9,5.07,5.07,0,0,1-1.73,3.92,6.2,6.2,0,0,1-9.81-2.47l3.19-1.48a7.11,7.11,0,0,0,1,1.48,2.33,2.33,0,0,0,1.63.63c1.26,0,1.89-.58,1.89-1.73,0-.66-.49-1.28-1.46-1.86l-1.13-.55-1.14-.54a6.92,6.92,0,0,1-2.29-1.6,3.88,3.88,0,0,1-.85-2.6,4.62,4.62,0,0,1,1.44-3.49,5.07,5.07,0,0,1,3.59-1.38A4.88,4.88,0,0,1,1282.44,618.72Z"/><path class="cls-5" d="M1296.24,618.72l-3.09,1.64c-.48-1-1.09-1.49-1.81-1.49a1.25,1.25,0,0,0-.88.34,1.12,1.12,0,0,0-.36.87c0,.62.72,1.23,2.16,1.84a12.86,12.86,0,0,1,4,2.36,4.06,4.06,0,0,1,1,2.9,5.1,5.1,0,0,1-1.73,3.92,6.2,6.2,0,0,1-9.81-2.47l3.19-1.48a7.11,7.11,0,0,0,1,1.48,2.3,2.3,0,0,0,1.63.63c1.26,0,1.89-.58,1.89-1.73,0-.66-.49-1.28-1.46-1.86l-1.13-.55-1.15-.54a7,7,0,0,1-2.29-1.6,3.93,3.93,0,0,1-.85-2.6,4.63,4.63,0,0,1,1.45-3.49,5,5,0,0,1,3.58-1.38A4.9,4.9,0,0,1,1296.24,618.72Z"/><path class="cls-5" d="M1312.56,616h3.75v16.17h-3.75v-1.69a7.19,7.19,0,0,1-10.51-.27,9,9,0,0,1-2.17-6.17,8.71,8.71,0,0,1,2.17-6.06,7,7,0,0,1,5.45-2.43,6.87,6.87,0,0,1,5.06,2.33Zm-8.87,8a5.61,5.61,0,0,0,1.25,3.78,4.07,4.07,0,0,0,3.22,1.48,4.29,4.29,0,0,0,3.35-1.43,6.13,6.13,0,0,0,0-7.5,4.21,4.21,0,0,0-3.32-1.45,4.16,4.16,0,0,0-3.22,1.46A5.43,5.43,0,0,0,1303.69,624Z"/><path class="cls-5" d="M1336.1,606.5v22h7.54v3.64h-11.41V606.5Z"/><path class="cls-5" d="M1345.83,623.93a8,8,0,0,1,2.51-6,8.83,8.83,0,0,1,12.25,0,8.64,8.64,0,0,1,0,12.16,8.54,8.54,0,0,1-6.19,2.44,8.2,8.2,0,0,1-6.09-2.49A8.34,8.34,0,0,1,1345.83,623.93Zm3.82.07a5.46,5.46,0,0,0,1.29,3.83,5,5,0,0,0,7,0,6.08,6.08,0,0,0,0-7.54,4.57,4.57,0,0,0-3.5-1.43,4.52,4.52,0,0,0-3.47,1.43A5.18,5.18,0,0,0,1349.65,624Z"/><path class="cls-5" d="M1366.46,609.24a2.44,2.44,0,0,1,2.43-2.41,2.39,2.39,0,0,1,1.73.71,2.33,2.33,0,0,1,.71,1.71,2.38,2.38,0,0,1-.71,1.73,2.3,2.3,0,0,1-1.71.71,2.32,2.32,0,0,1-1.73-.71A2.37,2.37,0,0,1,1366.46,609.24Zm4.3,6.72v16.17H1367V616Z"/><path class="cls-5" d="M1384.89,618.72l-3.09,1.64c-.48-1-1.09-1.49-1.8-1.49a1.21,1.21,0,0,0-.88.34,1.1,1.1,0,0,0-.37.87c0,.62.72,1.23,2.16,1.84a12.86,12.86,0,0,1,4,2.36,4,4,0,0,1,1,2.9,5.1,5.1,0,0,1-1.73,3.92,6.2,6.2,0,0,1-9.81-2.47l3.19-1.48a7.11,7.11,0,0,0,1,1.48,2.31,2.31,0,0,0,1.63.63c1.26,0,1.89-.58,1.89-1.73,0-.66-.49-1.28-1.46-1.86l-1.13-.55-1.15-.54a7.14,7.14,0,0,1-2.29-1.6,3.92,3.92,0,0,1-.84-2.6,4.62,4.62,0,0,1,1.44-3.49,5.07,5.07,0,0,1,3.59-1.38A4.88,4.88,0,0,1,1384.89,618.72Z"/><path class="cls-5" d="M1407.57,610.13v22h-3.87v-22h-5.89V606.5h15.64v3.63Z"/><path class="cls-5" d="M1415,616h3.74v1.44a6.87,6.87,0,0,1,1.83-1.47,4.12,4.12,0,0,1,1.92-.42,6,6,0,0,1,3.09,1l-1.71,3.42a3.63,3.63,0,0,0-2.08-.76q-3,0-3,4.62v8.38H1415Z"/><path class="cls-5" d="M1439.43,616h3.75v16.17h-3.75v-1.69a7.19,7.19,0,0,1-10.51-.27,9,9,0,0,1-2.17-6.17,8.71,8.71,0,0,1,2.17-6.06,7,7,0,0,1,5.45-2.43,6.89,6.89,0,0,1,5.06,2.33Zm-8.87,8a5.61,5.61,0,0,0,1.25,3.78,4.05,4.05,0,0,0,3.22,1.48,4.29,4.29,0,0,0,3.35-1.43,6.13,6.13,0,0,0,0-7.5,4.21,4.21,0,0,0-3.32-1.45,4.16,4.16,0,0,0-3.22,1.46A5.43,5.43,0,0,0,1430.56,624Z"/><path class="cls-5" d="M1460.48,616.66v5a9.19,9.19,0,0,0-2.29-2.14,4.48,4.48,0,0,0-2.34-.6,4.61,4.61,0,0,0-3.51,1.48,5.21,5.21,0,0,0-1.39,3.7,5.34,5.34,0,0,0,1.34,3.74,4.56,4.56,0,0,0,3.47,1.46,4.85,4.85,0,0,0,2.38-.58,9.7,9.7,0,0,0,2.34-2.19v4.93a9.87,9.87,0,0,1-4.55,1.17,8.67,8.67,0,0,1-6.27-2.42,8.08,8.08,0,0,1-2.53-6.06,8.19,8.19,0,0,1,2.56-6.11,8.63,8.63,0,0,1,6.27-2.49A9.32,9.32,0,0,1,1460.48,616.66Z"/><path class="cls-5" d="M1469.2,629.13,1461.92,616h4.34l4.94,9.3,4.62-9.3H1480l-12.89,25h-4.26Z"/><path class="cls-31" d="M478.6,750.89v11.58h-4.78V734h5.41a26.56,26.56,0,0,1,6,.5,8.3,8.3,0,0,1,3.61,1.88,7.72,7.72,0,0,1,2.73,6,7.47,7.47,0,0,1-2.92,6.21,12.4,12.4,0,0,1-7.85,2.28Zm0-4h1.78q6.58,0,6.58-4.56t-6.79-4.41H478.6Z"/><path class="cls-31" d="M514,738H501.28v6.85H513.6v4H501.28v9.53H514v4H496.5V734H514Z"/><path class="cls-31" d="M519.14,762.47l6.66-30.64L536.67,754l11.26-22.15,6,30.64H549L546,745.26l-9.37,18.52-9.1-18.53-3.41,17.22Z"/><path class="cls-31" d="M571.35,750.32l9.8,12.15h-5.84l-9-11.67h-.87v11.67h-4.77V734h5.6q6.27,0,9.06,2.12a7.5,7.5,0,0,1,3.08,6.24,7.64,7.64,0,0,1-1.93,5.21A8.77,8.77,0,0,1,571.35,750.32Zm-6-3.27h1.52q6.8,0,6.79-4.66,0-4.38-6.6-4.38H565.4Z"/><path class="cls-31" d="M583.62,748.09a13.33,13.33,0,0,1,4.9-10.34,17.08,17.08,0,0,1,11.73-4.32,16.75,16.75,0,0,1,11.6,4.36,13.54,13.54,0,0,1,4.87,10.47,13.35,13.35,0,0,1-4.89,10.42,18.11,18.11,0,0,1-22.84.48A13.41,13.41,0,0,1,583.62,748.09Zm4.82,0a9.81,9.81,0,0,0,3.52,7.77,12.62,12.62,0,0,0,16.51,0,10.26,10.26,0,0,0,0-15.28,11.8,11.8,0,0,0-8.32-3.1,11.93,11.93,0,0,0-8.35,3.1A9.76,9.76,0,0,0,588.44,748.14Z"/><path class="cls-31" d="M639,747.63h13.08v.94a17.63,17.63,0,0,1-.84,5.68,11.89,11.89,0,0,1-2.77,4.29A15.12,15.12,0,0,1,637.26,763a16.3,16.3,0,0,1-11.38-4.32,13.86,13.86,0,0,1,.08-20.93,16.93,16.93,0,0,1,11.73-4.33,17.6,17.6,0,0,1,6.94,1.36,19.89,19.89,0,0,1,6,4.43l-3.41,2.94a12.4,12.4,0,0,0-17.92-1.55,9.89,9.89,0,0,0-3.41,7.67,9.69,9.69,0,0,0,3.8,7.85,12,12,0,0,0,7.69,2.86,10.26,10.26,0,0,0,6.34-2.14,7.44,7.44,0,0,0,3.13-5.17H639Z"/><path class="cls-31" d="M668.83,750.32l9.8,12.15h-5.85l-9-11.67h-.86v11.67H658.1V734h5.6q6.27,0,9.06,2.12a7.5,7.5,0,0,1,3.08,6.24,7.59,7.59,0,0,1-1.93,5.21A8.74,8.74,0,0,1,668.83,750.32Zm-6-3.27h1.52q6.78,0,6.78-4.66,0-4.38-6.6-4.38h-1.7Z"/><path class="cls-31" d="M702,755.55H688.43l-3.53,6.92h-5.14l15.66-30.29,15.12,30.29h-5.23Zm-2-4-4.7-9.69-4.92,9.69Z"/><path class="cls-31" d="M713.39,762.47l6.66-30.64L730.92,754l11.26-22.15,6,30.64h-4.9l-3.06-17.21-9.37,18.52-9.1-18.53-3.41,17.22Z"/><path class="cls-32" d="M417.48,818c0,.8-.05,1.73-.07,2.8s0,2,0,2.65c0,1.12,0,2.36,0,3.74s0,2.15,0,2.3l-1,.08c-.57,0-1.12,0-1.65,0a26.23,26.23,0,0,1-7-.84,12.33,12.33,0,0,1-5.25-3,9.58,9.58,0,0,1-2.22-3.21,10.81,10.81,0,0,1-.84-4.37,9.46,9.46,0,0,1,1.61-5.41,11.55,11.55,0,0,1,4.4-3.84,16.32,16.32,0,0,1,4.34-1.5,24.8,24.8,0,0,1,5.08-.51h1.41l.2,2.39h-1.28a23.16,23.16,0,0,0-4.66.43,13.91,13.91,0,0,0-3.69,1.27,8.53,8.53,0,0,0-3.36,3.07,7.6,7.6,0,0,0-1.22,4.14,7.8,7.8,0,0,0,1.27,4.59,8.87,8.87,0,0,0,3.28,2.85,14,14,0,0,0,3.8,1.29,22.34,22.34,0,0,0,4.13.37c0-.17,0-1,0-2.58s0-3.81-.06-6.8Z"/><path class="cls-32" d="M436.57,820.42h-12a7.41,7.41,0,0,0,.75,3.23,6.12,6.12,0,0,0,2.24,2.43,7.29,7.29,0,0,0,2.19.92,12.11,12.11,0,0,0,3,.31c.63,0,1.21,0,1.73,0l1-.07-.3,2.21-.88.06c-.5,0-1.09,0-1.76,0a14.06,14.06,0,0,1-4.63-.69,8.83,8.83,0,0,1-3.23-1.9,8.63,8.63,0,0,1-1.83-2.59,8.05,8.05,0,0,1-.76-3.5,9.74,9.74,0,0,1,.57-3.42,9.3,9.3,0,0,1,1.69-2.84,6.68,6.68,0,0,1,2.43-1.74,7.7,7.7,0,0,1,3-.62,7.53,7.53,0,0,1,2.74.47,5.54,5.54,0,0,1,2.07,1.41,7.13,7.13,0,0,1,1.5,2.61A12.32,12.32,0,0,1,436.57,820.42ZM434,818.56a5.45,5.45,0,0,0-1.4-3.23,4,4,0,0,0-3-1.17,4.34,4.34,0,0,0-3.11,1.19,6.32,6.32,0,0,0-1.73,3.21Z"/><path class="cls-32" d="M450.1,824.57a4,4,0,0,1-.6,2.19,4.84,4.84,0,0,1-1.56,1.56,8.1,8.1,0,0,1-2.41,1,13.76,13.76,0,0,1-3.06.32c-.55,0-1.11,0-1.69-.07s-.91-.08-1-.1l-.1-2.17,1.15.09c.67,0,1.34.08,2,.08.39,0,.89,0,1.5-.1a5.13,5.13,0,0,0,1.51-.37,3,3,0,0,0,1.23-.9,2.09,2.09,0,0,0,.4-1.27,1.7,1.7,0,0,0-.35-1.11,4.58,4.58,0,0,0-1-.82,11.29,11.29,0,0,0-1.81-1,18.22,18.22,0,0,1-1.94-1,5.08,5.08,0,0,1-1.7-1.61,3.94,3.94,0,0,1-.59-2.15,3.87,3.87,0,0,1,.67-2.21,4.89,4.89,0,0,1,1.81-1.58,6.43,6.43,0,0,1,2.17-.7,15.35,15.35,0,0,1,2.3-.18c.68,0,1.23,0,1.66,0l.75,0,.19,2.21-1-.07c-.6,0-1.26-.07-2-.07a7.51,7.51,0,0,0-1.45.14,4.09,4.09,0,0,0-1.18.38,2.43,2.43,0,0,0-1,.88,2,2,0,0,0-.31,1,1.65,1.65,0,0,0,.44,1.15,4,4,0,0,0,1,.81c.46.27,1.08.58,1.86,1a17,17,0,0,1,1.72.88,5.74,5.74,0,0,1,1.77,1.63A3.63,3.63,0,0,1,450.1,824.57Z"/><path class="cls-32" d="M463.93,824.57a4,4,0,0,1-.6,2.19,4.84,4.84,0,0,1-1.56,1.56,8.1,8.1,0,0,1-2.41,1,13.85,13.85,0,0,1-3.07.32c-.54,0-1.1,0-1.68-.07s-.91-.08-1-.1l-.1-2.17,1.15.09c.67,0,1.34.08,2,.08.39,0,.89,0,1.5-.1a5.21,5.21,0,0,0,1.51-.37,3,3,0,0,0,1.23-.9,2.08,2.08,0,0,0,.39-1.27,1.69,1.69,0,0,0-.34-1.11,4.58,4.58,0,0,0-1-.82,11,11,0,0,0-1.82-1,19,19,0,0,1-1.93-1,5.08,5.08,0,0,1-1.7-1.61,3.94,3.94,0,0,1-.59-2.15,3.79,3.79,0,0,1,.67-2.21,4.89,4.89,0,0,1,1.81-1.58,6.43,6.43,0,0,1,2.17-.7,15.35,15.35,0,0,1,2.3-.18c.68,0,1.23,0,1.66,0l.75,0,.19,2.21-1-.07c-.6,0-1.27-.07-2-.07a7.51,7.51,0,0,0-1.45.14,4.09,4.09,0,0,0-1.18.38,2.43,2.43,0,0,0-1,.88,2,2,0,0,0-.31,1,1.65,1.65,0,0,0,.44,1.15,3.83,3.83,0,0,0,1,.81c.46.27,1.08.58,1.86,1a17,17,0,0,1,1.72.88,5.86,5.86,0,0,1,1.77,1.63A3.7,3.7,0,0,1,463.93,824.57Z"/><path class="cls-32" d="M481.56,820.42h-12a7.27,7.27,0,0,0,.74,3.23,6.12,6.12,0,0,0,2.24,2.43,7.4,7.4,0,0,0,2.19.92,12.11,12.11,0,0,0,3,.31c.63,0,1.21,0,1.73,0l1-.07-.3,2.21-.88.06c-.5,0-1.09,0-1.76,0a14.06,14.06,0,0,1-4.63-.69,8.83,8.83,0,0,1-3.23-1.9,8.63,8.63,0,0,1-1.83-2.59,8,8,0,0,1-.75-3.5,9.74,9.74,0,0,1,.56-3.42,9.3,9.3,0,0,1,1.69-2.84,6.64,6.64,0,0,1,2.44-1.74,7.62,7.62,0,0,1,3-.62,7.53,7.53,0,0,1,2.74.47,5.54,5.54,0,0,1,2.07,1.41,7.13,7.13,0,0,1,1.5,2.61A12.32,12.32,0,0,1,481.56,820.42ZM479,818.56a5.45,5.45,0,0,0-1.4-3.23,4,4,0,0,0-3-1.17,4.34,4.34,0,0,0-3.11,1.19,6.4,6.4,0,0,0-1.73,3.21Z"/><path class="cls-32" d="M488.75,829.43h-2.63c0-.13,0-1.75.05-4.85s0-5.68,0-7.73c0-1.32,0-3,0-5s0-4.26-.06-6.76h2.63c0,1.7,0,3.67-.05,5.91s0,4.14,0,5.67q0,5,0,8.8C488.74,828,488.75,829.31,488.75,829.43Z"/><path class="cls-32" d="M518,829.4l-2.1,0H507.3c-1.17,0-2.16,0-3,0,0-1.9,0-3.83.05-5.78s0-3.87,0-5.76c0-3.14,0-5.54,0-7.18s0-2.81-.05-3.47h2.73c0,1.42,0,3.07-.05,4.94s0,3.4,0,4.59q0,4.37,0,7.29c0,1.94,0,3,0,3.08h3.39c2,0,3.7,0,5.17,0l2.35,0Z"/><path class="cls-32" d="M534.78,820.42h-12a7.27,7.27,0,0,0,.75,3.23,6,6,0,0,0,2.24,2.43A7.19,7.19,0,0,0,528,827a12,12,0,0,0,2.95.31c.64,0,1.21,0,1.74,0l1-.07-.3,2.21-.88.06c-.5,0-1.08,0-1.76,0a14,14,0,0,1-4.62-.69,8.75,8.75,0,0,1-3.23-1.9,8.46,8.46,0,0,1-1.83-2.59,7.91,7.91,0,0,1-.76-3.5,10,10,0,0,1,.56-3.42,9.13,9.13,0,0,1,1.7-2.84,6.52,6.52,0,0,1,2.43-1.74,7.65,7.65,0,0,1,3-.62,7.49,7.49,0,0,1,2.74.47,5.57,5.57,0,0,1,2.08,1.41,7.11,7.11,0,0,1,1.49,2.61A12.32,12.32,0,0,1,534.78,820.42Zm-2.57-1.86a5.57,5.57,0,0,0-1.4-3.23,4,4,0,0,0-3-1.17,4.32,4.32,0,0,0-3.1,1.19,6.32,6.32,0,0,0-1.73,3.21Z"/><path class="cls-32" d="M553.92,821a10,10,0,0,1-.69,3.69,8.23,8.23,0,0,1-2,3,7.83,7.83,0,0,1-2.43,1.6,8,8,0,0,1-3,.55,8.22,8.22,0,0,1-3-.54,7.45,7.45,0,0,1-2.49-1.59,8.17,8.17,0,0,1-1.95-3,10.63,10.63,0,0,1-.1-7.26,8,8,0,0,1,1.84-2.88,7.59,7.59,0,0,1,2.59-1.78,7.84,7.84,0,0,1,3.12-.63,8.27,8.27,0,0,1,3.13.57,7.38,7.38,0,0,1,2.49,1.72,8.67,8.67,0,0,1,1.88,3A10.13,10.13,0,0,1,553.92,821Zm-2.65.12a9.28,9.28,0,0,0-.51-3,6.19,6.19,0,0,0-1.57-2.49,4.49,4.49,0,0,0-1.53-1,5.1,5.1,0,0,0-1.85-.34,4.58,4.58,0,0,0-3.59,1.51,6.28,6.28,0,0,0-1.39,2.29,8.61,8.61,0,0,0-.5,2.89,9.1,9.1,0,0,0,.51,3.11,6,6,0,0,0,1.66,2.45,4.36,4.36,0,0,0,1.5.89,5.32,5.32,0,0,0,3.74-.06,4.57,4.57,0,0,0,1.59-1.06,6.41,6.41,0,0,0,1.44-2.32A8.31,8.31,0,0,0,551.27,821.15Z"/><path class="cls-32" d="M572.29,829.43h-2.63c0-.3,0-1.33,0-3.07s0-2.81,0-3.22c0-.57,0-1.42,0-2.55s0-1.94,0-2.46a4.61,4.61,0,0,0-.73-2.74,2.92,2.92,0,0,0-2.36-.83,7,7,0,0,0-2.51.6,20.34,20.34,0,0,0-3,1.52c0,.13,0,.79,0,2s0,2.29,0,3.27c0,1.29,0,2.83,0,4.65s0,2.77,0,2.85h-2.62c0-.07,0-.75,0-2s0-3.18,0-5.7c0-1.16,0-2.52,0-4.09s0-3.22,0-5h2.59l0,1.91,0,0a22.26,22.26,0,0,1,3.87-1.85,8.48,8.48,0,0,1,2.58-.53,4.54,4.54,0,0,1,3.42,1.34,5.08,5.08,0,0,1,1.28,3.66c0,1.39,0,2.6,0,3.61s0,1.83,0,2.47c0,1,0,2.26,0,3.77S572.29,829.36,572.29,829.43Z"/><path class="cls-32" d="M603.35,822.89a5.39,5.39,0,0,1-.86,3,6.33,6.33,0,0,1-2.48,2.18,11.78,11.78,0,0,1-3.16,1.08,20.33,20.33,0,0,1-4,.34c-1.1,0-2.22,0-3.38-.05l-1.93-.08q.06-3.18.07-6c0-1.88,0-3.68,0-5.4q0-4.87,0-7.73c0-1.9,0-2.88,0-3l1.83-.08c1.07,0,2.11-.07,3.11-.07a20.49,20.49,0,0,1,3.15.22,10.9,10.9,0,0,1,2.44.63,5.35,5.35,0,0,1,2.37,1.71,4.36,4.36,0,0,1,.86,2.75,4.65,4.65,0,0,1-1.08,3,5.5,5.5,0,0,1-2.47,1.8v.17a7.51,7.51,0,0,1,2.22.54,5.62,5.62,0,0,1,1.89,1.25,5,5,0,0,1,1.07,1.58A5.3,5.3,0,0,1,603.35,822.89Zm-2.83.09a3.68,3.68,0,0,0-.29-1.52,4.44,4.44,0,0,0-.9-1.29,4.13,4.13,0,0,0-1.55-.91,6.51,6.51,0,0,0-2.15-.35l-1.51,0h-.75l-.27-2a9.12,9.12,0,0,0,2.17-.29,5.33,5.33,0,0,0,1.67-.77,4,4,0,0,0,1.14-1.27,3.42,3.42,0,0,0,.45-1.74,3.07,3.07,0,0,0-.49-1.75,3.61,3.61,0,0,0-1.36-1.17,6.67,6.67,0,0,0-1.79-.52,13.65,13.65,0,0,0-2.27-.18c-.52,0-1,0-1.43,0l-.84,0c0,1.62-.05,3.33-.06,5.15s0,3.13,0,3.95c0,1.9,0,3.82,0,5.74s0,2.94,0,3.08l.89,0,1.07,0a27.94,27.94,0,0,0,3.54-.2,7.53,7.53,0,0,0,2.76-.83,3.85,3.85,0,0,0,1.43-1.34A3.62,3.62,0,0,0,600.52,823Z"/><path class="cls-32" d="M618.19,814.59a27.7,27.7,0,0,0-2.8.92q-1.87.69-4.34,1.86c0,.12,0,.67,0,1.66s0,1.92,0,2.77c0,1.3,0,2.85,0,4.65s0,2.79,0,3h-2.62c0-.18,0-.8,0-1.85s0-2.85,0-5.4c0-1,0-2.47,0-4.32s0-3.59,0-5.23h2.57v2.53h0a38.52,38.52,0,0,1,3.7-1.84,22.09,22.09,0,0,1,2.92-1.06Z"/><path class="cls-32" d="M634.51,820.42h-12a7.4,7.4,0,0,0,.74,3.23,6.12,6.12,0,0,0,2.24,2.43,7.35,7.35,0,0,0,2.2.92,12,12,0,0,0,2.95.31c.63,0,1.21,0,1.73,0l1-.07-.3,2.21-.88.06c-.5,0-1.09,0-1.76,0a14.06,14.06,0,0,1-4.63-.69,8.71,8.71,0,0,1-3.22-1.9,8.48,8.48,0,0,1-1.84-2.59,8,8,0,0,1-.75-3.5,9.74,9.74,0,0,1,.56-3.42,9.3,9.3,0,0,1,1.69-2.84,6.64,6.64,0,0,1,2.44-1.74,7.62,7.62,0,0,1,3-.62,7.53,7.53,0,0,1,2.74.47,5.54,5.54,0,0,1,2.07,1.41,7.13,7.13,0,0,1,1.5,2.61A12.32,12.32,0,0,1,634.51,820.42Zm-2.57-1.86a5.52,5.52,0,0,0-1.41-3.23,4,4,0,0,0-3-1.17,4.34,4.34,0,0,0-3.11,1.19,6.4,6.4,0,0,0-1.73,3.21Z"/><path class="cls-32" d="M662.7,829.43h-2.63c0-.12,0-.89,0-2.32s0-2.77,0-4c0-.5,0-1.32,0-2.45s0-2,0-2.55a4.18,4.18,0,0,0-.79-2.76,3,3,0,0,0-2.28-.76,6.61,6.61,0,0,0-2.17.45,15.76,15.76,0,0,0-2.83,1.41c0,.05,0,.17,0,.33s0,.38,0,.65c0,.89,0,1.8,0,2.73s0,1.8,0,2.64c0,1.83,0,3.38,0,4.63s.05,1.92.05,2h-2.63c0-.12,0-.79,0-2s0-2.66,0-4.32c0-.55,0-1.39,0-2.52s0-2,0-2.48a8.84,8.84,0,0,0-.14-1.39,2.78,2.78,0,0,0-.43-1.13,2.2,2.2,0,0,0-.89-.77,3.84,3.84,0,0,0-1.57-.26,5.59,5.59,0,0,0-2.17.54,23.29,23.29,0,0,0-2.86,1.57c0,.19,0,.89,0,2.11s0,2.22,0,3c0,1.32,0,2.9,0,4.74s0,2.81,0,2.92h-2.62c0-.08,0-.73,0-1.93s0-3.19,0-6c0-.9,0-2.13,0-3.67s0-3.28-.06-5.23h2.59l0,1.91,0,0a17.13,17.13,0,0,1,2.8-1.58,7.25,7.25,0,0,1,3-.78,5,5,0,0,1,2.71.68,3.83,3.83,0,0,1,1.55,1.73h0a20.85,20.85,0,0,1,3.51-1.79,7.91,7.91,0,0,1,2.73-.62,4.74,4.74,0,0,1,3.58,1.34,5,5,0,0,1,1.28,3.61c0,1.17,0,2.16,0,3s0,1.65,0,2.55c0,1.86,0,3.43,0,4.72S662.7,829.35,662.7,829.43Z"/><path class="cls-32" d="M680.21,820c0,2.75,0,5,0,6.71s0,2.66,0,2.79l-1.54.12c-.92.07-2.11.11-3.56.11a15.1,15.1,0,0,1-2.74-.25,9.35,9.35,0,0,1-2.37-.71,5.65,5.65,0,0,1-2.15-1.68,4,4,0,0,1-.82-2.56,4.09,4.09,0,0,1,1-2.73,6.83,6.83,0,0,1,2.7-1.86,15.73,15.73,0,0,1,2.88-.81,35,35,0,0,1,4.11-.54,4.5,4.5,0,0,0-.65-2.12,3.39,3.39,0,0,0-1.61-1.27,6.59,6.59,0,0,0-1.63-.42,15.93,15.93,0,0,0-2.09-.12c-.5,0-.92,0-1.27,0l-1.42.08.27-2.21,1,0c.5,0,1.17-.05,2-.05a13.78,13.78,0,0,1,3.5.41,6,6,0,0,1,2.54,1.32,5.53,5.53,0,0,1,1.43,2.13A10.94,10.94,0,0,1,680.21,820Zm-2.54,4v-1.42c0-.58,0-1.24,0-2-.49,0-1.34.12-2.56.29a14,14,0,0,0-3.07.74,4.64,4.64,0,0,0-1.65,1,2.27,2.27,0,0,0-.73,1.72,2.62,2.62,0,0,0,.62,1.82,4,4,0,0,0,1.67,1.06,8.75,8.75,0,0,0,1.81.4,15.28,15.28,0,0,0,2.08.13l.81,0,1,0v-1.1C677.67,826,677.67,825.08,677.67,824Z"/><path class="cls-32" d="M699.92,829.43H697.3c0-.3,0-1.33,0-3.07s0-2.81,0-3.22c0-.57,0-1.42,0-2.55s0-1.94,0-2.46a4.54,4.54,0,0,0-.73-2.74,2.92,2.92,0,0,0-2.36-.83,7.07,7.07,0,0,0-2.51.6,20.84,20.84,0,0,0-3,1.52c0,.13,0,.79,0,2s0,2.29,0,3.27c0,1.29,0,2.83,0,4.65s0,2.77,0,2.85h-2.62c0-.07,0-.75,0-2s0-3.18,0-5.7c0-1.16,0-2.52,0-4.09s0-3.22-.06-5h2.59l0,1.91,0,0a22.26,22.26,0,0,1,3.87-1.85,8.48,8.48,0,0,1,2.59-.53,4.53,4.53,0,0,1,3.41,1.34,5,5,0,0,1,1.29,3.66c0,1.39,0,2.6,0,3.61s0,1.83,0,2.47c0,1,0,2.26,0,3.77S699.92,829.36,699.92,829.43Z"/><path class="cls-32" d="M717.43,820c0,2.75,0,5,0,6.71s0,2.66,0,2.79l-1.54.12c-.92.07-2.11.11-3.56.11a15.1,15.1,0,0,1-2.74-.25,9.48,9.48,0,0,1-2.37-.71,5.65,5.65,0,0,1-2.15-1.68,4,4,0,0,1-.82-2.56,4.09,4.09,0,0,1,1-2.73,6.83,6.83,0,0,1,2.7-1.86,15.73,15.73,0,0,1,2.88-.81,35,35,0,0,1,4.11-.54,4.5,4.5,0,0,0-.65-2.12,3.39,3.39,0,0,0-1.61-1.27,6.59,6.59,0,0,0-1.63-.42,15.93,15.93,0,0,0-2.09-.12c-.5,0-.92,0-1.27,0l-1.42.08.27-2.21,1,0c.5,0,1.17-.05,2-.05a13.78,13.78,0,0,1,3.5.41,6,6,0,0,1,2.54,1.32,5.53,5.53,0,0,1,1.43,2.13A10.94,10.94,0,0,1,717.43,820Zm-2.54,4v-1.42c0-.58,0-1.24,0-2-.49,0-1.34.12-2.56.29a14,14,0,0,0-3.07.74,4.64,4.64,0,0,0-1.65,1,2.27,2.27,0,0,0-.73,1.72,2.62,2.62,0,0,0,.62,1.82,4,4,0,0,0,1.68,1.06,8.51,8.51,0,0,0,1.8.4,15.38,15.38,0,0,0,2.08.13l.81,0,1,0v-1.1C714.89,826,714.89,825.08,714.89,824Z"/><path class="cls-32" d="M743.83,823.18a5.49,5.49,0,0,1-.81,3,6.22,6.22,0,0,1-2.17,2.09,10.32,10.32,0,0,1-2.86,1.1,15.73,15.73,0,0,1-3.57.37c-.71,0-1.44,0-2.2-.06l-1.32-.09-.14-2.39c.16,0,.59.07,1.3.13s1.54.09,2.51.09a15,15,0,0,0,2.27-.23,8.41,8.41,0,0,0,2.14-.6,4.05,4.05,0,0,0,1.5-1.16,2.76,2.76,0,0,0,.53-1.73,3.25,3.25,0,0,0-.53-1.88,5.16,5.16,0,0,0-1.73-1.49c-.52-.31-1.2-.66-2-1.05a21.11,21.11,0,0,1-2.24-1.19,6.87,6.87,0,0,1-2.41-2.25,5.23,5.23,0,0,1-.72-2.71,5.11,5.11,0,0,1,.65-2.65,6.54,6.54,0,0,1,1.71-1.92,7.44,7.44,0,0,1,2.6-1.2,13.83,13.83,0,0,1,3.41-.39c.69,0,1.39,0,2.09,0l1.21.08.23,2.41-1.21-.12c-.71-.07-1.59-.1-2.63-.1a9.08,9.08,0,0,0-1.91.21,5.87,5.87,0,0,0-1.74.64,3.45,3.45,0,0,0-1.13,1.06,2.75,2.75,0,0,0-.46,1.59,2.79,2.79,0,0,0,.49,1.57,5.39,5.39,0,0,0,1.83,1.55q.69.42,1.8,1c.75.36,1.48.75,2.2,1.17a7.37,7.37,0,0,1,2.5,2.25A5.14,5.14,0,0,1,743.83,823.18Z"/><path class="cls-32" d="M752,809.41H749v-2.85H752Zm-.15,20h-2.62c0-.17,0-1.26,0-3.27s0-3.65,0-5c0-1.14,0-2.39,0-3.76s0-3-.05-4.81h2.62c0,1.6,0,3.09-.06,4.48s0,2.62,0,3.71q0,3.87,0,6.21C751.78,828.59,751.8,829.39,751.8,829.43Z"/><path class="cls-32" d="M767.17,827.38l-.3,2.1a3.8,3.8,0,0,1-.57,0h-.79a8,8,0,0,1-5.15-1.42,5.27,5.27,0,0,1-1.74-4.35c0-1.23,0-2.55,0-4s0-3.15,0-5.23h-2.79v-2h2.94V808.7h2.41v3.93h5.94v2h-5.94q0,.34,0,2.07c0,1.15,0,2,0,2.56v4.12a3.83,3.83,0,0,0,1.16,3.11,5.62,5.62,0,0,0,3.59.95h1.24Z"/><path class="cls-32" d="M784.32,820.42h-12a7.4,7.4,0,0,0,.74,3.23,6.08,6.08,0,0,0,2.25,2.43,7.19,7.19,0,0,0,2.19.92,12,12,0,0,0,3,.31c.63,0,1.21,0,1.74,0l1-.07-.3,2.21-.88.06c-.5,0-1.08,0-1.76,0a14,14,0,0,1-4.62-.69,8.28,8.28,0,0,1-5.07-4.49,8,8,0,0,1-.75-3.5,10,10,0,0,1,.56-3.42,9.13,9.13,0,0,1,1.7-2.84,6.52,6.52,0,0,1,2.43-1.74,7.65,7.65,0,0,1,3-.62,7.53,7.53,0,0,1,2.74.47,5.57,5.57,0,0,1,2.08,1.41,7.11,7.11,0,0,1,1.49,2.61A12.32,12.32,0,0,1,784.32,820.42Zm-2.57-1.86a5.57,5.57,0,0,0-1.4-3.23,4,4,0,0,0-3-1.17,4.34,4.34,0,0,0-3.11,1.19,6.31,6.31,0,0,0-1.72,3.21Z"/><path class="cls-32" d="M803.08,820.52a8,8,0,0,1-1.14,4.37,8.31,8.31,0,0,1-3.09,2.85,12.57,12.57,0,0,1-3.72,1.26,21.2,21.2,0,0,1-3.85.37l.06,7.62H788.7c0-.19,0-1.72,0-4.59s0-5.75,0-8.64c0-1.45,0-3.14,0-5.06s0-4,0-6.2l1.06,0h.8a31.14,31.14,0,0,1,5.42.37,10.71,10.71,0,0,1,3.5,1.29,7.13,7.13,0,0,1,3.6,6.38Zm-2.66.09a5.28,5.28,0,0,0-.76-2.85,5.68,5.68,0,0,0-2-1.94,8.54,8.54,0,0,0-2.53-.92,15.72,15.72,0,0,0-3.08-.29h-.75c0,.19,0,.84,0,2s0,3.06,0,5.82c0,.57,0,1.38,0,2.42s0,1.86,0,2.48a16.47,16.47,0,0,0,3.12-.29,9.93,9.93,0,0,0,2.57-.78,5.77,5.77,0,0,0,3.45-5.61Z"/><path class="cls-32" d="M821.24,829.43H818.7v-1.94a23.34,23.34,0,0,1-2.9,1.57,8,8,0,0,1-3.41.81,4.74,4.74,0,0,1-3.59-1.36,5.35,5.35,0,0,1-1.29-3.82c0-.89,0-1.94,0-3.17s0-2.11,0-2.66c0-1,0-2.25,0-3.73s0-2.31,0-2.5h2.63c0,.15,0,.94,0,2.39s0,2.61,0,3.47,0,1.72,0,2.86,0,1.95,0,2.42a5.3,5.3,0,0,0,.68,2.88,2.42,2.42,0,0,0,2.1.91,8,8,0,0,0,3.24-.8,15.53,15.53,0,0,0,2.6-1.39c0-.14,0-.75,0-1.84s0-2.45,0-4.07c0-1.16,0-2.56,0-4.18s0-2.5,0-2.65h2.62c0,.19,0,.81,0,1.87s0,2.86,0,5.41c0,1.42,0,2.68,0,3.76S821.22,826.67,821.24,829.43Z"/><path class="cls-31" d="M468.51,536l8.75,19.75L486.14,536h5.23l-14.21,30.64L463.28,536Z"/><path class="cls-31" d="M500.09,536v28.5h-4.78V536Z"/><path class="cls-31" d="M507.7,564.47V536h6.64a26.58,26.58,0,0,1,7.55.85,14.46,14.46,0,0,1,5.39,2.82,13.75,13.75,0,0,1-.2,21.21,15.41,15.41,0,0,1-5.38,2.82,26.92,26.92,0,0,1-7.44.8Zm4.77-4h2.16a20.09,20.09,0,0,0,5.35-.61,11.49,11.49,0,0,0,3.86-2.05,9.31,9.31,0,0,0,3.52-7.55,9.46,9.46,0,0,0-3.48-7.61c-2.09-1.73-5.18-2.6-9.25-2.6h-2.16Z"/><path class="cls-31" d="M555.66,540H543v6.85h12.32v4H543v9.53h12.69v4H538.19V536h17.47Z"/><path class="cls-31" d="M560.36,550.09a13.33,13.33,0,0,1,4.9-10.34A17.11,17.11,0,0,1,577,535.43a16.79,16.79,0,0,1,11.61,4.36,13.57,13.57,0,0,1,4.86,10.47,13.37,13.37,0,0,1-4.88,10.42,18.12,18.12,0,0,1-22.85.48A13.41,13.41,0,0,1,560.36,550.09Zm4.82,0a9.82,9.82,0,0,0,3.53,7.77,11.93,11.93,0,0,0,8.1,3.05,12.08,12.08,0,0,0,8.41-3.1,10.28,10.28,0,0,0,0-15.28,12.77,12.77,0,0,0-16.68,0A9.76,9.76,0,0,0,565.18,550.14Z"/><path class="cls-31" d="M629.9,540H617.21v6.85h12.32v4H617.21v9.53H629.9v4H612.43V536H629.9Z"/><path class="cls-31" d="M636.18,564.47V536h6.64a26.58,26.58,0,0,1,7.55.85,14.46,14.46,0,0,1,5.39,2.82,13.75,13.75,0,0,1-.2,21.21,15.41,15.41,0,0,1-5.38,2.82,26.92,26.92,0,0,1-7.44.8Zm4.78-4h2.15a20,20,0,0,0,5.35-.61,11.49,11.49,0,0,0,3.86-2.05,9.31,9.31,0,0,0,3.52-7.55,9.46,9.46,0,0,0-3.48-7.61c-2.09-1.73-5.18-2.6-9.25-2.6H641Z"/><path class="cls-31" d="M671.45,536v28.5h-4.78V536Z"/><path class="cls-31" d="M687.8,540v24.46H683V540h-7.28v-4h19.32v4Z"/><path class="cls-31" d="M696.74,550.09a13.33,13.33,0,0,1,4.9-10.34,17.08,17.08,0,0,1,11.73-4.32A16.79,16.79,0,0,1,725,539.79a13.57,13.57,0,0,1,4.86,10.47A13.37,13.37,0,0,1,725,560.68a18.12,18.12,0,0,1-22.85.48A13.41,13.41,0,0,1,696.74,550.09Zm4.82,0a9.81,9.81,0,0,0,3.52,7.77,12.62,12.62,0,0,0,16.51,0,10.26,10.26,0,0,0,0-15.28,11.79,11.79,0,0,0-8.32-3.1,11.93,11.93,0,0,0-8.35,3.1A9.76,9.76,0,0,0,701.56,550.14Z"/><path class="cls-31" d="M746.57,552.32l9.8,12.15h-5.84l-9-11.67h-.87v11.67h-4.77V536h5.59q6.28,0,9.07,2.12a7.5,7.5,0,0,1,3.07,6.24,7.63,7.63,0,0,1-1.92,5.21A8.77,8.77,0,0,1,746.57,552.32Zm-6-3.27h1.52q6.79,0,6.79-4.66,0-4.38-6.6-4.38h-1.71Z"/><path class="cls-5" d="M494.8,607.88v4.58a10.75,10.75,0,0,0-6.94-2.81,8.84,8.84,0,0,0-6.66,2.84,9.54,9.54,0,0,0-2.72,6.91,9.31,9.31,0,0,0,2.72,6.8,9,9,0,0,0,6.67,2.78,8.23,8.23,0,0,0,3.47-.67,10.89,10.89,0,0,0,1.66-.89,20,20,0,0,0,1.8-1.37v4.67a14,14,0,0,1-7,1.87,12.85,12.85,0,0,1-9.38-3.83,12.71,12.71,0,0,1-3.86-9.33,13.14,13.14,0,0,1,3.23-8.73,13.33,13.33,0,0,1,17-2.82Z"/><path class="cls-5" d="M510.88,616h3.76v16.17h-3.76v-1.69a7.19,7.19,0,0,1-10.51-.27A9,9,0,0,1,498.2,624a8.71,8.71,0,0,1,2.17-6.06,7,7,0,0,1,5.45-2.43,6.87,6.87,0,0,1,5.06,2.33ZM502,624a5.61,5.61,0,0,0,1.24,3.78,4.08,4.08,0,0,0,3.22,1.48,4.31,4.31,0,0,0,3.36-1.43,6.13,6.13,0,0,0,0-7.5,4.22,4.22,0,0,0-3.32-1.45,4.13,4.13,0,0,0-3.22,1.46A5.38,5.38,0,0,0,502,624Z"/><path class="cls-5" d="M519.35,616h3.74v1.44a6.86,6.86,0,0,1,1.82-1.47,4.16,4.16,0,0,1,1.93-.42,6.09,6.09,0,0,1,3.09,1l-1.71,3.42a3.65,3.65,0,0,0-2.08-.76c-2,0-3,1.54-3,4.62v8.38h-3.74Z"/><path class="cls-5" d="M532,609.24a2.3,2.3,0,0,1,.71-1.7,2.44,2.44,0,0,1,3.44,0,2.33,2.33,0,0,1,.71,1.71,2.38,2.38,0,0,1-.71,1.73,2.3,2.3,0,0,1-1.71.71,2.42,2.42,0,0,1-2.44-2.45Zm4.3,6.72v16.17h-3.74V616Z"/><path class="cls-5" d="M550.44,618.72l-3.08,1.64c-.49-1-1.09-1.49-1.81-1.49a1.21,1.21,0,0,0-.88.34,1.1,1.1,0,0,0-.37.87c0,.62.72,1.23,2.16,1.84a12.86,12.86,0,0,1,4,2.36,4,4,0,0,1,1,2.9,5.07,5.07,0,0,1-1.73,3.92,6.2,6.2,0,0,1-9.81-2.47l3.19-1.48a7.11,7.11,0,0,0,1,1.48,2.33,2.33,0,0,0,1.63.63c1.26,0,1.89-.58,1.89-1.73,0-.66-.48-1.28-1.46-1.86l-1.13-.55-1.14-.54a6.92,6.92,0,0,1-2.29-1.6,3.88,3.88,0,0,1-.85-2.6,4.62,4.62,0,0,1,1.44-3.49,5.07,5.07,0,0,1,3.59-1.38A4.88,4.88,0,0,1,550.44,618.72Z"/><path class="cls-5" d="M564.24,618.72l-3.09,1.64c-.48-1-1.09-1.49-1.81-1.49a1.25,1.25,0,0,0-.88.34,1.12,1.12,0,0,0-.36.87c0,.62.72,1.23,2.16,1.84a12.86,12.86,0,0,1,4,2.36,4.06,4.06,0,0,1,1,2.9,5.1,5.1,0,0,1-1.73,3.92,6.2,6.2,0,0,1-9.81-2.47l3.19-1.48a7.11,7.11,0,0,0,1,1.48,2.3,2.3,0,0,0,1.63.63c1.26,0,1.89-.58,1.89-1.73,0-.66-.49-1.28-1.46-1.86l-1.13-.55-1.15-.54a7,7,0,0,1-2.29-1.6,3.92,3.92,0,0,1-.84-2.6,4.62,4.62,0,0,1,1.44-3.49,5.06,5.06,0,0,1,3.59-1.38A4.9,4.9,0,0,1,564.24,618.72Z"/><path class="cls-5" d="M580.56,616h3.75v16.17h-3.75v-1.69a7.19,7.19,0,0,1-10.51-.27,9,9,0,0,1-2.17-6.17,8.71,8.71,0,0,1,2.17-6.06,7,7,0,0,1,5.45-2.43,6.87,6.87,0,0,1,5.06,2.33Zm-8.87,8a5.61,5.61,0,0,0,1.25,3.78,4.07,4.07,0,0,0,3.22,1.48,4.29,4.29,0,0,0,3.35-1.43,6.13,6.13,0,0,0,0-7.5,4.4,4.4,0,0,0-6.54,0A5.43,5.43,0,0,0,571.69,624Z"/><path class="cls-5" d="M604.1,606.5v22h7.54v3.64H600.23V606.5Z"/><path class="cls-5" d="M613.83,623.93a8,8,0,0,1,2.51-6,8.83,8.83,0,0,1,12.25,0,8.64,8.64,0,0,1,0,12.16,8.54,8.54,0,0,1-6.19,2.44,8.2,8.2,0,0,1-6.09-2.49A8.34,8.34,0,0,1,613.83,623.93Zm3.82.07a5.46,5.46,0,0,0,1.29,3.83,5,5,0,0,0,7,0,6.08,6.08,0,0,0,0-7.54,4.57,4.57,0,0,0-3.5-1.43,4.52,4.52,0,0,0-3.47,1.43A5.18,5.18,0,0,0,617.65,624Z"/><path class="cls-5" d="M634.47,609.24a2.3,2.3,0,0,1,.71-1.7,2.35,2.35,0,0,1,1.71-.71,2.39,2.39,0,0,1,1.73.71,2.33,2.33,0,0,1,.71,1.71,2.38,2.38,0,0,1-.71,1.73,2.3,2.3,0,0,1-1.71.71,2.32,2.32,0,0,1-1.73-.71A2.36,2.36,0,0,1,634.47,609.24Zm4.3,6.72v16.17H635V616Z"/><path class="cls-5" d="M652.89,618.72l-3.08,1.64c-.49-1-1.09-1.49-1.81-1.49a1.21,1.21,0,0,0-.88.34,1.1,1.1,0,0,0-.37.87c0,.62.72,1.23,2.16,1.84a12.86,12.86,0,0,1,4,2.36,4,4,0,0,1,1,2.9,5.1,5.1,0,0,1-1.73,3.92,6.2,6.2,0,0,1-9.81-2.47l3.19-1.48a7.11,7.11,0,0,0,1,1.48,2.33,2.33,0,0,0,1.63.63c1.26,0,1.89-.58,1.89-1.73,0-.66-.49-1.28-1.46-1.86l-1.13-.55-1.14-.54a7.09,7.09,0,0,1-2.3-1.6,3.92,3.92,0,0,1-.84-2.6,4.62,4.62,0,0,1,1.44-3.49,5.07,5.07,0,0,1,3.59-1.38A4.88,4.88,0,0,1,652.89,618.72Z"/><path class="cls-5" d="M675.57,610.13v22H671.7v-22h-5.89V606.5h15.64v3.63Z"/><path class="cls-5" d="M683,616h3.74v1.44a7,7,0,0,1,1.83-1.47,4.12,4.12,0,0,1,1.92-.42,6,6,0,0,1,3.09,1l-1.71,3.42a3.63,3.63,0,0,0-2.08-.76q-3,0-3,4.62v8.38H683Z"/><path class="cls-5" d="M707.43,616h3.75v16.17h-3.75v-1.69a7.19,7.19,0,0,1-10.51-.27,9,9,0,0,1-2.17-6.17,8.71,8.71,0,0,1,2.17-6.06,7,7,0,0,1,5.45-2.43,6.87,6.87,0,0,1,5.06,2.33Zm-8.87,8a5.61,5.61,0,0,0,1.25,3.78,4.05,4.05,0,0,0,3.22,1.48,4.29,4.29,0,0,0,3.35-1.43,6.13,6.13,0,0,0,0-7.5,4.21,4.21,0,0,0-3.32-1.45,4.16,4.16,0,0,0-3.22,1.46A5.43,5.43,0,0,0,698.56,624Z"/><path class="cls-5" d="M728.48,616.66v5a9.19,9.19,0,0,0-2.29-2.14,4.48,4.48,0,0,0-2.34-.6,4.57,4.57,0,0,0-3.5,1.48,5.18,5.18,0,0,0-1.4,3.7,5.3,5.3,0,0,0,1.35,3.74,4.53,4.53,0,0,0,3.47,1.46,4.84,4.84,0,0,0,2.37-.58,9.7,9.7,0,0,0,2.34-2.19v4.93a9.87,9.87,0,0,1-4.55,1.17,8.67,8.67,0,0,1-6.27-2.42,8.08,8.08,0,0,1-2.53-6.06,8.19,8.19,0,0,1,2.56-6.11,8.63,8.63,0,0,1,6.27-2.49A9.32,9.32,0,0,1,728.48,616.66Z"/><path class="cls-5" d="M737.2,629.13,729.92,616h4.34l4.94,9.3,4.62-9.3H748l-12.89,25h-4.26Z"/><path class="cls-33" d="M501.26,979.67h5.23V982h-5.23Z"/><path class="cls-33" d="M518.8,975.75l7-7.22h3.64l-8.18,8.19,8.23,9.9h-3.66l-6.51-8-.56.56v7.49h-2.74V968.53h2.74Z"/><path class="cls-33" d="M539.08,975.21h2.65v11.41h-2.65v-1.19a5.07,5.07,0,0,1-7.42-.19,6.37,6.37,0,0,1-1.53-4.36,6.19,6.19,0,0,1,1.53-4.28,5,5,0,0,1,3.85-1.71,4.86,4.86,0,0,1,3.57,1.64Zm-6.26,5.67a4,4,0,0,0,.88,2.67A2.87,2.87,0,0,0,536,984.6a3,3,0,0,0,2.36-1,4.35,4.35,0,0,0,0-5.3,3,3,0,0,0-2.34-1,2.91,2.91,0,0,0-2.27,1A3.79,3.79,0,0,0,532.82,980.88Z"/><path class="cls-33" d="M545.06,975.21h2.63v1a5,5,0,0,1,1.29-1,2.93,2.93,0,0,1,1.36-.3,4.28,4.28,0,0,1,2.18.68L551.31,978a2.49,2.49,0,0,0-1.46-.54c-1.44,0-2.16,1.08-2.16,3.26v5.91h-2.63Z"/><path class="cls-33" d="M558.69,984.5l-5.14-9.29h3.06l3.49,6.56,3.26-6.56h3l-9.1,17.62h-3Z"/><path class="cls-33" d="M576.14,975.21h2.64v11.41h-2.64v-1.19a5.1,5.1,0,0,1-3.51,1.52,5,5,0,0,1-3.91-1.71,6.33,6.33,0,0,1-1.54-4.36,6.15,6.15,0,0,1,1.54-4.28,4.94,4.94,0,0,1,3.84-1.71,4.88,4.88,0,0,1,3.58,1.64Zm-6.26,5.67a3.94,3.94,0,0,0,.88,2.67A2.87,2.87,0,0,0,573,984.6a3,3,0,0,0,2.37-1,4.35,4.35,0,0,0,0-5.3,3,3,0,0,0-2.35-1,2.94,2.94,0,0,0-2.27,1A3.83,3.83,0,0,0,569.88,980.88Z"/><path class="cls-33" d="M589.12,970.46a1.72,1.72,0,0,1,1.71-1.7,1.65,1.65,0,0,1,1.22.51,1.6,1.6,0,0,1,.5,1.2,1.72,1.72,0,0,1-1.71,1.73,1.72,1.72,0,0,1-1.72-1.74Zm3,4.75v11.41h-2.63V975.21Z"/><path class="cls-33" d="M595.49,975.21h2.65v1a4.33,4.33,0,0,1,3.12-1.37,4,4,0,0,1,3.11,1.26,5.13,5.13,0,0,1,1,3.48v7h-2.65v-6.37a4.18,4.18,0,0,0-.47-2.33,1.89,1.89,0,0,0-1.66-.66,2,2,0,0,0-1.87.87,5.94,5.94,0,0,0-.54,3v5.5h-2.65Z"/><path class="cls-33" d="M608.26,970.46a1.59,1.59,0,0,1,.5-1.19,1.65,1.65,0,0,1,1.21-.51,1.67,1.67,0,0,1,1.22.51,1.64,1.64,0,0,1,.5,1.2,1.67,1.67,0,0,1-.5,1.22,1.62,1.62,0,0,1-1.21.51,1.65,1.65,0,0,1-1.22-.51A1.64,1.64,0,0,1,608.26,970.46Zm3,4.75v11.41h-2.64V975.21Z"/><path class="cls-33" d="M630.45,966.83h2.65v19.79h-2.65v-1.19a4.93,4.93,0,0,1-3.53,1.52,5,5,0,0,1-3.89-1.71,6.37,6.37,0,0,1-1.53-4.36,6.15,6.15,0,0,1,1.53-4.26,4.92,4.92,0,0,1,3.84-1.73,4.87,4.87,0,0,1,3.58,1.64Zm-6.26,14a4,4,0,0,0,.88,2.67,2.87,2.87,0,0,0,2.28,1.05,3,3,0,0,0,2.36-1,4.31,4.31,0,0,0,0-5.3,3,3,0,0,0-2.34-1,2.93,2.93,0,0,0-2.27,1A3.79,3.79,0,0,0,624.19,980.88Z"/><path class="cls-33" d="M636,970.46a1.72,1.72,0,0,1,1.71-1.7,1.65,1.65,0,0,1,1.22.51,1.6,1.6,0,0,1,.5,1.2,1.72,1.72,0,0,1-1.71,1.73,1.72,1.72,0,0,1-1.72-1.74Zm3,4.75v11.41h-2.63V975.21Z"/><path class="cls-33" d="M645.12,977.67v9h-2.63v-9h-1.13v-2.46h1.13V971h2.63v4.18h2v2.46Z"/><path class="cls-33" d="M651.6,975.21v6.55c0,1.89.75,2.84,2.24,2.84s2.24-1,2.24-2.84v-6.55h2.64v6.61a7.6,7.6,0,0,1-.34,2.37,4,4,0,0,1-1.14,1.6,5.53,5.53,0,0,1-6.78,0,4,4,0,0,1-1.16-1.6,6.53,6.53,0,0,1-.33-2.37v-6.61Z"/><path class="cls-33" d="M661.65,970.46a1.59,1.59,0,0,1,.5-1.19,1.65,1.65,0,0,1,1.21-.51,1.67,1.67,0,0,1,1.22.51,1.64,1.64,0,0,1,.5,1.2,1.67,1.67,0,0,1-.5,1.22,1.62,1.62,0,0,1-1.21.51,1.65,1.65,0,0,1-1.22-.51A1.64,1.64,0,0,1,661.65,970.46Zm3,4.75v17.62h-2.63V975.21Z"/><path class="cls-33" d="M670.66,975.21v6.55c0,1.89.74,2.84,2.24,2.84s2.24-1,2.24-2.84v-6.55h2.63v6.61a7.32,7.32,0,0,1-.34,2.37,4.09,4.09,0,0,1-1.13,1.6,5.55,5.55,0,0,1-6.79,0,4.08,4.08,0,0,1-1.16-1.6,6.53,6.53,0,0,1-.33-2.37v-6.61Z"/><path class="cls-33" d="M683.74,966.83V978.9l3.71-3.69H691L686,980l5.32,6.62h-3.42l-3.77-4.81-.42.42v4.39H681.1V966.83Z"/><path class="cls-33" d="M701.06,975.21h2.65v11.41h-2.65v-1.19a5.07,5.07,0,0,1-7.42-.19,6.38,6.38,0,0,1-1.54-4.36,6.19,6.19,0,0,1,1.54-4.28,4.94,4.94,0,0,1,3.84-1.71,4.88,4.88,0,0,1,3.58,1.64Zm-6.26,5.67a3.94,3.94,0,0,0,.88,2.67A2.87,2.87,0,0,0,698,984.6a3,3,0,0,0,2.37-1,4.35,4.35,0,0,0,0-5.3,3.12,3.12,0,0,0-4.62,0A3.83,3.83,0,0,0,694.8,980.88Z"/><path class="cls-33" d="M707,975.21h2.65v1a4.33,4.33,0,0,1,3.12-1.37,3.91,3.91,0,0,1,3.1,1.26,5.08,5.08,0,0,1,1,3.48v7h-2.65v-6.37a4.18,4.18,0,0,0-.47-2.33,1.9,1.9,0,0,0-1.67-.66,2,2,0,0,0-1.86.87,5.94,5.94,0,0,0-.54,3v5.5H707Z"/><path class="cls-33" d="M734.23,977.15l-2.18,1.16c-.34-.7-.77-1-1.27-1a.9.9,0,0,0-.63.24.81.81,0,0,0-.25.62c0,.43.5.87,1.52,1.3a8.91,8.91,0,0,1,2.82,1.66,2.83,2.83,0,0,1,.73,2,3.63,3.63,0,0,1-1.22,2.77,4.37,4.37,0,0,1-6.92-1.75l2.25-1a5.2,5.2,0,0,0,.71,1,1.62,1.62,0,0,0,1.15.45c.89,0,1.34-.41,1.34-1.22,0-.47-.35-.91-1-1.32l-.79-.38-.81-.39a4.89,4.89,0,0,1-1.62-1.12,2.77,2.77,0,0,1-.6-1.84,3.23,3.23,0,0,1,1-2.46,3.59,3.59,0,0,1,2.54-1A3.45,3.45,0,0,1,734.23,977.15Z"/><path class="cls-33" d="M747.73,981.54h-8.18a3.5,3.5,0,0,0,.92,2.24,2.81,2.81,0,0,0,2.07.82,2.71,2.71,0,0,0,1.63-.47,6.8,6.8,0,0,0,1.44-1.74l2.23,1.24a9.34,9.34,0,0,1-1.09,1.51,5.61,5.61,0,0,1-1.23,1,4.8,4.8,0,0,1-1.42.59,6.67,6.67,0,0,1-1.65.19,5.37,5.37,0,0,1-4.1-1.64,6.11,6.11,0,0,1-1.55-4.38,6.29,6.29,0,0,1,1.5-4.38,5.7,5.7,0,0,1,8,0,6.3,6.3,0,0,1,1.45,4.42Zm-2.7-2.16a2.53,2.53,0,0,0-2.66-2.11,2.71,2.71,0,0,0-.91.15,2.69,2.69,0,0,0-.76.42,2.72,2.72,0,0,0-.6.66,3,3,0,0,0-.37.88Z"/><path class="cls-33" d="M753.25,966.83v9.7a4.94,4.94,0,0,1,7.43.09,6.11,6.11,0,0,1,1.54,4.26,6.29,6.29,0,0,1-1.55,4.36,5.07,5.07,0,0,1-7.42.19v1.19h-2.63V966.83ZM759.52,981a3.88,3.88,0,0,0-.89-2.67,2.83,2.83,0,0,0-2.26-1.06,3,3,0,0,0-2.37,1,3.8,3.8,0,0,0-.9,2.63,3.87,3.87,0,0,0,.89,2.66,3,3,0,0,0,2.34,1,2.91,2.91,0,0,0,2.28-1A3.75,3.75,0,0,0,759.52,981Z"/><path class="cls-33" d="M773.42,975.21h2.65v11.41h-2.65v-1.19a5.07,5.07,0,0,1-7.42-.19,6.37,6.37,0,0,1-1.53-4.36A6.19,6.19,0,0,1,766,976.6a5,5,0,0,1,3.85-1.71,4.86,4.86,0,0,1,3.57,1.64Zm-6.26,5.67a4,4,0,0,0,.88,2.67,2.87,2.87,0,0,0,2.27,1.05,3,3,0,0,0,2.37-1,4.35,4.35,0,0,0,0-5.3,3.12,3.12,0,0,0-4.62,0A3.83,3.83,0,0,0,767.16,980.88Z"/><path class="cls-33" d="M790.44,986.35c0,.54,0,1-.06,1.43a9.25,9.25,0,0,1-.14,1.08,5,5,0,0,1-1.1,2.22,5.38,5.38,0,0,1-4.26,1.78,5.67,5.67,0,0,1-3.76-1.23,5,5,0,0,1-1.76-3.51H782a3,3,0,0,0,.5,1.3,2.85,2.85,0,0,0,2.39,1.07q2.9,0,2.9-3.55v-1.59a4.92,4.92,0,0,1-3.62,1.6,4.84,4.84,0,0,1-3.82-1.69,6.24,6.24,0,0,1-1.5-4.27,6.6,6.6,0,0,1,1.39-4.25,4.86,4.86,0,0,1,4-1.85,4.61,4.61,0,0,1,3.59,1.61v-1.29h2.64Zm-2.54-5.41a3.8,3.8,0,0,0-.89-2.66,2.93,2.93,0,0,0-2.3-1,2.85,2.85,0,0,0-2.37,1.11,4.58,4.58,0,0,0,0,5.14,2.86,2.86,0,0,0,2.37,1.09,2.9,2.9,0,0,0,2.39-1.11A3.89,3.89,0,0,0,787.9,980.94Z"/><path class="cls-33" d="M802.18,975.21h2.65v11.41h-2.65v-1.19a5.07,5.07,0,0,1-7.42-.19,6.37,6.37,0,0,1-1.53-4.36,6.19,6.19,0,0,1,1.53-4.28,4.94,4.94,0,0,1,3.84-1.71,4.88,4.88,0,0,1,3.58,1.64Zm-6.26,5.67a3.94,3.94,0,0,0,.88,2.67,2.87,2.87,0,0,0,2.27,1.05,3,3,0,0,0,2.37-1,4.35,4.35,0,0,0,0-5.3,3.12,3.12,0,0,0-4.62,0A3.83,3.83,0,0,0,795.92,980.88Z"/><path class="cls-33" d="M807.76,970.46a1.59,1.59,0,0,1,.5-1.19,1.65,1.65,0,0,1,1.21-.51,1.67,1.67,0,0,1,1.22.51,1.64,1.64,0,0,1,.5,1.2,1.67,1.67,0,0,1-.5,1.22,1.62,1.62,0,0,1-1.21.51,1.65,1.65,0,0,1-1.22-.51A1.64,1.64,0,0,1,807.76,970.46Zm3,4.75v11.41h-2.64V975.21Z"/><path class="cls-33" d="M827,971.1v15.52H824.3V971.1h-4.16v-2.57h11v2.57Z"/><path class="cls-33" d="M834.77,975.21v6.55c0,1.89.74,2.84,2.24,2.84s2.23-1,2.23-2.84v-6.55h2.64v6.61a7.32,7.32,0,0,1-.34,2.37,4,4,0,0,1-1.14,1.6,5.53,5.53,0,0,1-6.78,0,4.08,4.08,0,0,1-1.16-1.6,6.53,6.53,0,0,1-.33-2.37v-6.61Z"/><path class="cls-33" d="M856.25,986.35c0,.54,0,1,0,1.43s-.09.77-.15,1.08a5,5,0,0,1-1.1,2.22,5.37,5.37,0,0,1-4.26,1.78,5.69,5.69,0,0,1-3.76-1.23,5.08,5.08,0,0,1-1.76-3.51h2.65a2.67,2.67,0,0,0,2.9,2.37q2.89,0,2.89-3.55v-1.59A4.92,4.92,0,0,1,850,987a4.85,4.85,0,0,1-3.82-1.69,6.24,6.24,0,0,1-1.5-4.27,6.66,6.66,0,0,1,1.39-4.25,4.88,4.88,0,0,1,4-1.85,4.6,4.6,0,0,1,3.58,1.61v-1.29h2.64Zm-2.53-5.41a3.85,3.85,0,0,0-.89-2.66,2.94,2.94,0,0,0-2.31-1,2.85,2.85,0,0,0-2.37,1.11,4.62,4.62,0,0,0,0,5.14,3.12,3.12,0,0,0,4.76,0A3.9,3.9,0,0,0,853.72,980.94Z"/><path class="cls-33" d="M868,975.21h2.65v11.41H868v-1.19a5.07,5.07,0,0,1-7.42-.19,6.37,6.37,0,0,1-1.53-4.36,6.19,6.19,0,0,1,1.53-4.28,5,5,0,0,1,3.85-1.71,4.86,4.86,0,0,1,3.57,1.64Zm-6.26,5.67a4,4,0,0,0,.88,2.67,2.87,2.87,0,0,0,2.28,1.05,3,3,0,0,0,2.36-1,4.35,4.35,0,0,0,0-5.3,3,3,0,0,0-2.34-1,2.91,2.91,0,0,0-2.27,1A3.79,3.79,0,0,0,861.73,980.88Z"/><path class="cls-33" d="M880.6,977.15l-2.18,1.16c-.34-.7-.77-1-1.28-1a.88.88,0,0,0-.62.24.82.82,0,0,0-.26.62c0,.43.51.87,1.53,1.3a8.91,8.91,0,0,1,2.82,1.66,2.83,2.83,0,0,1,.73,2,3.63,3.63,0,0,1-1.22,2.77,4.38,4.38,0,0,1-6.93-1.75l2.25-1a5.11,5.11,0,0,0,.72,1,1.62,1.62,0,0,0,1.15.45c.89,0,1.33-.41,1.33-1.22,0-.47-.34-.91-1-1.32l-.8-.38-.8-.39a4.89,4.89,0,0,1-1.62-1.12,2.77,2.77,0,0,1-.6-1.84,3.23,3.23,0,0,1,1-2.46,3.58,3.58,0,0,1,2.53-1A3.47,3.47,0,0,1,880.6,977.15Z"/><path class="cls-33" d="M902.24,982.23H894.5l-2,4.39h-2.94l9-19.23,8.64,19.23h-3Zm-1.11-2.57-2.68-6.15-2.81,6.15Z"/><path class="cls-33" d="M911.53,966.83V978.9l3.71-3.69h3.54l-5,4.79,5.32,6.62h-3.42L912,981.81l-.42.42v4.39h-2.64V966.83Z"/><path class="cls-33" d="M920.84,966.83h2.64v9.33a4.51,4.51,0,0,1,3.1-1.27,4,4,0,0,1,3.1,1.26,5.11,5.11,0,0,1,1,3.48v7H928v-6.75a3.23,3.23,0,0,0-.49-2,1.87,1.87,0,0,0-1.56-.62,2.15,2.15,0,0,0-2,.86,5.83,5.83,0,0,0-.55,3v5.52h-2.64Z"/><path class="cls-33" d="M933.6,970.46a1.6,1.6,0,0,1,.51-1.19,1.71,1.71,0,1,1,2.42,2.42,1.59,1.59,0,0,1-1.2.51,1.74,1.74,0,0,1-1.73-1.74Zm3,4.75v11.41H934V975.21Z"/><path class="cls-33" d="M940,975.21h2.64v1a4.8,4.8,0,0,1,1.28-1,2.93,2.93,0,0,1,1.36-.3,4.26,4.26,0,0,1,2.18.68l-1.2,2.42a2.52,2.52,0,0,0-1.47-.54c-1.44,0-2.15,1.08-2.15,3.26v5.91H940Z"/><path class="cls-33" d="M964.87,966.63l2.18,1-10.36,24-2.16-1Z"/><path class="cls-33" d="M986.94,971.22l-2.22,1.32a3.83,3.83,0,0,0-1.18-1.41,3.18,3.18,0,0,0-3.4.27,2,2,0,0,0-.75,1.59c0,.89.65,1.6,2,2.14l1.8.74a7.54,7.54,0,0,1,3.22,2.17,4.88,4.88,0,0,1,1,3.15,5.52,5.52,0,0,1-1.66,4.12,5.72,5.72,0,0,1-4.16,1.64,5.55,5.55,0,0,1-3.89-1.39,6.42,6.42,0,0,1-1.89-3.93l2.77-.61a4.65,4.65,0,0,0,.65,2.2,3.11,3.11,0,0,0,4.59.32,3,3,0,0,0,.84-2.17,2.93,2.93,0,0,0-.15-1,2.31,2.31,0,0,0-.45-.81,3.5,3.5,0,0,0-.81-.69,7,7,0,0,0-1.17-.62l-1.74-.73q-3.72-1.56-3.72-4.59a4.35,4.35,0,0,1,1.56-3.41,5.64,5.64,0,0,1,3.88-1.38A5.43,5.43,0,0,1,986.94,971.22Z"/><path class="cls-33" d="M992.83,966.83V978.9l3.71-3.69h3.54l-5,4.79,5.32,6.62H997l-3.78-4.81-.42.42v4.39h-2.64V966.83Z"/><path class="cls-33" d="M1002.15,975.21h2.63v1a5,5,0,0,1,1.29-1,2.93,2.93,0,0,1,1.36-.3,4.28,4.28,0,0,1,2.18.68L1008.4,978a2.49,2.49,0,0,0-1.46-.54c-1.44,0-2.16,1.08-2.16,3.26v5.91h-2.63Z"/><path class="cls-33" d="M1011.09,970.46a1.72,1.72,0,0,1,1.71-1.7,1.72,1.72,0,0,1,1.22,2.93,1.62,1.62,0,0,1-1.21.51,1.65,1.65,0,0,1-1.22-.51A1.67,1.67,0,0,1,1011.09,970.46Zm3,4.75v11.41h-2.63V975.21Z"/><path class="cls-33" d="M1020.1,992.83h-2.64V975.21h2.64v1.24a4.88,4.88,0,0,1,3.54-1.56,4.94,4.94,0,0,1,3.88,1.74,6.25,6.25,0,0,1,1.54,4.34,6.17,6.17,0,0,1-1.53,4.28,5,5,0,0,1-3.84,1.7,4.9,4.9,0,0,1-3.59-1.6Zm6.27-11.84a4,4,0,0,0-.89-2.68,2.89,2.89,0,0,0-2.27-1,3,3,0,0,0-2.36,1,3.82,3.82,0,0,0-.9,2.65,3.92,3.92,0,0,0,.9,2.65,3,3,0,0,0,2.34,1,2.87,2.87,0,0,0,2.27-1A3.75,3.75,0,0,0,1026.37,981Z"/><path class="cls-33" d="M1038.49,977.15l-2.18,1.16c-.35-.7-.77-1-1.28-1a.88.88,0,0,0-.62.24.82.82,0,0,0-.26.62c0,.43.51.87,1.52,1.3a9.11,9.11,0,0,1,2.83,1.66,2.86,2.86,0,0,1,.72,2,3.62,3.62,0,0,1-1.21,2.77,4.38,4.38,0,0,1-6.93-1.75l2.25-1a5.2,5.2,0,0,0,.71,1,1.65,1.65,0,0,0,1.15.45c.89,0,1.34-.41,1.34-1.22,0-.47-.34-.91-1-1.32l-.8-.38-.81-.39a4.94,4.94,0,0,1-1.61-1.12,2.77,2.77,0,0,1-.6-1.84,3.23,3.23,0,0,1,1-2.46,3.57,3.57,0,0,1,2.53-1A3.47,3.47,0,0,1,1038.49,977.15Z"/><path class="cls-33" d="M1041.19,970.46a1.6,1.6,0,0,1,.51-1.19,1.72,1.72,0,1,1,0,2.42A1.64,1.64,0,0,1,1041.19,970.46Zm3,4.75v11.41h-2.64V975.21Z"/><path class="cls-33" d="M1063.39,966.83H1066v19.79h-2.65v-1.19a5,5,0,0,1-3.53,1.52,5,5,0,0,1-3.89-1.71,6.37,6.37,0,0,1-1.53-4.36,6.15,6.15,0,0,1,1.53-4.26,4.93,4.93,0,0,1,7.42-.09Zm-6.26,14a3.94,3.94,0,0,0,.88,2.67,2.87,2.87,0,0,0,2.27,1.05,3,3,0,0,0,2.37-1,4.35,4.35,0,0,0,0-5.3,3.12,3.12,0,0,0-4.62,0A3.83,3.83,0,0,0,1057.13,980.88Z"/><path class="cls-33" d="M1077.78,975.21h2.65v11.41h-2.65v-1.19a5.07,5.07,0,0,1-7.42-.19,6.37,6.37,0,0,1-1.53-4.36,6.19,6.19,0,0,1,1.53-4.28,5,5,0,0,1,3.85-1.71,4.88,4.88,0,0,1,3.57,1.64Zm-6.26,5.67a3.94,3.94,0,0,0,.88,2.67,2.87,2.87,0,0,0,2.27,1.05,3,3,0,0,0,2.37-1,4.35,4.35,0,0,0,0-5.3,3.12,3.12,0,0,0-4.62,0A3.83,3.83,0,0,0,1071.52,980.88Z"/><path class="cls-33" d="M1086.39,966.83v19.79h-2.63V966.83Z"/><path class="cls-33" d="M1098.15,975.21h2.64v11.41h-2.64v-1.19a5.1,5.1,0,0,1-3.51,1.52,5,5,0,0,1-3.91-1.71,6.38,6.38,0,0,1-1.54-4.36,6.19,6.19,0,0,1,1.54-4.28,4.94,4.94,0,0,1,3.84-1.71,4.88,4.88,0,0,1,3.58,1.64Zm-6.26,5.67a3.94,3.94,0,0,0,.88,2.67,2.87,2.87,0,0,0,2.27,1.05,3,3,0,0,0,2.37-1,4.35,4.35,0,0,0,0-5.3,3,3,0,0,0-2.35-1,2.94,2.94,0,0,0-2.27,1A3.83,3.83,0,0,0,1091.89,980.88Z"/><path class="cls-33" d="M1104.12,975.21h2.64v1a5.31,5.31,0,0,1,1.3-1.07,3.07,3.07,0,0,1,1.44-.3,3.51,3.51,0,0,1,3.06,1.69,4,4,0,0,1,3.36-1.69q3.86,0,3.86,4.68v7h-2.65v-6.34a4.86,4.86,0,0,0-.4-2.32,1.44,1.44,0,0,0-1.35-.69,1.72,1.72,0,0,0-1.58.82,5.22,5.22,0,0,0-.5,2.64v5.89h-2.65v-6.3c0-2-.59-3.05-1.76-3.05a1.77,1.77,0,0,0-1.62.83,5.21,5.21,0,0,0-.51,2.63v5.89h-2.64Z"/><path class="cls-33" d="M1130.51,975.21h2.64v1a5.31,5.31,0,0,1,1.3-1.07,3.07,3.07,0,0,1,1.44-.3,3.51,3.51,0,0,1,3.06,1.69,4,4,0,0,1,3.36-1.69q3.86,0,3.86,4.68v7h-2.65v-6.34a4.86,4.86,0,0,0-.4-2.32,1.43,1.43,0,0,0-1.34-.69,1.73,1.73,0,0,0-1.59.82,5.33,5.33,0,0,0-.5,2.64v5.89H1137v-6.3c0-2-.58-3.05-1.76-3.05a1.77,1.77,0,0,0-1.62.83,5.21,5.21,0,0,0-.51,2.63v5.89h-2.64Z"/><path class="cls-33" d="M1159.89,981.54h-8.18a3.5,3.5,0,0,0,.92,2.24,2.81,2.81,0,0,0,2.07.82,2.71,2.71,0,0,0,1.63-.47,6.8,6.8,0,0,0,1.44-1.74l2.23,1.24a9.34,9.34,0,0,1-1.09,1.51,5.61,5.61,0,0,1-1.23,1,4.8,4.8,0,0,1-1.42.59,6.67,6.67,0,0,1-1.65.19,5.37,5.37,0,0,1-4.1-1.64,6.11,6.11,0,0,1-1.55-4.38,6.29,6.29,0,0,1,1.5-4.38,5.7,5.7,0,0,1,8,0,6.3,6.3,0,0,1,1.45,4.42Zm-2.7-2.16a2.53,2.53,0,0,0-2.66-2.11,2.71,2.71,0,0,0-.91.15,2.69,2.69,0,0,0-.76.42,2.53,2.53,0,0,0-.6.66,3,3,0,0,0-.37.88Z"/><path class="cls-33" d="M1162.78,975.21h2.63v1a5.31,5.31,0,0,1,1.3-1.07,3.13,3.13,0,0,1,1.44-.3,3.51,3.51,0,0,1,3.06,1.69,4,4,0,0,1,3.37-1.69q3.86,0,3.85,4.68v7h-2.65v-6.34a4.86,4.86,0,0,0-.4-2.32,1.43,1.43,0,0,0-1.34-.69,1.73,1.73,0,0,0-1.59.82,5.33,5.33,0,0,0-.5,2.64v5.89h-2.65v-6.3c0-2-.58-3.05-1.76-3.05a1.77,1.77,0,0,0-1.62.83,5.21,5.21,0,0,0-.51,2.63v5.89h-2.63Z"/><path class="cls-33" d="M1184.69,992.83h-2.64V975.21h2.64v1.24a4.88,4.88,0,0,1,3.54-1.56,4.94,4.94,0,0,1,3.88,1.74,6.25,6.25,0,0,1,1.54,4.34,6.17,6.17,0,0,1-1.53,4.28,5,5,0,0,1-3.84,1.7,4.9,4.9,0,0,1-3.59-1.6ZM1191,981a4,4,0,0,0-.89-2.68,2.89,2.89,0,0,0-2.28-1,3,3,0,0,0-2.35,1,3.82,3.82,0,0,0-.9,2.65,3.92,3.92,0,0,0,.9,2.65,3,3,0,0,0,2.34,1,2.84,2.84,0,0,0,2.26-1A3.71,3.71,0,0,0,1191,981Z"/><path class="cls-33" d="M1206.84,981.54h-8.18a3.49,3.49,0,0,0,.91,2.24,2.82,2.82,0,0,0,2.08.82,2.73,2.73,0,0,0,1.63-.47,6.8,6.8,0,0,0,1.44-1.74l2.22,1.24a8.27,8.27,0,0,1-1.09,1.51,5.61,5.61,0,0,1-1.23,1,4.74,4.74,0,0,1-1.41.59,6.69,6.69,0,0,1-1.66.19,5.39,5.39,0,0,1-4.1-1.64,6.15,6.15,0,0,1-1.55-4.38,6.29,6.29,0,0,1,1.5-4.38,5.71,5.71,0,0,1,8,0,6.3,6.3,0,0,1,1.45,4.42Zm-2.71-2.16a2.52,2.52,0,0,0-2.66-2.11,2.66,2.66,0,0,0-.9.15,2.74,2.74,0,0,0-.77.42,2.5,2.5,0,0,0-.59.66,3,3,0,0,0-.38.88Z"/><path class="cls-33" d="M1209.72,975.21h2.64v1a4.67,4.67,0,0,1,1.29-1,2.87,2.87,0,0,1,1.36-.3,4.31,4.31,0,0,1,2.18.68L1216,978a2.52,2.52,0,0,0-1.47-.54c-1.43,0-2.15,1.08-2.15,3.26v5.91h-2.64Z"/><path class="cls-33" d="M1218,980.83a5.66,5.66,0,0,1,1.77-4.2,6.23,6.23,0,0,1,8.65,0,6.12,6.12,0,0,1,0,8.59A6,6,0,0,1,1224,987a5.78,5.78,0,0,1-4.3-1.76A5.92,5.92,0,0,1,1218,980.83Zm2.69,0a3.87,3.87,0,0,0,.92,2.71,3.54,3.54,0,0,0,4.94,0,4.27,4.27,0,0,0,0-5.32,3.5,3.5,0,0,0-4.92,0A3.69,3.69,0,0,0,1220.64,980.88Z"/><path class="cls-33" d="M1235.55,966.83v19.79h-2.64V966.83Z"/><path class="cls-33" d="M1249.28,981.54h-8.18a3.5,3.5,0,0,0,.92,2.24,2.81,2.81,0,0,0,2.07.82,2.71,2.71,0,0,0,1.63-.47,6.8,6.8,0,0,0,1.44-1.74l2.23,1.24a9.34,9.34,0,0,1-1.09,1.51,5.61,5.61,0,0,1-1.23,1,4.8,4.8,0,0,1-1.42.59,6.67,6.67,0,0,1-1.65.19,5.37,5.37,0,0,1-4.1-1.64,6.15,6.15,0,0,1-1.55-4.38,6.29,6.29,0,0,1,1.5-4.38,5.7,5.7,0,0,1,8,0,6.3,6.3,0,0,1,1.45,4.42Zm-2.7-2.16a2.53,2.53,0,0,0-2.66-2.11,2.71,2.71,0,0,0-.91.15,2.69,2.69,0,0,0-.76.42,2.72,2.72,0,0,0-.6.66,3.33,3.33,0,0,0-.37.88Z"/><path class="cls-33" d="M1252.17,966.83h2.63v9.33a4.54,4.54,0,0,1,3.11-1.27,4,4,0,0,1,3.09,1.26,5.06,5.06,0,0,1,1,3.48v7h-2.64v-6.75a3.16,3.16,0,0,0-.49-2,1.86,1.86,0,0,0-1.56-.62,2.17,2.17,0,0,0-2,.86,5.94,5.94,0,0,0-.55,3v5.52h-2.63Z"/><path class="cls-33" d="M1283.77,986.35c0,.54,0,1,0,1.43s-.09.77-.15,1.08a4.85,4.85,0,0,1-1.1,2.22,5.36,5.36,0,0,1-4.25,1.78,5.65,5.65,0,0,1-3.76-1.23,5,5,0,0,1-1.76-3.51h2.65a3,3,0,0,0,.5,1.3,2.84,2.84,0,0,0,2.39,1.07q2.9,0,2.89-3.55v-1.59a5,5,0,0,1-7.44-.09,6.24,6.24,0,0,1-1.5-4.27,6.61,6.61,0,0,1,1.4-4.25,4.86,4.86,0,0,1,4-1.85,4.59,4.59,0,0,1,3.58,1.61v-1.29h2.64Zm-2.53-5.41a3.85,3.85,0,0,0-.89-2.66,2.94,2.94,0,0,0-2.31-1,2.85,2.85,0,0,0-2.37,1.11,4.62,4.62,0,0,0,0,5.14,3.12,3.12,0,0,0,4.76,0A3.9,3.9,0,0,0,1281.24,980.94Z"/><path class="cls-33" d="M1297.49,981.54h-8.18a3.5,3.5,0,0,0,.92,2.24,2.81,2.81,0,0,0,2.07.82,2.71,2.71,0,0,0,1.63-.47,6.8,6.8,0,0,0,1.44-1.74l2.23,1.24a8.77,8.77,0,0,1-1.09,1.51,5.61,5.61,0,0,1-1.23,1,4.8,4.8,0,0,1-1.42.59,6.67,6.67,0,0,1-1.65.19,5.39,5.39,0,0,1-4.1-1.64,6.15,6.15,0,0,1-1.55-4.38,6.29,6.29,0,0,1,1.5-4.38,5.7,5.7,0,0,1,8,0,6.3,6.3,0,0,1,1.46,4.42Zm-2.7-2.16a2.53,2.53,0,0,0-2.66-2.11,2.76,2.76,0,0,0-.91.15,2.69,2.69,0,0,0-.76.42,2.5,2.5,0,0,0-.59.66,3,3,0,0,0-.38.88Z"/><path class="cls-33" d="M1303,966.83v19.79h-2.63V966.83Z"/><path class="cls-33" d="M1314.77,975.21h2.65v11.41h-2.65v-1.19a5.07,5.07,0,0,1-7.42-.19,6.38,6.38,0,0,1-1.54-4.36,6.19,6.19,0,0,1,1.54-4.28,4.94,4.94,0,0,1,3.84-1.71,4.88,4.88,0,0,1,3.58,1.64Zm-6.26,5.67a3.94,3.94,0,0,0,.88,2.67,2.87,2.87,0,0,0,2.27,1.05,3,3,0,0,0,2.37-1,4.35,4.35,0,0,0,0-5.3,3.12,3.12,0,0,0-4.62,0A3.83,3.83,0,0,0,1308.51,980.88Z"/><path class="cls-33" d="M1320.74,975.21h2.64v1a4.82,4.82,0,0,1,1.29-1,2.9,2.9,0,0,1,1.36-.3,4.31,4.31,0,0,1,2.18.68L1327,978a2.52,2.52,0,0,0-1.46-.54c-1.44,0-2.16,1.08-2.16,3.26v5.91h-2.64Z"/><path class="cls-33" d="M1347.86,971.22l-2.21,1.32a3.84,3.84,0,0,0-1.19-1.41,2.75,2.75,0,0,0-1.51-.37,2.79,2.79,0,0,0-1.89.64,2,2,0,0,0-.75,1.59c0,.89.66,1.6,2,2.14l1.81.74a7.61,7.61,0,0,1,3.22,2.17,4.88,4.88,0,0,1,1,3.15,5.52,5.52,0,0,1-1.66,4.12,5.74,5.74,0,0,1-4.16,1.64,5.55,5.55,0,0,1-3.89-1.39,6.42,6.42,0,0,1-1.89-3.93l2.76-.61a4.76,4.76,0,0,0,.66,2.2,2.82,2.82,0,0,0,2.46,1.18,2.86,2.86,0,0,0,2.12-.86,3,3,0,0,0,.85-2.17,2.93,2.93,0,0,0-.15-1,2.33,2.33,0,0,0-.46-.81,3.24,3.24,0,0,0-.8-.69,7.9,7.9,0,0,0-1.17-.62l-1.75-.73q-3.7-1.56-3.71-4.59a4.35,4.35,0,0,1,1.56-3.41,5.61,5.61,0,0,1,3.87-1.38A5.41,5.41,0,0,1,1347.86,971.22Z"/><path class="cls-33" d="M1359.53,975.21h2.65v11.41h-2.65v-1.19a5.06,5.06,0,0,1-7.41-.19,6.33,6.33,0,0,1-1.54-4.36,6.15,6.15,0,0,1,1.54-4.28,4.94,4.94,0,0,1,3.84-1.71,4.85,4.85,0,0,1,3.57,1.64Zm-6.25,5.67a4,4,0,0,0,.87,2.67,2.89,2.89,0,0,0,2.28,1.05,3,3,0,0,0,2.36-1,4.31,4.31,0,0,0,0-5.3,3,3,0,0,0-2.34-1,2.93,2.93,0,0,0-2.27,1A3.83,3.83,0,0,0,1353.28,980.88Z"/><path class="cls-33" d="M1365.51,975.21h2.64v1a4.67,4.67,0,0,1,1.29-1,2.86,2.86,0,0,1,1.35-.3,4.26,4.26,0,0,1,2.18.68l-1.2,2.42a2.52,2.52,0,0,0-1.47-.54c-1.43,0-2.15,1.08-2.15,3.26v5.91h-2.64Z"/><path class="cls-33" d="M1374.45,970.46a1.74,1.74,0,0,1,1.71-1.7,1.65,1.65,0,0,1,1.22.51,1.6,1.6,0,0,1,.5,1.2,1.72,1.72,0,1,1-3.43,0Zm3,4.75v17.62h-2.64V975.21Z"/><path class="cls-33" d="M1389.24,975.21h2.65v11.41h-2.65v-1.19a5.07,5.07,0,0,1-7.42-.19,6.37,6.37,0,0,1-1.53-4.36,6.19,6.19,0,0,1,1.53-4.28,5,5,0,0,1,3.85-1.71,4.86,4.86,0,0,1,3.57,1.64Zm-6.26,5.67a4,4,0,0,0,.88,2.67,2.87,2.87,0,0,0,2.27,1.05,3,3,0,0,0,2.37-1,4.35,4.35,0,0,0,0-5.3,3.12,3.12,0,0,0-4.62,0A3.83,3.83,0,0,0,1383,980.88Z"/><path class="cls-33" d="M1395.22,975.21h2.65v1a4.33,4.33,0,0,1,3.11-1.37,3.93,3.93,0,0,1,3.11,1.26,5.13,5.13,0,0,1,1,3.48v7h-2.65v-6.37a4.18,4.18,0,0,0-.47-2.33,1.88,1.88,0,0,0-1.66-.66,2,2,0,0,0-1.87.87,6,6,0,0,0-.53,3v5.5h-2.65Z"/><path class="cls-33" d="M1416.79,975.21h2.65v11.41h-2.65v-1.19a5.07,5.07,0,0,1-7.42-.19,6.37,6.37,0,0,1-1.53-4.36,6.19,6.19,0,0,1,1.53-4.28,5,5,0,0,1,3.85-1.71,4.86,4.86,0,0,1,3.57,1.64Zm-6.26,5.67a4,4,0,0,0,.88,2.67,2.87,2.87,0,0,0,2.28,1.05,3,3,0,0,0,2.36-1,4.31,4.31,0,0,0,0-5.3,3,3,0,0,0-2.34-1,2.91,2.91,0,0,0-2.27,1A3.79,3.79,0,0,0,1410.53,980.88Z"/><path class="cls-33" d="M1428.51,979.67h5.23V982h-5.23Z"/></g></g></svg>