<svg xmlns="http://www.w3.org/2000/svg" viewBox="0 0 934.34 878.35"><defs><style>.cls-1{fill:#584118;}.cls-2{fill:#e2a037;}.cls-3{fill:#f69786;stroke-width:14px;}.cls-3,.cls-4,.cls-5,.cls-6{stroke:#471a1f;stroke-miterlimit:10;}.cls-4{fill:#69cce2;stroke-width:12px;}.cls-5{fill:#bf7a2a;stroke-width:50px;}.cls-6,.cls-8{fill:#fff;}.cls-6{stroke-width:9px;}.cls-7{fill:#ed1c24;}.cls-9{fill:#006838;}.cls-10{fill:#2e3192;}.cls-11{fill:#fff200;}.cls-12{fill:#f15a29;}.cls-13{fill:#231f20;}.cls-14{fill:#e9b63e;}</style></defs><title>Donut SVG</title><g id="Layer_2" data-name="Layer 2"><g id="Layer_1-2" data-name="Layer 1"><ellipse class="cls-1" cx="457.1" cy="445.27" rx="457.1" ry="433.08"/><path class="cls-2" d="M914.2,418.51C918.91,552.12,844,688.12,731.59,761.28c-21.1,13.73-94.18,60-198.07,63.51-79.43,2.7-138.5-21-179.94-37.37-47.76-18.81-99.34-39.13-142-88.59-12.44-14.4-29.51-45.77-63.64-108.52-32.51-59.76-48.77-89.64-53.38-104.5-23.26-75.05,7.41-146.2,26.69-190.93,12.13-28.14,106.2-246.39,308-281.35C656.47-25.84,906,185.65,914.2,418.51Z"/><path class="cls-3" d="M914.89,410.83c1.46,18.64,8.41,125.49-54.64,207.94-15.49,20.26-53.58,70.07-100.52,81-7.68,1.78-17.51,3-29.63,10-26.68,15.54-26.64,37.49-49.28,46.75-15,6.13-29.7,2.53-39,.26-34-8.32-40.23-33.42-58.23-30.73C566,728.69,568.31,753.46,544,764.76c-19.28,9-43.65,4-59.55-5.66-26-15.82-20.08-38.63-40.78-47.39-23.37-9.9-38.52,16-75.46,16.13C339,728,318,711.93,287.85,689c-24.34-18.56-57.3-43.69-70.36-86-7.4-24-1.65-31.63-12.77-57.4-12.45-28.85-24.15-29.69-34.62-53.27-2.53-5.68-20.36-47.6.12-88.49,22.1-44.12,71.72-52.93,77.51-53.86l199.53,38.68,125.41,22.14,112.82-20,123.56-20.38Z"/><path class="cls-4" d="M921.39,384.89c5.71-26.48,11.16-51.79,2.23-81.36-6-19.89-17.29-38.53-31.1-60.19-9.34-14.64-14.94-23.19-32.54-44.89-48.11-59.29-43.92-63.95-67.33-86.4-13.06-12.53-34.08-30-65.43-45.74a255.61,255.61,0,0,0-67.67-40.6c-19-7.7-77.91-30.62-144-13.51-26.92,7-17.88,11-84.87,39.81-54.15,23.31-66,23.25-92.11,39.43C319.83,103.07,293.8,123,268.41,158.2c-11.2,15.14-26.74,37-44.12,64.15-27.73,43.38-33.53,58.82-36,66.08-7.73,22.46-22.84,66.36-4.89,83.8,21.44,20.84,69.48-16.11,100,9.6,8.45,7.11,12.47,16.43,20,33.84,12,27.76,6.77,36.53,15.39,53.85,10.48,21.08,36.39,44.63,63.07,41.54,33-3.82,50-46.37,52.31-52.31,14.75-37.05-.46-61.71,13.11-70.06,16.19-10,40.35,23.6,95.22,26.23a177.3,177.3,0,0,0,28.59-1.1c20.4-2.54,44.45-16.65,61.4-16.63,18.61,0,39.76,17.07,42.75,34.37,3.68,21.27-22.18,30.73-19.57,53.13,2.32,19.94,26,39.62,46.2,37.83,31.53-2.79,46.11-57,47.24-61.37,8.27-32.1-2.45-50.23,12.19-64.62,8.83-8.66,24.78-13.93,36.77-8.86,21.77,9.19,11,44.25,35.17,61.29,16.89,11.92,43.12,9.57,59.74-1.22C910.28,436.5,914.27,418,921.39,384.89Z"/><ellipse class="cls-5" cx="551.64" cy="397.3" rx="120.27" ry="119.54"/><ellipse class="cls-6" cx="515.29" cy="406.79" rx="67.55" ry="88.61"/><rect class="cls-7" x="233.35" y="424.66" width="58.31" height="11.2" rx="4.99" ry="4.99" transform="translate(189.61 -68.46) rotate(23.07)"/><rect class="cls-8" x="225.89" y="484.83" width="44.38" height="11.2" rx="4.43" ry="4.43" transform="translate(-251.13 260.52) rotate(-38.44)"/><rect class="cls-9" x="195.91" y="454.2" width="30.74" height="8.2" rx="3.19" ry="3.19" transform="translate(715.92 462.29) rotate(115.2)"/><rect class="cls-10" x="236.3" y="544.99" width="58.31" height="11.2" rx="4.99" ry="4.99" transform="translate(237.01 -59.99) rotate(23.07)"/><rect class="cls-11" x="290.07" y="514.82" width="46.41" height="12.39" rx="4.81" ry="4.81" transform="translate(716.39 976.1) rotate(169.48)"/><rect class="cls-7" x="258.74" y="612" width="58.31" height="11.2" rx="4.99" ry="4.99" transform="translate(-362 412.79) rotate(-47.52)"/><rect class="cls-8" x="331.36" y="560.77" width="40.22" height="10.53" rx="4.12" ry="4.12" transform="translate(739.27 1107.85) rotate(176.24)"/><rect class="cls-7" x="582.92" y="659.41" width="65.99" height="12.67" rx="5.65" ry="5.65" transform="translate(1482.11 934.55) rotate(150.01)"/><rect class="cls-8" x="546.2" y="605.43" width="50.22" height="12.67" rx="5.02" ry="5.02" transform="translate(1167.93 24.66) rotate(88.5)"/><rect class="cls-11" x="607.99" y="595.69" width="34.79" height="9.28" rx="3.61" ry="3.61" transform="translate(386.83 1433.76) rotate(-117.86)"/><rect class="cls-10" x="472.07" y="580.23" width="65.99" height="12.67" rx="5.65" ry="5.65" transform="translate(808.1 -125.7) rotate(63.78)"/><rect class="cls-9" x="490.98" y="682.24" width="52.52" height="14.02" rx="5.44" ry="5.44" transform="translate(-331.11 537.88) rotate(-43)"/><rect class="cls-12" x="417.09" y="562.13" width="42.64" height="12.67" rx="4.75" ry="4.75" transform="translate(-225.5 295.37) rotate(-30)"/><rect class="cls-11" x="394.73" y="647.9" width="45.52" height="11.92" rx="4.66" ry="4.66" transform="translate(59.98 1342.35) rotate(-120)"/><path class="cls-11" d="M800.5,494.73l48.4,1.35a5,5,0,0,0,5.14-4.85l0-1.21a5,5,0,0,0-4.87-5.13l-48.41-1.36a5,5,0,0,0-5.13,4.85l0,1.21A5,5,0,0,0,800.5,494.73Z"/><path class="cls-8" d="M799.86,537.22,816,568.9a4.45,4.45,0,0,0,6,2l2.08-1.05a4.43,4.43,0,0,0,1.94-6l-16.14-31.69a4.47,4.47,0,0,0-6-1.95l-2.08,1.06A4.43,4.43,0,0,0,799.86,537.22Z"/><path class="cls-9" d="M864.08,548.85l-.27-24.38a3.21,3.21,0,0,0-3.22-3.16l-1.84,0a3.21,3.21,0,0,0-3.16,3.22l.27,24.38a3.2,3.2,0,0,0,3.23,3.15h1.83A3.2,3.2,0,0,0,864.08,548.85Z"/><path class="cls-10" d="M747.66,602.88l48.4,1.36a5,5,0,0,0,5.14-4.86l0-1.21a5,5,0,0,0-4.87-5.13L748,591.68a5,5,0,0,0-5.14,4.86l0,1.21A5,5,0,0,0,747.66,602.88Z"/><rect class="cls-7" x="717.51" y="544.91" width="46.52" height="12.39" rx="4.82" ry="4.82" transform="translate(451.95 -325.84) rotate(35.12)"/><path class="cls-9" d="M710.86,628.19l14.89,46a5,5,0,0,0,6.3,3.23l1.15-.37a5,5,0,0,0,3.22-6.28l-14.88-46a5,5,0,0,0-6.3-3.23l-1.16.37A5,5,0,0,0,710.86,628.19Z"/><rect class="cls-12" x="667.04" y="570.81" width="40.32" height="10.53" rx="4.13" ry="4.13" transform="translate(356.35 -257.38) rotate(28.38)"/><ellipse class="cls-13" cx="582.54" cy="60.79" rx="24.5" ry="42" transform="translate(378.97 609.98) rotate(-75.62)"/><ellipse class="cls-13" cx="286.75" cy="308.55" rx="34.38" ry="31.78"/><circle class="cls-14" cx="291.82" cy="307.07" r="29.31"/><ellipse class="cls-13" cx="434.37" cy="148.49" rx="49.89" ry="46.17"/><circle class="cls-14" cx="424.33" cy="149" r="39.85"/><ellipse class="cls-14" cx="588.36" cy="58.05" rx="20.47" ry="37.54" transform="translate(386 613.56) rotate(-75.62)"/><ellipse class="cls-13" cx="723.64" cy="237.03" rx="32.97" ry="34.27"/><circle class="cls-14" cx="725.7" cy="233.67" r="30.91"/><ellipse class="cls-13" cx="854.07" cy="365.85" rx="26.25" ry="25.52"/><ellipse class="cls-14" cx="849.15" cy="365.5" rx="21.34" ry="23.17"/></g></g></svg>