<svg xmlns="http://www.w3.org/2000/svg" xmlns:xlink="http://www.w3.org/1999/xlink" width="1080" zoomAndPan="magnify" viewBox="0 0 810 809.999993" height="1080" preserveAspectRatio="xMidYMid meet" version="1.0"><defs><clipPath id="0e3d542181"><path d="M 456 109.730469 L 491 109.730469 L 491 191 L 456 191 Z M 456 109.730469 " clip-rule="nonzero"/></clipPath><clipPath id="c3ecab3539"><path d="M 272.496094 161.871094 L 537.246094 161.871094 L 537.246094 686.140625 L 272.496094 686.140625 Z M 272.496094 161.871094 " clip-rule="nonzero"/></clipPath><clipPath id="437b1a9870"><path d="M 272.496094 161 L 347 161 L 347 687 L 272.496094 687 Z M 272.496094 161 " clip-rule="nonzero"/></clipPath><clipPath id="1d9200e0b7"><path d="M 272.496094 657 L 537.246094 657 L 537.246094 686.140625 L 272.496094 686.140625 Z M 272.496094 657 " clip-rule="nonzero"/></clipPath><clipPath id="f7edeb7ce8"><path d="M 272.496094 161.871094 L 537.246094 161.871094 L 537.246094 190.871094 L 272.496094 190.871094 Z M 272.496094 161.871094 " clip-rule="nonzero"/></clipPath><clipPath id="e931c13bb8"><path d="M 272.496094 657 L 347 657 L 347 687 L 272.496094 687 Z M 272.496094 657 " clip-rule="nonzero"/></clipPath><clipPath id="9031e37d6a"><path d="M 272.496094 161 L 347 161 L 347 191 L 272.496094 191 Z M 272.496094 161 " clip-rule="nonzero"/></clipPath><clipPath id="bf3b078e71"><path d="M 272.496094 273.816406 L 537.246094 273.816406 L 537.246094 574.195312 L 272.496094 574.195312 Z M 272.496094 273.816406 " clip-rule="nonzero"/></clipPath><clipPath id="8ba492ae4e"><path d="M 272.496094 334 L 347 334 L 347 575 L 272.496094 575 Z M 272.496094 334 " clip-rule="nonzero"/></clipPath><clipPath id="0b99486460"><path d="M 289.621094 686 L 520.167969 686 L 520.167969 699.976562 L 289.621094 699.976562 Z M 289.621094 686 " clip-rule="nonzero"/></clipPath></defs><g clip-path="url(#0e3d542181)"><path fill="#e7e7e5" d="M 473.539062 134.617188 C 469.699219 134.617188 466.460938 131.378906 466.460938 127.539062 C 466.460938 123.691406 469.699219 120.457031 473.539062 120.457031 C 477.382812 120.457031 480.617188 123.691406 480.617188 127.539062 C 480.617188 131.378906 477.382812 134.617188 473.539062 134.617188 Z M 473.539062 109.730469 C 464.238281 109.730469 456.753906 117.417969 456.753906 126.523438 L 456.753906 173.671875 C 456.753906 182.976562 464.238281 190.464844 473.539062 190.464844 C 482.84375 190.464844 490.328125 182.976562 490.328125 173.671875 L 490.328125 126.523438 C 490.328125 117.417969 482.84375 109.730469 473.539062 109.730469 " fill-opacity="1" fill-rule="evenodd"/></g><g clip-path="url(#c3ecab3539)"><path fill="#4c608b" d="M 300.8125 161.9375 L 508.933594 161.9375 C 524.507812 161.9375 537.25 174.683594 537.25 190.265625 L 537.25 657.6875 C 537.25 673.269531 524.507812 686.015625 508.933594 686.015625 L 300.8125 686.015625 C 285.238281 686.015625 272.496094 673.269531 272.496094 657.6875 L 272.496094 190.265625 C 272.496094 174.683594 285.238281 161.9375 300.8125 161.9375 " fill-opacity="1" fill-rule="evenodd"/></g><g clip-path="url(#437b1a9870)"><path fill="#3a4f7a" d="M 300.8125 161.9375 L 346.726562 161.9375 L 346.726562 686.015625 L 300.8125 686.015625 C 285.238281 686.015625 272.496094 673.269531 272.496094 657.6875 L 272.496094 190.265625 C 272.496094 174.683594 285.238281 161.9375 300.8125 161.9375 " fill-opacity="1" fill-rule="evenodd"/></g><g clip-path="url(#1d9200e0b7)"><path fill="#e7e7e5" d="M 272.496094 657.6875 C 272.496094 673.269531 285.238281 686.015625 300.8125 686.015625 L 508.9375 686.015625 C 524.507812 686.015625 537.25 673.269531 537.25 657.6875 L 537.25 657.082031 L 272.496094 657.082031 L 272.496094 657.6875 " fill-opacity="1" fill-rule="nonzero"/></g><g clip-path="url(#f7edeb7ce8)"><path fill="#e7e7e5" d="M 508.9375 161.933594 L 300.8125 161.933594 C 285.238281 161.933594 272.496094 174.683594 272.496094 190.261719 L 272.496094 190.867188 L 537.253906 190.867188 L 537.253906 190.261719 C 537.253906 174.683594 524.507812 161.933594 508.9375 161.933594 " fill-opacity="1" fill-rule="nonzero"/></g><g clip-path="url(#e931c13bb8)"><path fill="#d0d3d0" d="M 272.496094 657.6875 C 272.496094 673.269531 285.238281 686.015625 300.8125 686.015625 L 346.726562 686.015625 L 346.726562 657.082031 L 272.496094 657.082031 L 272.496094 657.6875 " fill-opacity="1" fill-rule="nonzero"/></g><g clip-path="url(#9031e37d6a)"><path fill="#d0d3d0" d="M 300.8125 161.933594 C 285.238281 161.933594 272.496094 174.683594 272.496094 190.261719 L 272.496094 190.867188 L 346.726562 190.867188 L 346.726562 161.933594 L 300.8125 161.933594 " fill-opacity="1" fill-rule="nonzero"/></g><g clip-path="url(#bf3b078e71)"><path fill="#f8c317" d="M 272.496094 357.605469 L 537.25 273.832031 L 537.25 490.546875 L 272.496094 574.117188 L 272.496094 357.605469 " fill-opacity="1" fill-rule="evenodd"/></g><g clip-path="url(#8ba492ae4e)"><path fill="#e8b518" d="M 272.496094 357.605469 L 346.726562 334.132812 L 346.726562 550.644531 L 272.496094 574.117188 L 272.496094 357.605469 " fill-opacity="1" fill-rule="evenodd"/></g><g clip-path="url(#0b99486460)"><path fill="#d0d3d0" d="M 296.566406 686.015625 L 513.183594 686.015625 C 517.027344 686.015625 520.0625 689.253906 520.0625 693.097656 C 520.0625 696.941406 517.027344 699.976562 513.183594 699.976562 L 296.566406 699.976562 C 292.722656 699.976562 289.691406 696.941406 289.691406 693.097656 C 289.691406 689.253906 292.722656 686.015625 296.566406 686.015625 " fill-opacity="1" fill-rule="evenodd"/></g><path fill="#d0d3d0" d="M 296.566406 147.972656 L 513.183594 147.972656 C 517.027344 147.972656 520.0625 151.210938 520.0625 155.054688 C 520.0625 158.898438 517.027344 161.933594 513.183594 161.933594 L 296.566406 161.933594 C 292.722656 161.933594 289.691406 158.898438 289.691406 155.054688 C 289.691406 151.210938 292.722656 147.972656 296.566406 147.972656 " fill-opacity="1" fill-rule="evenodd"/><path fill="#ffffff" d="M 381.109375 436.117188 L 396.886719 431.261719 L 396.886719 420.941406 L 381.109375 425.796875 L 381.109375 414.261719 L 398.503906 408.800781 L 398.503906 398.074219 L 369.78125 406.980469 L 369.78125 462.828125 L 399.3125 453.71875 L 399.3125 442.796875 L 381.109375 448.664062 L 381.109375 436.117188 " fill-opacity="1" fill-rule="nonzero"/><path fill="#ffffff" d="M 348.75 426.605469 C 348.75 431.664062 349.355469 440.972656 350.164062 447.851562 L 349.960938 448.054688 C 348.75 445.019531 347.332031 441.78125 346.121094 438.75 L 335.398438 417.703125 L 324.277344 421.144531 L 324.277344 476.992188 L 335.398438 473.550781 L 335.398438 462.21875 C 335.398438 455.945312 334.792969 445.628906 333.984375 438.949219 L 334.1875 438.75 L 339.242188 450.683594 L 348.75 469.300781 L 359.875 465.859375 L 359.875 410.214844 L 348.75 413.65625 L 348.75 426.605469 " fill-opacity="1" fill-rule="nonzero"/><path fill="#ffffff" d="M 298.386719 462.015625 L 314.164062 456.957031 L 314.164062 446.636719 L 298.386719 451.492188 L 298.386719 439.960938 L 315.78125 434.699219 L 315.78125 423.773438 L 287.058594 432.878906 L 287.058594 488.523438 L 316.589844 479.417969 L 316.589844 468.695312 L 298.386719 474.359375 L 298.386719 462.015625 " fill-opacity="1" fill-rule="nonzero"/><path fill="#ffffff" d="M 464.441406 412.238281 L 471.113281 410.214844 L 471.113281 414.261719 C 471.113281 419.324219 469.292969 421.953125 465.046875 423.167969 C 461 424.378906 459.179688 422.964844 459.179688 417.902344 L 459.179688 396.253906 C 459.179688 391.195312 461.203125 388.566406 465.046875 387.351562 C 468.890625 386.132812 470.507812 387.753906 470.710938 392.609375 L 482.035156 389.171875 C 481.632812 377.636719 475.765625 373.1875 465.046875 376.421875 C 453.921875 379.863281 447.246094 388.160156 447.246094 399.894531 L 447.246094 421.546875 C 447.246094 433.28125 453.921875 437.535156 464.84375 434.089844 C 475.765625 430.855469 482.035156 422.558594 482.441406 410.824219 L 482.441406 396.660156 L 464.441406 402.324219 L 464.441406 412.238281 " fill-opacity="1" fill-rule="nonzero"/><path fill="#ffffff" d="M 510.960938 363.066406 L 506.710938 379.660156 C 506.105469 381.886719 504.6875 386.742188 504.082031 389.574219 L 503.878906 389.777344 C 503.273438 387.148438 501.855469 383.097656 501.453125 381.480469 L 496.800781 367.519531 L 485.070312 371.164062 L 498.21875 406.167969 L 498.21875 422.757812 L 509.542969 419.324219 L 509.542969 402.726562 L 522.691406 359.425781 L 510.960938 363.066406 " fill-opacity="1" fill-rule="nonzero"/><path fill="#ffffff" d="M 422.976562 416.691406 L 418.324219 418.308594 L 418.324219 402.730469 L 422.976562 401.3125 C 427.023438 399.894531 429.042969 402.121094 429.042969 407.179688 C 429.042969 412.238281 427.023438 415.476562 422.976562 416.691406 Z M 440.773438 403.539062 C 440.773438 391.800781 434.304688 386.945312 423.179688 390.386719 L 407 395.445312 L 407 451.292969 L 418.324219 447.652344 L 418.324219 429.035156 L 422.371094 427.820312 L 431.269531 443.804688 L 443.605469 439.960938 L 433.089844 421.953125 C 437.945312 417.5 440.773438 411.027344 440.773438 403.539062 " fill-opacity="1" fill-rule="nonzero"/><path fill="#e7e7e5" d="M 298.386719 462.015625 L 314.164062 456.957031 L 314.164062 446.636719 L 298.386719 451.492188 L 298.386719 439.960938 L 315.78125 434.699219 L 315.78125 423.773438 L 287.058594 432.878906 L 287.058594 488.523438 L 316.589844 479.417969 L 316.589844 468.695312 L 298.386719 474.359375 L 298.386719 462.015625 " fill-opacity="1" fill-rule="nonzero"/><path fill="#e7e7e5" d="M 346.121094 438.75 L 335.398438 417.703125 L 324.277344 421.144531 L 324.277344 476.992188 L 335.398438 473.550781 L 335.398438 462.21875 C 335.398438 455.949219 334.792969 445.625 333.984375 438.949219 L 334.1875 438.75 L 339.242188 450.683594 L 346.726562 465.457031 L 346.726562 440.164062 C 346.523438 439.757812 346.320312 439.152344 346.121094 438.75 " fill-opacity="1" fill-rule="nonzero"/></svg>