<svg xmlns="http://www.w3.org/2000/svg" xmlns:xlink="http://www.w3.org/1999/xlink" width="1080" zoomAndPan="magnify" viewBox="0 0 810 809.999993" height="1080" preserveAspectRatio="xMidYMid meet" version="1.0"><defs><clipPath id="0df484247b"><path d="M 588 104.902344 L 664 104.902344 L 664 180 L 588 180 Z M 588 104.902344 " clip-rule="nonzero"/></clipPath><clipPath id="dbf56676d4"><path d="M 665 604 L 765 604 L 765 704.902344 L 665 704.902344 Z M 665 604 " clip-rule="nonzero"/></clipPath><clipPath id="acf5225933"><path d="M 45.0625 447 L 171 447 L 171 573 L 45.0625 573 Z M 45.0625 447 " clip-rule="nonzero"/></clipPath></defs><path fill="#ecaf00" d="M 171.507812 421.230469 C 171.507812 566.910156 291.515625 684.984375 439.363281 684.984375 C 587.027344 684.984375 707.03125 566.910156 707.03125 421.230469 C 707.03125 275.550781 587.027344 157.476562 439.363281 157.476562 C 291.515625 157.476562 171.507812 275.550781 171.507812 421.230469 Z M 171.507812 421.230469 " fill-opacity="1" fill-rule="nonzero"/><path fill="#ffc550" d="M 489.558594 212.5 C 464.316406 231.980469 473.757812 273.964844 510.863281 306.148438 C 547.871094 338.375 598.433594 348.796875 623.851562 329.265625 C 649.09375 309.832031 639.550781 267.894531 602.632812 235.578125 C 565.535156 203.347656 514.976562 192.976562 489.558594 212.5 Z M 489.558594 212.5 " fill-opacity="1" fill-rule="nonzero"/><path fill="#ffffff" d="M 549.457031 228.609375 C 542.726562 239.585938 550.578125 256.636719 566.847656 266.585938 C 583.191406 276.621094 601.886719 275.691406 608.523438 264.71875 C 615.257812 253.695312 607.589844 236.738281 591.140625 226.695312 C 574.886719 216.746094 556.195312 217.585938 549.457031 228.609375 Z M 549.457031 228.609375 " fill-opacity="1" fill-rule="nonzero"/><path fill="#e79a00" d="M 320.671875 185.917969 C 278.609375 232.488281 252.253906 293.207031 252.253906 360.417969 C 252.253906 506.097656 372.257812 624.175781 520.109375 624.175781 C 562.820312 624.175781 602.734375 613.335938 638.613281 595.777344 C 589.554688 650.042969 518.804688 684.992188 439.359375 684.992188 C 291.511719 684.992188 171.503906 566.917969 171.503906 421.234375 C 171.507812 317.769531 232.632812 229.121094 320.671875 185.917969 Z M 320.671875 185.917969 " fill-opacity="1" fill-rule="nonzero"/><g clip-path="url(#0df484247b)"><path fill="#ffc550" d="M 663.859375 142.246094 C 663.859375 162.984375 647.035156 179.753906 626.28125 179.753906 C 605.527344 179.753906 588.710938 162.992188 588.710938 142.246094 C 588.710938 121.554688 605.527344 104.738281 626.28125 104.738281 C 647.035156 104.738281 663.859375 121.558594 663.859375 142.246094 Z M 663.859375 142.246094 " fill-opacity="1" fill-rule="nonzero"/></g><g clip-path="url(#dbf56676d4)"><path fill="#ffc550" d="M 764.972656 654.71875 C 764.972656 682.183594 742.730469 704.511719 715.167969 704.511719 C 687.59375 704.511719 665.347656 682.183594 665.347656 654.71875 C 665.347656 627.164062 687.59375 604.84375 715.167969 604.84375 C 742.738281 604.84375 764.972656 627.164062 764.972656 654.71875 Z M 764.972656 654.71875 " fill-opacity="1" fill-rule="nonzero"/></g><path fill="#ffffff" d="M 736.191406 624.253906 C 736.191406 629.683594 729.28125 633.988281 720.867188 633.988281 C 712.449219 633.988281 705.539062 629.6875 705.539062 624.253906 C 705.539062 618.855469 712.449219 614.554688 720.867188 614.554688 C 729.28125 614.554688 736.191406 618.847656 736.191406 624.253906 Z M 736.191406 624.253906 " fill-opacity="1" fill-rule="nonzero"/><path fill="#ffffff" d="M 641.617188 121.328125 C 641.617188 126.695312 634.699219 131.042969 626.285156 131.042969 C 617.875 131.042969 610.960938 126.695312 610.960938 121.328125 C 610.960938 115.953125 617.875 111.609375 626.285156 111.609375 C 634.699219 111.609375 641.617188 115.953125 641.617188 121.328125 Z M 641.617188 121.328125 " fill-opacity="1" fill-rule="nonzero"/><g clip-path="url(#acf5225933)"><path fill="#ecaf00" d="M 170.757812 510.109375 C 170.757812 544.769531 142.632812 572.882812 107.949219 572.882812 C 73.195312 572.882812 45.148438 544.769531 45.148438 510.109375 C 45.148438 475.363281 73.195312 447.246094 107.949219 447.246094 C 142.632812 447.246094 170.757812 475.363281 170.757812 510.109375 Z M 170.757812 510.109375 " fill-opacity="1" fill-rule="nonzero"/></g><path fill="#ffffff" d="M 111.320312 471.625 C 111.320312 477.042969 104.492188 481.34375 95.996094 481.34375 C 87.574219 481.34375 80.757812 477.046875 80.757812 471.625 C 80.757812 466.203125 87.574219 461.90625 95.996094 461.90625 C 104.492188 461.910156 111.320312 466.207031 111.320312 471.625 Z M 111.320312 471.625 " fill-opacity="1" fill-rule="nonzero"/><path fill="#ffffff" d="M 477.453125 376.632812 C 472.109375 365.046875 454.269531 333.46875 436.910156 343.636719 C 426.933594 349.476562 420.898438 364.707031 415.871094 374.488281 C 407.929688 389.921875 402.621094 406.714844 397.558594 423.246094 C 392.53125 439.695312 388.085938 456.304688 382.777344 472.664062 C 379.480469 482.835938 365.945312 501.191406 370.164062 512.054688 C 375.007812 524.542969 388.261719 528.859375 396.738281 518.226562 C 397.125 517.925781 397.46875 517.523438 397.730469 516.949219 C 405.121094 500.484375 410.394531 483.144531 415.371094 465.699219 C 433.84375 468.992188 453.695312 472.699219 472.335938 472.382812 C 474.683594 487.328125 476.515625 502.910156 481.722656 516.699219 C 483.945312 522.578125 490.363281 524.214844 495.929688 524.058594 C 517.792969 523.429688 507.296875 493.597656 505.164062 482.703125 C 498.171875 446.875 492.847656 410.042969 477.453125 376.632812 Z M 467.523438 446.039062 C 459.082031 445.652344 450.578125 445.480469 442.265625 444.554688 C 436.515625 443.914062 429.527344 442.066406 422.492188 440.738281 C 428.53125 420.210938 435.433594 400.078125 446.089844 381.574219 C 458.5625 399.550781 463.460938 424.074219 467.523438 446.039062 Z M 467.523438 446.039062 " fill-opacity="1" fill-rule="nonzero"/><path fill="#ffffff" d="M 361.511719 417.066406 C 338.558594 417.832031 316.453125 428.175781 293.496094 426.339844 C 293.320312 411.144531 293.375 395.949219 293.472656 380.753906 C 318.773438 376.265625 343.703125 374.28125 369.453125 374.207031 C 386.890625 374.152344 386.890625 347.140625 369.453125 347.195312 C 343.785156 347.277344 318.785156 349.441406 293.617188 353.550781 C 293.617188 353.113281 293.621094 352.683594 293.621094 352.246094 C 293.660156 334.832031 266.636719 334.835938 266.605469 352.246094 C 266.550781 382.046875 266.113281 411.824219 266.703125 441.628906 C 267.191406 466.203125 264.433594 499.175781 276.105469 521.792969 C 284.109375 537.265625 307.417969 523.609375 299.445312 508.160156 C 296.226562 501.925781 295.972656 488.652344 295.355469 480.40625 C 294.675781 471.414062 294.292969 462.394531 294.023438 453.378906 C 317.089844 455.070312 338.644531 444.84375 361.515625 444.078125 C 378.898438 443.496094 378.945312 416.480469 361.511719 417.066406 Z M 361.511719 417.066406 " fill-opacity="1" fill-rule="nonzero"/><path fill="#ffffff" d="M 612.75 351.8125 C 580.730469 356.527344 548.523438 347.917969 516.371094 351.296875 C 498.15625 353.210938 497.96875 381.929688 516.371094 379.996094 C 528.558594 378.714844 540.699219 378.902344 552.824219 379.460938 C 551.578125 422.695312 552.6875 465.945312 551.363281 509.179688 C 550.796875 527.691406 579.507812 527.636719 580.082031 509.179688 C 581.375 466.433594 580.335938 423.675781 581.507812 380.9375 C 594.433594 381.441406 607.378906 381.398438 620.375 379.484375 C 638.636719 376.796875 630.851562 349.144531 612.75 351.8125 Z M 612.75 351.8125 " fill-opacity="1" fill-rule="nonzero"/></svg>