<svg xmlns="http://www.w3.org/2000/svg" viewBox="0 0 788.68 709.66"><defs><style>.cls-1{fill:#c1873f;}.cls-2{fill:#fec20f;}.cls-3{fill:#db1f26;}.cls-4{fill:#b52025;}.cls-5{fill:#231f20;stroke:#231f20;}.cls-5,.cls-7,.cls-8{stroke-miterlimit:10;}.cls-6{fill:#e2e0d9;}.cls-7{fill:#fff;}.cls-7,.cls-8{stroke:#808285;stroke-width:0.75px;}.cls-8{fill:#f3f2ee;}.cls-9{fill:#808285;}</style></defs><title>Nasi SVG</title><g id="Layer_2" data-name="Layer 2"><g id="Layer_1-2" data-name="Layer 1"><ellipse class="cls-1" cx="395.98" cy="675.9" rx="278.26" ry="33.76"/><path class="cls-2" d="M176.37,667.35c-.74-22,2.1-49.75,17.4-75.39,67.75-113.61,336.69-114.06,402.35-2.59,15.06,25.57,17.55,53.85,15.83,78Z"/><path class="cls-2" d="M394.34,506.27c84.38-.69,168.77,27.06,201.78,83.1,15.06,25.57,17.55,53.85,15.83,78H394.29a187.48,187.48,0,0,0-44.61-121.29Z"/><path class="cls-2" d="M612,667.35c.18,5.31-106,16.33-218.4,16.29-111.74,0-217.36-11-217.18-16.29.19-5.9,131.72-5.89,217.79-5.89C480.69,661.46,611.76,661.46,612,667.35Z"/><path class="cls-3" d="M.5,240.4c0,217.51,176.33,393.84,393.84,393.84S788.18,457.91,788.18,240.4Z"/><path class="cls-4" d="M241,603.29a392.59,392.59,0,0,0,153.3,31c217.51,0,393.84-176.33,393.84-393.84H550.85c-8.72,49.46-27.89,117.51-72.24,187-23.21,36.38-56.73,87.68-121.3,128.66A354.71,354.71,0,0,1,241,603.29Z"/><ellipse class="cls-5" cx="394.34" cy="240.4" rx="393.84" ry="95.52"/><path class="cls-6" d="M754.18,226.7c-.43,35.58-198.33,67.22-359.84,67.22S34.93,262.28,34.51,226.7c-.42-35.09,191.31-73.6,359.54-73.64C562.63,153,754.59,191.58,754.18,226.7Z"/><path class="cls-7" d="M744.72,222c-1.35,6.19-7.72,22-85.29,41a696.62,696.62,0,0,1-75.63,14c-100.94,12.87-178.65,12.65-207.11,12.33-17.73-.2-34.69-1.06-57.12-2.52-31-2-70.71-4.6-125.52-11.79,0,0-87.84-11.67-134.9-43.39-9.44-6.37-11.47-13-12-15.46-2.45-10.67,5.14-20.22,7.35-22.78,8.5-9.83,20.35-10.91,23-11.09,6.44-21.89,16.22-30.29,23.71-34,14.55-7.17,31.4-.74,37.88-12.08,2.41-4.22,2.54-9.39,3.5-14.21,4.33-21.72,29.31-35.91,49-27.82,3.59,1.48,7.21,3.61,11,3.16,7.43-.86,10.57-10,14.2-16.9,9.83-18.64,34.94-26.14,52.62-15.73,11.7-26.37,43.35-40.82,69.67-31.81,8.13,2.78,16.14,7.54,24.62,6.48,16.77-2.11,23.56-24.13,37.64-33.93C412.7-2.46,429.15-1,439,8.87c8.68,8.62,13.07,22.92,24.46,26.69,7.71,2.56,16.19-.8,24.11.88,19.09,4,25.39,33.77,44.54,37.52,8.68,1.7,17.25-2.67,25.83-4.89S577.59,68,581.4,76.36c1.74,3.82,1.62,8.58,4.22,11.83,5.92,7.39,17.06-.32,26.25-.14,17.9.37,25.25,31,43.13,30.18,3.5-.16,6.85-1.63,10.35-1.73,12.39-.38,18.92,14.6,25.55,25.61a67,67,0,0,0,26.61,25c4.62,2.37,7.35,3.82,11.47,7.67,7.69,7.19,10.74,15.54,12.46,20.41C741.93,196.61,747,211.42,744.72,222Z"/><path class="cls-8" d="M659.43,262.91C737,244,743.37,228.15,744.72,222c2.32-10.54-2.79-25.35-3.28-26.73-1.72-4.87-4.77-13.22-12.46-20.41-4.12-3.85-6.85-5.3-11.47-7.67a67,67,0,0,1-26.61-25c-6.63-11-13.16-26-25.55-25.61-3.5.1-6.85,1.57-10.35,1.73-17.88.84-25.23-29.81-43.13-30.18-9.19-.18-20.33,7.53-26.25.14-2.6-3.25-2.48-8-4.22-11.83C577.59,68,566.55,66.85,558,69.07S540.82,75.66,532.14,74C513,70.21,506.69,40.48,487.6,36.44c-7.92-1.68-16.4,1.68-24.11-.88C452.1,31.79,447.71,17.49,439,8.87,429.15-1,412.7-2.46,401.36,5.43a17.56,17.56,0,0,0-6.57,9.25c-1.82,6.79,1.79,12.8,3.9,16.3,5.09,8.48,10.2,9.13,23.39,22a91.63,91.63,0,0,1,7.09,7.36c11.7,14.61,6.7,35.49,5.52,41.44-1.27,6.4-3.45,17.55-11.47,26.32-1.63,1.79-3.73,3.73-7,7.59-.72.86-7.25,8.76-10.13,14.55-6.45,13-1.12,28.61,0,31.92,7.67,22.46,29.44,31.18,32.29,32.28,20.76,8,42.88,1.38,47.46,0a119.77,119.77,0,0,1,11.59-3A106.62,106.62,0,0,1,518.77,209c16,.34,28.66,10.07,37.84,17.15a80.46,80.46,0,0,1,10,9c9.1,9.75,10.68,12.27,16,17,9.85,8.82,20.91,11.54,25.35,12.68,7.55,1.95,13.4,2,19.92,2.07A121.45,121.45,0,0,0,659.43,262.91Z"/><ellipse class="cls-6" cx="278.97" cy="137.77" rx="40.55" ry="6.76" transform="translate(-29.34 179.55) rotate(-34)"/><ellipse class="cls-6" cx="286.95" cy="217.3" rx="6.76" ry="30.73" transform="translate(-62.55 303.38) rotate(-50.97)"/><ellipse class="cls-6" cx="176.8" cy="191.03" rx="30.73" ry="6.76" transform="translate(-17.34 17.65) rotate(-5.45)"/><ellipse class="cls-6" cx="332.79" cy="69.4" rx="6.76" ry="23.64" transform="translate(18.09 197.96) rotate(-34)"/><ellipse class="cls-6" cx="210.8" cy="120.9" rx="23.24" ry="6.76" transform="translate(-23.74 184.47) rotate(-45)"/><ellipse class="cls-6" cx="210.8" cy="253.63" rx="7.61" ry="34.61" transform="translate(-96.97 372.1) rotate(-71.32)"/><ellipse class="cls-6" cx="95.8" cy="191.03" rx="23.24" ry="6.76" transform="translate(-115.17 156.93) rotate(-54.19)"/><ellipse class="cls-6" cx="360.2" cy="177.23" rx="6.76" ry="25.08" transform="translate(76.95 461.7) rotate(-71.32)"/><ellipse class="cls-6" cx="378.39" cy="239.9" rx="27.59" ry="8.03" transform="translate(-63.34 165.07) rotate(-22.76)"/><ellipse class="cls-6" cx="455.49" cy="261.5" rx="6.6" ry="22.7" transform="translate(40.63 583.6) rotate(-67.69)"/><ellipse class="cls-6" cx="394.34" cy="95.51" rx="23.24" ry="6.76" transform="translate(71.82 341.7) rotate(-50.97)"/><ellipse class="cls-6" cx="536.23" cy="244" rx="16.48" ry="6.76" transform="translate(9.01 506.91) rotate(-50.97)"/><ellipse class="cls-9" cx="447.89" cy="153.06" rx="4.33" ry="15.15" transform="translate(91.56 464.6) rotate(-60.03)"/><ellipse class="cls-9" cx="557.04" cy="109.06" rx="16.08" ry="4.33" transform="translate(394.98 653.05) rotate(-84.49)"/><ellipse class="cls-9" cx="482.81" cy="92.5" rx="4.33" ry="14.9" transform="translate(208.18 500.22) rotate(-66.88)"/><ellipse class="cls-9" cx="524.92" cy="168.48" rx="16.8" ry="4.14" transform="translate(-25.97 189.62) rotate(-19.99)"/><ellipse class="cls-9" cx="633.4" cy="153.06" rx="4.35" ry="15.72" transform="matrix(0.17, -0.99, 0.99, 0.17, 376.25, 751.8)"/><ellipse class="cls-9" cx="611.77" cy="217.3" rx="20.56" ry="5.58" transform="translate(155.02 678.67) rotate(-64.84)"/><ellipse class="cls-9" cx="693.19" cy="202.8" rx="4.17" ry="16.39" transform="translate(234.52 760.71) rotate(-66.88)"/><ellipse class="cls-9" cx="429.28" cy="28.72" rx="4.8" ry="13.4" transform="matrix(0.17, -0.99, 0.99, 0.17, 328.95, 447.1)"/></g></g></svg>