<svg xmlns="http://www.w3.org/2000/svg" viewBox="0 0 128.86 49.57"><defs><style>.cls-1{fill:#bc2f2c;}.cls-2{fill:none;stroke:#ff8500;stroke-miterlimit:10;stroke-width:3px;}.cls-3{fill:#fff;}</style></defs><title>Mulai (Merah)</title><g id="Layer_2" data-name="Layer 2"><g id="Layer_2-2" data-name="Layer 2"><rect class="cls-1" x="6.03" y="6.48" width="116.79" height="36.53" rx="16.24" ry="16.24"/><rect class="cls-2" x="1.5" y="1.5" width="125.86" height="46.57" rx="19.04" ry="19.04"/><path class="cls-3" d="M37.87,14.19a.38.38,0,0,1,.26-.1h5.08a.37.37,0,0,1,.27.11.42.42,0,0,1,.11.29v19.2a.4.4,0,0,1-.11.29.33.33,0,0,1-.27.11H38.37A.33.33,0,0,1,38.1,34a.4.4,0,0,1-.11-.29V24l-1.5,6.26a.35.35,0,0,1-.38.3h-5a.35.35,0,0,1-.38-.3L29.21,24v9.7a.39.39,0,0,1-.4.4H24A.36.36,0,0,1,23.7,34a.4.4,0,0,1-.11-.29V14.49a.42.42,0,0,1,.11-.29.4.4,0,0,1,.29-.11h5.06a.38.38,0,0,1,.26.1,11.92,11.92,0,0,1,1.89,3c.71,1.42,1.29,2.71,1.73,3.87l.66,1.72c.07-.17.16-.41.28-.73s.35-.88.7-1.72.68-1.6,1-2.31.7-1.42,1.13-2.16A8.35,8.35,0,0,1,37.87,14.19Z"/><path class="cls-3" d="M62.11,14.09a.37.37,0,0,1,.27.11.4.4,0,0,1,.11.27v12a10.18,10.18,0,0,1-.26,2.29,7.63,7.63,0,0,1-.9,2.2,7.32,7.32,0,0,1-1.6,1.9,7.17,7.17,0,0,1-2.48,1.3,12.08,12.08,0,0,1-6.81,0A7.26,7.26,0,0,1,48,32.88,7.17,7.17,0,0,1,46.35,31a7.63,7.63,0,0,1-.9-2.2,10.18,10.18,0,0,1-.26-2.29v-12a.4.4,0,0,1,.11-.27.37.37,0,0,1,.27-.11h4.84a.41.41,0,0,1,.28.11.37.37,0,0,1,.12.27V26.59A4.36,4.36,0,0,0,51,27.76a3.35,3.35,0,0,0,.49,1,2.28,2.28,0,0,0,1,.79,3.72,3.72,0,0,0,2.88,0,2.19,2.19,0,0,0,1-.79,3.86,3.86,0,0,0,.49-1,4,4,0,0,0,.16-1.17V14.47A.4.4,0,0,1,57,14.2a.37.37,0,0,1,.27-.11Z"/><path class="cls-3" d="M76,33.69a.4.4,0,0,1-.11.29.33.33,0,0,1-.27.11H64.49A.36.36,0,0,1,64.2,34a.4.4,0,0,1-.11-.29V14.49a.42.42,0,0,1,.11-.29.4.4,0,0,1,.29-.11h4.82a.41.41,0,0,1,.28.11.38.38,0,0,1,.12.29V29.43h5.92a.4.4,0,0,1,.29.11.42.42,0,0,1,.11.29Z"/><path class="cls-3" d="M90,14.09a.37.37,0,0,1,.36.26l7.08,19.1a.5.5,0,0,1,0,.12v.14a.37.37,0,0,1-.11.27.33.33,0,0,1-.27.11H92.17a.33.33,0,0,1-.36-.26L90.75,31h-6.4l-1.08,2.86a.33.33,0,0,1-.36.26H78a.36.36,0,0,1-.29-.11.37.37,0,0,1-.11-.27v-.14a.93.93,0,0,1,0-.14l7.08-19.08a.37.37,0,0,1,.36-.26Zm-3.84,12h2.76l-1.4-3.7Z"/><path class="cls-3" d="M104.29,34.09H99.47a.36.36,0,0,1-.29-.11.4.4,0,0,1-.11-.29V14.49a.42.42,0,0,1,.11-.29.4.4,0,0,1,.29-.11h4.82a.41.41,0,0,1,.28.11.38.38,0,0,1,.12.29v19.2a.39.39,0,0,1-.4.4Z"/></g></g></svg>