<svg xmlns="http://www.w3.org/2000/svg" viewBox="0 0 127.86 48.57"><defs><style>.cls-1{fill:#0a733a;}.cls-2{fill:none;stroke:#006838;stroke-miterlimit:10;stroke-width:2px;}.cls-3{fill:#fff;}</style></defs><title>Mulai (Hijau)</title><g id="Layer_2" data-name="Layer 2"><g id="Layer_2-2" data-name="Layer 2"><rect class="cls-1" x="5.53" y="5.98" width="116.79" height="36.53" rx="16.24" ry="16.24"/><rect class="cls-2" x="1" y="1" width="125.86" height="46.57" rx="19.04" ry="19.04"/><path class="cls-3" d="M37.37,13.69a.38.38,0,0,1,.26-.1h5.08a.34.34,0,0,1,.27.12.39.39,0,0,1,.11.28v19.2a.4.4,0,0,1-.11.29.33.33,0,0,1-.27.11H37.87a.33.33,0,0,1-.27-.11.4.4,0,0,1-.11-.29v-9.7L36,29.75a.34.34,0,0,1-.38.3h-5a.34.34,0,0,1-.38-.3l-1.48-6.26v9.7a.39.39,0,0,1-.4.4H23.49a.36.36,0,0,1-.29-.11.4.4,0,0,1-.11-.29V14a.39.39,0,0,1,.11-.28.37.37,0,0,1,.29-.12h5.06a.38.38,0,0,1,.26.1,11.92,11.92,0,0,1,1.89,3c.71,1.42,1.29,2.71,1.73,3.87l.66,1.72c.07-.17.16-.41.28-.73s.35-.88.7-1.71.68-1.61,1-2.32.7-1.42,1.13-2.16A8.35,8.35,0,0,1,37.37,13.69Z"/><path class="cls-3" d="M61.61,13.59a.36.36,0,0,1,.27.12A.36.36,0,0,1,62,14V26a10.26,10.26,0,0,1-.26,2.3,8,8,0,0,1-.9,2.19,7.32,7.32,0,0,1-1.6,1.9,7.17,7.17,0,0,1-2.48,1.3,12.08,12.08,0,0,1-6.81,0,7.26,7.26,0,0,1-2.48-1.3,7.17,7.17,0,0,1-1.61-1.9,7.69,7.69,0,0,1-.9-2.19,10.26,10.26,0,0,1-.26-2.3V14a.33.33,0,0,1,.11-.26.34.34,0,0,1,.27-.12h4.84a.39.39,0,0,1,.28.12.34.34,0,0,1,.12.26V26.09a4.36,4.36,0,0,0,.15,1.17,3.35,3.35,0,0,0,.49,1,2.28,2.28,0,0,0,1,.79,3.72,3.72,0,0,0,2.88,0,2.19,2.19,0,0,0,1-.79,3.86,3.86,0,0,0,.49-1,4,4,0,0,0,.16-1.17V14a.36.36,0,0,1,.11-.26.34.34,0,0,1,.27-.12Z"/><path class="cls-3" d="M75.53,33.19a.4.4,0,0,1-.11.29.33.33,0,0,1-.27.11H64a.36.36,0,0,1-.29-.11.4.4,0,0,1-.11-.29V14a.39.39,0,0,1,.11-.28.37.37,0,0,1,.29-.12h4.82a.38.38,0,0,1,.28.12.36.36,0,0,1,.12.28V28.93h5.92a.37.37,0,0,1,.29.12.39.39,0,0,1,.11.28Z"/><path class="cls-3" d="M89.51,13.59a.37.37,0,0,1,.36.26L97,33a.43.43,0,0,1,0,.11v.15a.36.36,0,0,1-.11.26.33.33,0,0,1-.27.11H91.67a.33.33,0,0,1-.36-.26l-1.06-2.86h-6.4l-1.08,2.86a.34.34,0,0,1-.36.26h-4.9a.36.36,0,0,1-.29-.11.33.33,0,0,1-.11-.26v-.15a1.15,1.15,0,0,1,0-.14l7.08-19.08a.36.36,0,0,1,.36-.26Zm-3.84,12h2.76L87,21.85Z"/><path class="cls-3" d="M103.79,33.59H99a.38.38,0,0,1-.4-.4V14a.36.36,0,0,1,.11-.28.37.37,0,0,1,.29-.12h4.82a.39.39,0,0,1,.28.12.36.36,0,0,1,.12.28v19.2a.37.37,0,0,1-.12.29A.38.38,0,0,1,103.79,33.59Z"/></g></g></svg>